%TF.GenerationSoftware,KiCad,Pcbnew,9.0.6*%
%TF.CreationDate,2026-01-13T21:59:34-05:00*%
%TF.ProjectId,60_keyboard,36305f6b-6579-4626-9f61-72642e6b6963,rev?*%
%TF.SameCoordinates,Original*%
%TF.FileFunction,Component,L1,Top*%
%TF.FilePolarity,Positive*%
%FSLAX46Y46*%
G04 Gerber Fmt 4.6, Leading zero omitted, Abs format (unit mm)*
G04 Created by KiCad (PCBNEW 9.0.6) date 2026-01-13 21:59:34*
%MOMM*%
%LPD*%
G01*
G04 APERTURE LIST*
%TA.AperFunction,ComponentMain*%
%ADD10C,0.300000*%
%TD*%
%TA.AperFunction,ComponentOutline,Footprint*%
%ADD11C,0.100000*%
%TD*%
%TA.AperFunction,ComponentPin*%
%ADD12P,0.360000X4X0.000000*%
%TD*%
%TA.AperFunction,ComponentPin*%
%ADD13C,0.100000*%
%TD*%
%TA.AperFunction,ComponentOutline,Courtyard*%
%ADD14C,0.100000*%
%TD*%
G04 APERTURE END LIST*
D10*
%TO.C,SW103*%
%TO.CFtp,CherryMX_1.00u*%
%TO.CVal,SW_MX*%
%TO.CLbN,Keyboard*%
%TO.CMnt,TH*%
%TO.CRot,0*%
X224000000Y-62500000D03*
D11*
X219090000Y-56320000D02*
X219090000Y-64500000D01*
X227640000Y-64500000D01*
X227640000Y-56320000D01*
X219090000Y-56320000D01*
D12*
%TO.P,SW103,1,1*%
X220190000Y-59960000D03*
D13*
%TO.P,SW103,*%
X224000000Y-62500000D03*
%TO.P,SW103,2,2*%
X226540000Y-57420000D03*
%TD*%
D10*
%TO.C,SW79*%
%TO.CFtp,CherryMX_1.00u*%
%TO.CVal,SW_MX*%
%TO.CLbN,Keyboard*%
%TO.CMnt,TH*%
%TO.CRot,0*%
X129000000Y-43500000D03*
D11*
X124090000Y-37320000D02*
X124090000Y-45500000D01*
X132640000Y-45500000D01*
X132640000Y-37320000D01*
X124090000Y-37320000D01*
D12*
%TO.P,SW79,1,1*%
X125190000Y-40960000D03*
D13*
%TO.P,SW79,*%
X129000000Y-43500000D03*
%TO.P,SW79,2,2*%
X131540000Y-38420000D03*
%TD*%
D10*
%TO.C,SW82*%
%TO.CFtp,CherryMX_1.00u*%
%TO.CVal,SW_MX*%
%TO.CLbN,Keyboard*%
%TO.CMnt,TH*%
%TO.CRot,0*%
X148000000Y-24500000D03*
D11*
X143090000Y-18320000D02*
X143090000Y-26500000D01*
X151640000Y-26500000D01*
X151640000Y-18320000D01*
X143090000Y-18320000D01*
D12*
%TO.P,SW82,1,1*%
X144190000Y-21960000D03*
D13*
%TO.P,SW82,*%
X148000000Y-24500000D03*
%TO.P,SW82,2,2*%
X150540000Y-19420000D03*
%TD*%
D10*
%TO.C,SW68*%
%TO.CFtp,CherryMX_1.00u*%
%TO.CVal,SW_MX*%
%TO.CLbN,Keyboard*%
%TO.CMnt,TH*%
%TO.CRot,0*%
X91000000Y-24500000D03*
D11*
X86090000Y-18320000D02*
X86090000Y-26500000D01*
X94640000Y-26500000D01*
X94640000Y-18320000D01*
X86090000Y-18320000D01*
D12*
%TO.P,SW68,1,1*%
X87190000Y-21960000D03*
D13*
%TO.P,SW68,*%
X91000000Y-24500000D03*
%TO.P,SW68,2,2*%
X93540000Y-19420000D03*
%TD*%
D10*
%TO.C,SW85*%
%TO.CFtp,CherryMX_1.00u*%
%TO.CVal,SW_MX*%
%TO.CLbN,Keyboard*%
%TO.CMnt,TH*%
%TO.CRot,0*%
X148000000Y-81500000D03*
D11*
X143090000Y-75320000D02*
X143090000Y-83500000D01*
X151640000Y-83500000D01*
X151640000Y-75320000D01*
X143090000Y-75320000D01*
D12*
%TO.P,SW85,1,1*%
X144190000Y-78960000D03*
D13*
%TO.P,SW85,*%
X148000000Y-81500000D03*
%TO.P,SW85,2,2*%
X150540000Y-76420000D03*
%TD*%
D10*
%TO.C,SW91*%
%TO.CFtp,CherryMX_1.00u*%
%TO.CVal,SW_MX*%
%TO.CLbN,Keyboard*%
%TO.CMnt,TH*%
%TO.CRot,0*%
X186000000Y-24500000D03*
D11*
X181090000Y-18320000D02*
X181090000Y-26500000D01*
X189640000Y-26500000D01*
X189640000Y-18320000D01*
X181090000Y-18320000D01*
D12*
%TO.P,SW91,1,1*%
X182190000Y-21960000D03*
D13*
%TO.P,SW91,*%
X186000000Y-24500000D03*
%TO.P,SW91,2,2*%
X188540000Y-19420000D03*
%TD*%
D10*
%TO.C,R6*%
%TO.CFtp,R_0402_1005Metric_Pad0.72x0.64mm_HandSolder*%
%TO.CVal,10k*%
%TO.CLbN,Resistor_SMD*%
%TO.CMnt,SMD*%
%TO.CRot,90*%
X227000000Y-13750000D03*
D14*
X227465000Y-12645000D02*
X227465000Y-14855000D01*
X226535000Y-14855000D01*
X226535000Y-12645000D01*
X227465000Y-12645000D01*
D12*
%TO.P,R6,1*%
X227000000Y-14347500D03*
D13*
%TO.P,R6,2*%
X227000000Y-13152500D03*
%TD*%
D10*
%TO.C,SW59*%
%TO.CFtp,CherryMX_1.00u*%
%TO.CVal,SW_MX*%
%TO.CLbN,Keyboard*%
%TO.CMnt,TH*%
%TO.CRot,0*%
X53000000Y-24500000D03*
D11*
X48090000Y-18320000D02*
X48090000Y-26500000D01*
X56640000Y-26500000D01*
X56640000Y-18320000D01*
X48090000Y-18320000D01*
D12*
%TO.P,SW59,1,1*%
X49190000Y-21960000D03*
D13*
%TO.P,SW59,*%
X53000000Y-24500000D03*
%TO.P,SW59,2,2*%
X55540000Y-19420000D03*
%TD*%
D10*
%TO.C,SW86*%
%TO.CFtp,CherryMX_3.00u*%
%TO.CVal,SW_MX*%
%TO.CLbN,Keyboard*%
%TO.CMnt,TH*%
%TO.CRot,0*%
X148000000Y-100500000D03*
D11*
X143090000Y-94320000D02*
X143090000Y-102500000D01*
X151640000Y-102500000D01*
X151640000Y-94320000D01*
X143090000Y-94320000D01*
D12*
%TO.P,SW86,1,1*%
X144190000Y-97960000D03*
D13*
%TO.P,SW86,*%
X148000000Y-100500000D03*
%TO.P,SW86,2,2*%
X150540000Y-95420000D03*
%TD*%
D10*
%TO.C,SW76*%
%TO.CFtp,CherryMX_1.00u*%
%TO.CVal,SW_MX*%
%TO.CLbN,Keyboard*%
%TO.CMnt,TH*%
%TO.CRot,0*%
X110000000Y-81500000D03*
D11*
X105090000Y-75320000D02*
X105090000Y-83500000D01*
X113640000Y-83500000D01*
X113640000Y-75320000D01*
X105090000Y-75320000D01*
D12*
%TO.P,SW76,1,1*%
X106190000Y-78960000D03*
D13*
%TO.P,SW76,*%
X110000000Y-81500000D03*
%TO.P,SW76,2,2*%
X112540000Y-76420000D03*
%TD*%
D10*
%TO.C,SW97*%
%TO.CFtp,CherryMX_1.00u*%
%TO.CVal,SW_MX*%
%TO.CLbN,Keyboard*%
%TO.CMnt,TH*%
%TO.CRot,0*%
X205000000Y-43500000D03*
D11*
X200090000Y-37320000D02*
X200090000Y-45500000D01*
X208640000Y-45500000D01*
X208640000Y-37320000D01*
X200090000Y-37320000D01*
D12*
%TO.P,SW97,1,1*%
X201190000Y-40960000D03*
D13*
%TO.P,SW97,*%
X205000000Y-43500000D03*
%TO.P,SW97,2,2*%
X207540000Y-38420000D03*
%TD*%
D10*
%TO.C,SW99*%
%TO.CFtp,CherryMX_1.00u*%
%TO.CVal,SW_MX*%
%TO.CLbN,Keyboard*%
%TO.CMnt,TH*%
%TO.CRot,0*%
X205000000Y-81500000D03*
D11*
X200090000Y-75320000D02*
X200090000Y-83500000D01*
X208640000Y-83500000D01*
X208640000Y-75320000D01*
X200090000Y-75320000D01*
D12*
%TO.P,SW99,1,1*%
X201190000Y-78960000D03*
D13*
%TO.P,SW99,*%
X205000000Y-81500000D03*
%TO.P,SW99,2,2*%
X207540000Y-76420000D03*
%TD*%
D10*
%TO.C,SW106*%
%TO.CFtp,CherryMX_1.50u*%
%TO.CVal,SW_MX*%
%TO.CLbN,Keyboard*%
%TO.CMnt,TH*%
%TO.CRot,0*%
X247750000Y-43500000D03*
D11*
X242840000Y-37320000D02*
X242840000Y-45500000D01*
X251390000Y-45500000D01*
X251390000Y-37320000D01*
X242840000Y-37320000D01*
D12*
%TO.P,SW106,1,1*%
X243940000Y-40960000D03*
D13*
%TO.P,SW106,*%
X247750000Y-43500000D03*
%TO.P,SW106,2,2*%
X250290000Y-38420000D03*
%TD*%
D10*
%TO.C,SW58*%
%TO.CFtp,CherryMX_1.50u*%
%TO.CVal,SW_MX*%
%TO.CLbN,Keyboard*%
%TO.CMnt,TH*%
%TO.CRot,0*%
X29250000Y-81500000D03*
D11*
X24340000Y-75320000D02*
X24340000Y-83500000D01*
X32890000Y-83500000D01*
X32890000Y-75320000D01*
X24340000Y-75320000D01*
D12*
%TO.P,SW58,1,1*%
X25440000Y-78960000D03*
D13*
%TO.P,SW58,*%
X29250000Y-81500000D03*
%TO.P,SW58,2,2*%
X31790000Y-76420000D03*
%TD*%
D10*
%TO.C,SW83*%
%TO.CFtp,CherryMX_1.00u*%
%TO.CVal,SW_MX*%
%TO.CLbN,Keyboard*%
%TO.CMnt,TH*%
%TO.CRot,0*%
X148000000Y-43500000D03*
D11*
X143090000Y-37320000D02*
X143090000Y-45500000D01*
X151640000Y-45500000D01*
X151640000Y-37320000D01*
X143090000Y-37320000D01*
D12*
%TO.P,SW83,1,1*%
X144190000Y-40960000D03*
D13*
%TO.P,SW83,*%
X148000000Y-43500000D03*
%TO.P,SW83,2,2*%
X150540000Y-38420000D03*
%TD*%
D10*
%TO.C,SW100*%
%TO.CFtp,CherryMX_1.00u*%
%TO.CVal,SW_MX*%
%TO.CLbN,Keyboard*%
%TO.CMnt,TH*%
%TO.CRot,0*%
X205000000Y-100500000D03*
D11*
X200090000Y-94320000D02*
X200090000Y-102500000D01*
X208640000Y-102500000D01*
X208640000Y-94320000D01*
X200090000Y-94320000D01*
D12*
%TO.P,SW100,1,1*%
X201190000Y-97960000D03*
D13*
%TO.P,SW100,*%
X205000000Y-100500000D03*
%TO.P,SW100,2,2*%
X207540000Y-95420000D03*
%TD*%
D10*
%TO.C,SW55*%
%TO.CFtp,CherryMX_1.50u*%
%TO.CVal,SW_MX*%
%TO.CLbN,Keyboard*%
%TO.CMnt,TH*%
%TO.CRot,0*%
X29250000Y-24500000D03*
D11*
X24340000Y-18320000D02*
X24340000Y-26500000D01*
X32890000Y-26500000D01*
X32890000Y-18320000D01*
X24340000Y-18320000D01*
D12*
%TO.P,SW55,1,1*%
X25440000Y-21960000D03*
D13*
%TO.P,SW55,*%
X29250000Y-24500000D03*
%TO.P,SW55,2,2*%
X31790000Y-19420000D03*
%TD*%
D10*
%TO.C,SW107*%
%TO.CFtp,CherryMX_1.50u*%
%TO.CVal,SW_MX*%
%TO.CLbN,Keyboard*%
%TO.CMnt,TH*%
%TO.CRot,0*%
X247750000Y-62500000D03*
D11*
X242840000Y-56320000D02*
X242840000Y-64500000D01*
X251390000Y-64500000D01*
X251390000Y-56320000D01*
X242840000Y-56320000D01*
D12*
%TO.P,SW107,1,1*%
X243940000Y-59960000D03*
D13*
%TO.P,SW107,*%
X247750000Y-62500000D03*
%TO.P,SW107,2,2*%
X250290000Y-57420000D03*
%TD*%
D10*
%TO.C,D4*%
%TO.CFtp,D_SOD-323_HandSoldering*%
%TO.CVal,D_TVS*%
%TO.CLbN,Diode_SMD*%
%TO.CMnt,SMD*%
%TO.CRot,180*%
X234500000Y-18500000D03*
D14*
X236495000Y-17555000D02*
X236495000Y-19445000D01*
X232505000Y-19445000D01*
X232505000Y-17555000D01*
X236495000Y-17555000D01*
D12*
%TO.P,D4,1,A1*%
X235750000Y-18500000D03*
D13*
%TO.P,D4,2,A2*%
X233250000Y-18500000D03*
%TD*%
D10*
%TO.C,SW1*%
%TO.CFtp,Nidec_Copal_CAS-120A*%
%TO.CVal,SW_Nidec_CAS-120A1*%
%TO.CLbN,Button_Switch_SMD*%
%TO.CMnt,SMD*%
%TO.CRot,90*%
X221250000Y-13100000D03*
D14*
X224195000Y-10905000D02*
X224195000Y-15295000D01*
X218305000Y-15295000D01*
X218305000Y-10905000D01*
X224195000Y-10905000D01*
D12*
%TO.P,SW1,1,C*%
X219500000Y-14250000D03*
D13*
%TO.P,SW1,2,B*%
X221250000Y-11950000D03*
%TO.P,SW1,3,A*%
X223000000Y-14250000D03*
%TD*%
D10*
%TO.C,SW72*%
%TO.CFtp,CherryMX_1.00u*%
%TO.CVal,SW_MX*%
%TO.CLbN,Keyboard*%
%TO.CMnt,TH*%
%TO.CRot,0*%
X91000000Y-100500000D03*
D11*
X86090000Y-94320000D02*
X86090000Y-102500000D01*
X94640000Y-102500000D01*
X94640000Y-94320000D01*
X86090000Y-94320000D01*
D12*
%TO.P,SW72,1,1*%
X87190000Y-97960000D03*
D13*
%TO.P,SW72,*%
X91000000Y-100500000D03*
%TO.P,SW72,2,2*%
X93540000Y-95420000D03*
%TD*%
D10*
%TO.C,SW56*%
%TO.CFtp,CherryMX_1.50u*%
%TO.CVal,SW_MX*%
%TO.CLbN,Keyboard*%
%TO.CMnt,TH*%
%TO.CRot,0*%
X29250000Y-43500000D03*
D11*
X24340000Y-37320000D02*
X24340000Y-45500000D01*
X32890000Y-45500000D01*
X32890000Y-37320000D01*
X24340000Y-37320000D01*
D12*
%TO.P,SW56,1,1*%
X25440000Y-40960000D03*
D13*
%TO.P,SW56,*%
X29250000Y-43500000D03*
%TO.P,SW56,2,2*%
X31790000Y-38420000D03*
%TD*%
D10*
%TO.C,SW93*%
%TO.CFtp,CherryMX_1.00u*%
%TO.CVal,SW_MX*%
%TO.CLbN,Keyboard*%
%TO.CMnt,TH*%
%TO.CRot,0*%
X186000000Y-62540000D03*
D11*
X181090000Y-56360000D02*
X181090000Y-64540000D01*
X189640000Y-64540000D01*
X189640000Y-56360000D01*
X181090000Y-56360000D01*
D12*
%TO.P,SW93,1,1*%
X182190000Y-60000000D03*
D13*
%TO.P,SW93,*%
X186000000Y-62540000D03*
%TO.P,SW93,2,2*%
X188540000Y-57460000D03*
%TD*%
D10*
%TO.C,SW66*%
%TO.CFtp,CherryMX_1.00u*%
%TO.CVal,SW_MX*%
%TO.CLbN,Keyboard*%
%TO.CMnt,TH*%
%TO.CRot,0*%
X72000000Y-81500000D03*
D11*
X67090000Y-75320000D02*
X67090000Y-83500000D01*
X75640000Y-83500000D01*
X75640000Y-75320000D01*
X67090000Y-75320000D01*
D12*
%TO.P,SW66,1,1*%
X68190000Y-78960000D03*
D13*
%TO.P,SW66,*%
X72000000Y-81500000D03*
%TO.P,SW66,2,2*%
X74540000Y-76420000D03*
%TD*%
D10*
%TO.C,SW81*%
%TO.CFtp,CherryMX_1.00u*%
%TO.CVal,SW_MX*%
%TO.CLbN,Keyboard*%
%TO.CMnt,TH*%
%TO.CRot,0*%
X129000000Y-81500000D03*
D11*
X124090000Y-75320000D02*
X124090000Y-83500000D01*
X132640000Y-83500000D01*
X132640000Y-75320000D01*
X124090000Y-75320000D01*
D12*
%TO.P,SW81,1,1*%
X125190000Y-78960000D03*
D13*
%TO.P,SW81,*%
X129000000Y-81500000D03*
%TO.P,SW81,2,2*%
X131540000Y-76420000D03*
%TD*%
D10*
%TO.C,SW92*%
%TO.CFtp,CherryMX_1.00u*%
%TO.CVal,SW_MX*%
%TO.CLbN,Keyboard*%
%TO.CMnt,TH*%
%TO.CRot,0*%
X186000000Y-43500000D03*
D11*
X181090000Y-37320000D02*
X181090000Y-45500000D01*
X189640000Y-45500000D01*
X189640000Y-37320000D01*
X181090000Y-37320000D01*
D12*
%TO.P,SW92,1,1*%
X182190000Y-40960000D03*
D13*
%TO.P,SW92,*%
X186000000Y-43500000D03*
%TO.P,SW92,2,2*%
X188540000Y-38420000D03*
%TD*%
D10*
%TO.C,SW64*%
%TO.CFtp,CherryMX_1.00u*%
%TO.CVal,SW_MX*%
%TO.CLbN,Keyboard*%
%TO.CMnt,TH*%
%TO.CRot,0*%
X72000000Y-43500000D03*
D11*
X67090000Y-37320000D02*
X67090000Y-45500000D01*
X75640000Y-45500000D01*
X75640000Y-37320000D01*
X67090000Y-37320000D01*
D12*
%TO.P,SW64,1,1*%
X68190000Y-40960000D03*
D13*
%TO.P,SW64,*%
X72000000Y-43500000D03*
%TO.P,SW64,2,2*%
X74540000Y-38420000D03*
%TD*%
D10*
%TO.C,SW95*%
%TO.CFtp,CherryMX_1.00u*%
%TO.CVal,SW_MX*%
%TO.CLbN,Keyboard*%
%TO.CMnt,TH*%
%TO.CRot,0*%
X186000000Y-100500000D03*
D11*
X181090000Y-94320000D02*
X181090000Y-102500000D01*
X189640000Y-102500000D01*
X189640000Y-94320000D01*
X181090000Y-94320000D01*
D12*
%TO.P,SW95,1,1*%
X182190000Y-97960000D03*
D13*
%TO.P,SW95,*%
X186000000Y-100500000D03*
%TO.P,SW95,2,2*%
X188540000Y-95420000D03*
%TD*%
D10*
%TO.C,SW94*%
%TO.CFtp,CherryMX_1.00u*%
%TO.CVal,SW_MX*%
%TO.CLbN,Keyboard*%
%TO.CMnt,TH*%
%TO.CRot,0*%
X186000000Y-81500000D03*
D11*
X181090000Y-75320000D02*
X181090000Y-83500000D01*
X189640000Y-83500000D01*
X189640000Y-75320000D01*
X181090000Y-75320000D01*
D12*
%TO.P,SW94,1,1*%
X182190000Y-78960000D03*
D13*
%TO.P,SW94,*%
X186000000Y-81500000D03*
%TO.P,SW94,2,2*%
X188540000Y-76420000D03*
%TD*%
D10*
%TO.C,SW105*%
%TO.CFtp,CherryMX_1.50u*%
%TO.CVal,SW_MX*%
%TO.CLbN,Keyboard*%
%TO.CMnt,TH*%
%TO.CRot,0*%
X247750000Y-24500000D03*
D11*
X242840000Y-18320000D02*
X242840000Y-26500000D01*
X251390000Y-26500000D01*
X251390000Y-18320000D01*
X242840000Y-18320000D01*
D12*
%TO.P,SW105,1,1*%
X243940000Y-21960000D03*
D13*
%TO.P,SW105,*%
X247750000Y-24500000D03*
%TO.P,SW105,2,2*%
X250290000Y-19420000D03*
%TD*%
D10*
%TO.C,SW108*%
%TO.CFtp,CherryMX_1.50u*%
%TO.CVal,SW_MX*%
%TO.CLbN,Keyboard*%
%TO.CMnt,TH*%
%TO.CRot,0*%
X247750000Y-81500000D03*
D11*
X242840000Y-75320000D02*
X242840000Y-83500000D01*
X251390000Y-83500000D01*
X251390000Y-75320000D01*
X242840000Y-75320000D01*
D12*
%TO.P,SW108,1,1*%
X243940000Y-78960000D03*
D13*
%TO.P,SW108,*%
X247750000Y-81500000D03*
%TO.P,SW108,2,2*%
X250290000Y-76420000D03*
%TD*%
D10*
%TO.C,SW60*%
%TO.CFtp,CherryMX_1.00u*%
%TO.CVal,SW_MX*%
%TO.CLbN,Keyboard*%
%TO.CMnt,TH*%
%TO.CRot,0*%
X53000000Y-43500000D03*
D11*
X48090000Y-37320000D02*
X48090000Y-45500000D01*
X56640000Y-45500000D01*
X56640000Y-37320000D01*
X48090000Y-37320000D01*
D12*
%TO.P,SW60,1,1*%
X49190000Y-40960000D03*
D13*
%TO.P,SW60,*%
X53000000Y-43500000D03*
%TO.P,SW60,2,2*%
X55540000Y-38420000D03*
%TD*%
D10*
%TO.C,SW69*%
%TO.CFtp,CherryMX_1.00u*%
%TO.CVal,SW_MX*%
%TO.CLbN,Keyboard*%
%TO.CMnt,TH*%
%TO.CRot,0*%
X91000000Y-43500000D03*
D11*
X86090000Y-37320000D02*
X86090000Y-45500000D01*
X94640000Y-45500000D01*
X94640000Y-37320000D01*
X86090000Y-37320000D01*
D12*
%TO.P,SW69,1,1*%
X87190000Y-40960000D03*
D13*
%TO.P,SW69,*%
X91000000Y-43500000D03*
%TO.P,SW69,2,2*%
X93540000Y-38420000D03*
%TD*%
D10*
%TO.C,SW63*%
%TO.CFtp,CherryMX_1.00u*%
%TO.CVal,SW_MX*%
%TO.CLbN,Keyboard*%
%TO.CMnt,TH*%
%TO.CRot,0*%
X72000000Y-24500000D03*
D11*
X67090000Y-18320000D02*
X67090000Y-26500000D01*
X75640000Y-26500000D01*
X75640000Y-18320000D01*
X67090000Y-18320000D01*
D12*
%TO.P,SW63,1,1*%
X68190000Y-21960000D03*
D13*
%TO.P,SW63,*%
X72000000Y-24500000D03*
%TO.P,SW63,2,2*%
X74540000Y-19420000D03*
%TD*%
D10*
%TO.C,SW78*%
%TO.CFtp,CherryMX_1.00u*%
%TO.CVal,SW_MX*%
%TO.CLbN,Keyboard*%
%TO.CMnt,TH*%
%TO.CRot,0*%
X129000000Y-24500000D03*
D11*
X124090000Y-18320000D02*
X124090000Y-26500000D01*
X132640000Y-26500000D01*
X132640000Y-18320000D01*
X124090000Y-18320000D01*
D12*
%TO.P,SW78,1,1*%
X125190000Y-21960000D03*
D13*
%TO.P,SW78,*%
X129000000Y-24500000D03*
%TO.P,SW78,2,2*%
X131540000Y-19420000D03*
%TD*%
D10*
%TO.C,SW80*%
%TO.CFtp,CherryMX_1.00u*%
%TO.CVal,SW_MX*%
%TO.CLbN,Keyboard*%
%TO.CMnt,TH*%
%TO.CRot,0*%
X129000000Y-62500000D03*
D11*
X124090000Y-56320000D02*
X124090000Y-64500000D01*
X132640000Y-64500000D01*
X132640000Y-56320000D01*
X124090000Y-56320000D01*
D12*
%TO.P,SW80,1,1*%
X125190000Y-59960000D03*
D13*
%TO.P,SW80,*%
X129000000Y-62500000D03*
%TO.P,SW80,2,2*%
X131540000Y-57420000D03*
%TD*%
D10*
%TO.C,SW96*%
%TO.CFtp,CherryMX_1.00u*%
%TO.CVal,SW_MX*%
%TO.CLbN,Keyboard*%
%TO.CMnt,TH*%
%TO.CRot,0*%
X205000000Y-24500000D03*
D11*
X200090000Y-18320000D02*
X200090000Y-26500000D01*
X208640000Y-26500000D01*
X208640000Y-18320000D01*
X200090000Y-18320000D01*
D12*
%TO.P,SW96,1,1*%
X201190000Y-21960000D03*
D13*
%TO.P,SW96,*%
X205000000Y-24500000D03*
%TO.P,SW96,2,2*%
X207540000Y-19420000D03*
%TD*%
D10*
%TO.C,SW101*%
%TO.CFtp,CherryMX_1.00u*%
%TO.CVal,SW_MX*%
%TO.CLbN,Keyboard*%
%TO.CMnt,TH*%
%TO.CRot,0*%
X224000000Y-24500000D03*
D11*
X219090000Y-18320000D02*
X219090000Y-26500000D01*
X227640000Y-26500000D01*
X227640000Y-18320000D01*
X219090000Y-18320000D01*
D12*
%TO.P,SW101,1,1*%
X220190000Y-21960000D03*
D13*
%TO.P,SW101,*%
X224000000Y-24500000D03*
%TO.P,SW101,2,2*%
X226540000Y-19420000D03*
%TD*%
D10*
%TO.C,SW67*%
%TO.CFtp,CherryMX_1.00u*%
%TO.CVal,SW_MX*%
%TO.CLbN,Keyboard*%
%TO.CMnt,TH*%
%TO.CRot,0*%
X72000000Y-100500000D03*
D11*
X67090000Y-94320000D02*
X67090000Y-102500000D01*
X75640000Y-102500000D01*
X75640000Y-94320000D01*
X67090000Y-94320000D01*
D12*
%TO.P,SW67,1,1*%
X68190000Y-97960000D03*
D13*
%TO.P,SW67,*%
X72000000Y-100500000D03*
%TO.P,SW67,2,2*%
X74540000Y-95420000D03*
%TD*%
D10*
%TO.C,SW90*%
%TO.CFtp,CherryMX_1.00u*%
%TO.CVal,SW_MX*%
%TO.CLbN,Keyboard*%
%TO.CMnt,TH*%
%TO.CRot,0*%
X167000000Y-81500000D03*
D11*
X162090000Y-75320000D02*
X162090000Y-83500000D01*
X170640000Y-83500000D01*
X170640000Y-75320000D01*
X162090000Y-75320000D01*
D12*
%TO.P,SW90,1,1*%
X163190000Y-78960000D03*
D13*
%TO.P,SW90,*%
X167000000Y-81500000D03*
%TO.P,SW90,2,2*%
X169540000Y-76420000D03*
%TD*%
D10*
%TO.C,SW102*%
%TO.CFtp,CherryMX_1.00u*%
%TO.CVal,SW_MX*%
%TO.CLbN,Keyboard*%
%TO.CMnt,TH*%
%TO.CRot,0*%
X224000000Y-43500000D03*
D11*
X219090000Y-37320000D02*
X219090000Y-45500000D01*
X227640000Y-45500000D01*
X227640000Y-37320000D01*
X219090000Y-37320000D01*
D12*
%TO.P,SW102,1,1*%
X220190000Y-40960000D03*
D13*
%TO.P,SW102,*%
X224000000Y-43500000D03*
%TO.P,SW102,2,2*%
X226540000Y-38420000D03*
%TD*%
D10*
%TO.C,SW70*%
%TO.CFtp,CherryMX_1.00u*%
%TO.CVal,SW_MX*%
%TO.CLbN,Keyboard*%
%TO.CMnt,TH*%
%TO.CRot,0*%
X91000000Y-62500000D03*
D11*
X86090000Y-56320000D02*
X86090000Y-64500000D01*
X94640000Y-64500000D01*
X94640000Y-56320000D01*
X86090000Y-56320000D01*
D12*
%TO.P,SW70,1,1*%
X87190000Y-59960000D03*
D13*
%TO.P,SW70,*%
X91000000Y-62500000D03*
%TO.P,SW70,2,2*%
X93540000Y-57420000D03*
%TD*%
D10*
%TO.C,R1*%
%TO.CFtp,R_0402_1005Metric_Pad0.72x0.64mm_HandSolder*%
%TO.CVal,5.1K*%
%TO.CLbN,Resistor_SMD*%
%TO.CMnt,SMD*%
%TO.CRot,0*%
X239000000Y-18500000D03*
D14*
X240105000Y-18035000D02*
X240105000Y-18965000D01*
X237895000Y-18965000D01*
X237895000Y-18035000D01*
X240105000Y-18035000D01*
D12*
%TO.P,R1,1*%
X238402500Y-18500000D03*
D13*
%TO.P,R1,2*%
X239597500Y-18500000D03*
%TD*%
D10*
%TO.C,SW65*%
%TO.CFtp,CherryMX_1.00u*%
%TO.CVal,SW_MX*%
%TO.CLbN,Keyboard*%
%TO.CMnt,TH*%
%TO.CRot,0*%
X72000000Y-62500000D03*
D11*
X67090000Y-56320000D02*
X67090000Y-64500000D01*
X75640000Y-64500000D01*
X75640000Y-56320000D01*
X67090000Y-56320000D01*
D12*
%TO.P,SW65,1,1*%
X68190000Y-59960000D03*
D13*
%TO.P,SW65,*%
X72000000Y-62500000D03*
%TO.P,SW65,2,2*%
X74540000Y-57420000D03*
%TD*%
D10*
%TO.C,SW77*%
%TO.CFtp,CherryMX_1.00u*%
%TO.CVal,SW_MX*%
%TO.CLbN,Keyboard*%
%TO.CMnt,TH*%
%TO.CRot,0*%
X110000000Y-100500000D03*
D11*
X105090000Y-94320000D02*
X105090000Y-102500000D01*
X113640000Y-102500000D01*
X113640000Y-94320000D01*
X105090000Y-94320000D01*
D12*
%TO.P,SW77,1,1*%
X106190000Y-97960000D03*
D13*
%TO.P,SW77,*%
X110000000Y-100500000D03*
%TO.P,SW77,2,2*%
X112540000Y-95420000D03*
%TD*%
D10*
%TO.C,SW98*%
%TO.CFtp,CherryMX_1.00u*%
%TO.CVal,SW_MX*%
%TO.CLbN,Keyboard*%
%TO.CMnt,TH*%
%TO.CRot,0*%
X205000000Y-62500000D03*
D11*
X200090000Y-56320000D02*
X200090000Y-64500000D01*
X208640000Y-64500000D01*
X208640000Y-56320000D01*
X200090000Y-56320000D01*
D12*
%TO.P,SW98,1,1*%
X201190000Y-59960000D03*
D13*
%TO.P,SW98,*%
X205000000Y-62500000D03*
%TO.P,SW98,2,2*%
X207540000Y-57420000D03*
%TD*%
D10*
%TO.C,R5*%
%TO.CFtp,R_0402_1005Metric_Pad0.72x0.64mm_HandSolder*%
%TO.CVal,10k*%
%TO.CLbN,Resistor_SMD*%
%TO.CMnt,SMD*%
%TO.CRot,90*%
X225750000Y-13750000D03*
D14*
X226215000Y-12645000D02*
X226215000Y-14855000D01*
X225285000Y-14855000D01*
X225285000Y-12645000D01*
X226215000Y-12645000D01*
D12*
%TO.P,R5,1*%
X225750000Y-14347500D03*
D13*
%TO.P,R5,2*%
X225750000Y-13152500D03*
%TD*%
D10*
%TO.C,SW89*%
%TO.CFtp,CherryMX_1.00u*%
%TO.CVal,SW_MX*%
%TO.CLbN,Keyboard*%
%TO.CMnt,TH*%
%TO.CRot,0*%
X167000000Y-62500000D03*
D11*
X162090000Y-56320000D02*
X162090000Y-64500000D01*
X170640000Y-64500000D01*
X170640000Y-56320000D01*
X162090000Y-56320000D01*
D12*
%TO.P,SW89,1,1*%
X163190000Y-59960000D03*
D13*
%TO.P,SW89,*%
X167000000Y-62500000D03*
%TO.P,SW89,2,2*%
X169540000Y-57420000D03*
%TD*%
D10*
%TO.C,SW61*%
%TO.CFtp,CherryMX_1.00u*%
%TO.CVal,SW_MX*%
%TO.CLbN,Keyboard*%
%TO.CMnt,TH*%
%TO.CRot,0*%
X53000000Y-62500000D03*
D11*
X48090000Y-56320000D02*
X48090000Y-64500000D01*
X56640000Y-64500000D01*
X56640000Y-56320000D01*
X48090000Y-56320000D01*
D12*
%TO.P,SW61,1,1*%
X49190000Y-59960000D03*
D13*
%TO.P,SW61,*%
X53000000Y-62500000D03*
%TO.P,SW61,2,2*%
X55540000Y-57420000D03*
%TD*%
D10*
%TO.C,SW74*%
%TO.CFtp,CherryMX_1.00u*%
%TO.CVal,SW_MX*%
%TO.CLbN,Keyboard*%
%TO.CMnt,TH*%
%TO.CRot,0*%
X110000000Y-43500000D03*
D11*
X105090000Y-37320000D02*
X105090000Y-45500000D01*
X113640000Y-45500000D01*
X113640000Y-37320000D01*
X105090000Y-37320000D01*
D12*
%TO.P,SW74,1,1*%
X106190000Y-40960000D03*
D13*
%TO.P,SW74,*%
X110000000Y-43500000D03*
%TO.P,SW74,2,2*%
X112540000Y-38420000D03*
%TD*%
D10*
%TO.C,SW57*%
%TO.CFtp,CherryMX_1.50u*%
%TO.CVal,SW_MX*%
%TO.CLbN,Keyboard*%
%TO.CMnt,TH*%
%TO.CRot,0*%
X29250000Y-62500000D03*
D11*
X24340000Y-56320000D02*
X24340000Y-64500000D01*
X32890000Y-64500000D01*
X32890000Y-56320000D01*
X24340000Y-56320000D01*
D12*
%TO.P,SW57,1,1*%
X25440000Y-59960000D03*
D13*
%TO.P,SW57,*%
X29250000Y-62500000D03*
%TO.P,SW57,2,2*%
X31790000Y-57420000D03*
%TD*%
D10*
%TO.C,SW84*%
%TO.CFtp,CherryMX_1.00u*%
%TO.CVal,SW_MX*%
%TO.CLbN,Keyboard*%
%TO.CMnt,TH*%
%TO.CRot,0*%
X148000000Y-62500000D03*
D11*
X143090000Y-56320000D02*
X143090000Y-64500000D01*
X151640000Y-64500000D01*
X151640000Y-56320000D01*
X143090000Y-56320000D01*
D12*
%TO.P,SW84,1,1*%
X144190000Y-59960000D03*
D13*
%TO.P,SW84,*%
X148000000Y-62500000D03*
%TO.P,SW84,2,2*%
X150540000Y-57420000D03*
%TD*%
D10*
%TO.C,SW73*%
%TO.CFtp,CherryMX_1.00u*%
%TO.CVal,SW_MX*%
%TO.CLbN,Keyboard*%
%TO.CMnt,TH*%
%TO.CRot,0*%
X110000000Y-24500000D03*
D11*
X105090000Y-18320000D02*
X105090000Y-26500000D01*
X113640000Y-26500000D01*
X113640000Y-18320000D01*
X105090000Y-18320000D01*
D12*
%TO.P,SW73,1,1*%
X106190000Y-21960000D03*
D13*
%TO.P,SW73,*%
X110000000Y-24500000D03*
%TO.P,SW73,2,2*%
X112540000Y-19420000D03*
%TD*%
D10*
%TO.C,SW104*%
%TO.CFtp,CherryMX_1.00u*%
%TO.CVal,SW_MX*%
%TO.CLbN,Keyboard*%
%TO.CMnt,TH*%
%TO.CRot,0*%
X224000000Y-81500000D03*
D11*
X219090000Y-75320000D02*
X219090000Y-83500000D01*
X227640000Y-83500000D01*
X227640000Y-75320000D01*
X219090000Y-75320000D01*
D12*
%TO.P,SW104,1,1*%
X220190000Y-78960000D03*
D13*
%TO.P,SW104,*%
X224000000Y-81500000D03*
%TO.P,SW104,2,2*%
X226540000Y-76420000D03*
%TD*%
D10*
%TO.C,SW87*%
%TO.CFtp,CherryMX_1.00u*%
%TO.CVal,SW_MX*%
%TO.CLbN,Keyboard*%
%TO.CMnt,TH*%
%TO.CRot,0*%
X167000000Y-24500000D03*
D11*
X162090000Y-18320000D02*
X162090000Y-26500000D01*
X170640000Y-26500000D01*
X170640000Y-18320000D01*
X162090000Y-18320000D01*
D12*
%TO.P,SW87,1,1*%
X163190000Y-21960000D03*
D13*
%TO.P,SW87,*%
X167000000Y-24500000D03*
%TO.P,SW87,2,2*%
X169540000Y-19420000D03*
%TD*%
D10*
%TO.C,SW62*%
%TO.CFtp,CherryMX_1.00u*%
%TO.CVal,SW_MX*%
%TO.CLbN,Keyboard*%
%TO.CMnt,TH*%
%TO.CRot,0*%
X53000000Y-81500000D03*
D11*
X48090000Y-75320000D02*
X48090000Y-83500000D01*
X56640000Y-83500000D01*
X56640000Y-75320000D01*
X48090000Y-75320000D01*
D12*
%TO.P,SW62,1,1*%
X49190000Y-78960000D03*
D13*
%TO.P,SW62,*%
X53000000Y-81500000D03*
%TO.P,SW62,2,2*%
X55540000Y-76420000D03*
%TD*%
D10*
%TO.C,R4*%
%TO.CFtp,R_0402_1005Metric_Pad0.72x0.64mm_HandSolder*%
%TO.CVal,10k*%
%TO.CLbN,Resistor_SMD*%
%TO.CMnt,SMD*%
%TO.CRot,90*%
X239250000Y-30500000D03*
D14*
X239715000Y-29395000D02*
X239715000Y-31605000D01*
X238785000Y-31605000D01*
X238785000Y-29395000D01*
X239715000Y-29395000D01*
D12*
%TO.P,R4,1*%
X239250000Y-31097500D03*
D13*
%TO.P,R4,2*%
X239250000Y-29902500D03*
%TD*%
D10*
%TO.C,SW88*%
%TO.CFtp,CherryMX_1.00u*%
%TO.CVal,SW_MX*%
%TO.CLbN,Keyboard*%
%TO.CMnt,TH*%
%TO.CRot,0*%
X167000000Y-43500000D03*
D11*
X162090000Y-37320000D02*
X162090000Y-45500000D01*
X170640000Y-45500000D01*
X170640000Y-37320000D01*
X162090000Y-37320000D01*
D12*
%TO.P,SW88,1,1*%
X163190000Y-40960000D03*
D13*
%TO.P,SW88,*%
X167000000Y-43500000D03*
%TO.P,SW88,2,2*%
X169540000Y-38420000D03*
%TD*%
D10*
%TO.C,SW75*%
%TO.CFtp,CherryMX_1.00u*%
%TO.CVal,SW_MX*%
%TO.CLbN,Keyboard*%
%TO.CMnt,TH*%
%TO.CRot,0*%
X110000000Y-62500000D03*
D11*
X105090000Y-56320000D02*
X105090000Y-64500000D01*
X113640000Y-64500000D01*
X113640000Y-56320000D01*
X105090000Y-56320000D01*
D12*
%TO.P,SW75,1,1*%
X106190000Y-59960000D03*
D13*
%TO.P,SW75,*%
X110000000Y-62500000D03*
%TO.P,SW75,2,2*%
X112540000Y-57420000D03*
%TD*%
D10*
%TO.C,SW71*%
%TO.CFtp,CherryMX_1.00u*%
%TO.CVal,SW_MX*%
%TO.CLbN,Keyboard*%
%TO.CMnt,TH*%
%TO.CRot,0*%
X91000000Y-81500000D03*
D11*
X86090000Y-75320000D02*
X86090000Y-83500000D01*
X94640000Y-83500000D01*
X94640000Y-75320000D01*
X86090000Y-75320000D01*
D12*
%TO.P,SW71,1,1*%
X87190000Y-78960000D03*
D13*
%TO.P,SW71,*%
X91000000Y-81500000D03*
%TO.P,SW71,2,2*%
X93540000Y-76420000D03*
%TD*%
M02*
