%TF.GenerationSoftware,KiCad,Pcbnew,9.0.6*%
%TF.CreationDate,2026-01-15T12:54:41-05:00*%
%TF.ProjectId,60_keyboard,36305f6b-6579-4626-9f61-72642e6b6963,rev?*%
%TF.SameCoordinates,Original*%
%TF.FileFunction,Profile,NP*%
%FSLAX46Y46*%
G04 Gerber Fmt 4.6, Leading zero omitted, Abs format (unit mm)*
G04 Created by KiCad (PCBNEW 9.0.6) date 2026-01-15 12:54:41*
%MOMM*%
%LPD*%
G01*
G04 APERTURE LIST*
%TA.AperFunction,Profile*%
%ADD10C,0.050000*%
%TD*%
G04 APERTURE END LIST*
D10*
X15000000Y-15035534D02*
G75*
G02*
X19964466Y-10000000I5000000J35534D01*
G01*
X262000000Y-15000000D02*
X262000000Y-107500000D01*
X256964462Y-10000126D02*
G75*
G02*
X262000000Y-15000000I35538J-4999874D01*
G01*
X262000000Y-107500000D02*
G75*
G02*
X257000000Y-112500000I-5000000J0D01*
G01*
X19964466Y-10000000D02*
X256964466Y-10000737D01*
X20000000Y-112500000D02*
G75*
G02*
X15000000Y-107499962I0J5000000D01*
G01*
X15000000Y-107499962D02*
X15000001Y-15035637D01*
X257000034Y-112500000D02*
X20000000Y-112500000D01*
%TO.C,SW103*%
X219771000Y-62500000D02*
G75*
G02*
X218069000Y-62500000I-851000J0D01*
G01*
X218069000Y-62500000D02*
G75*
G02*
X219771000Y-62500000I851000J0D01*
G01*
X221690000Y-59960000D02*
G75*
G02*
X218690000Y-59960000I-1500000J0D01*
G01*
X218690000Y-59960000D02*
G75*
G02*
X221690000Y-59960000I1500000J0D01*
G01*
X225994000Y-62500000D02*
G75*
G02*
X222006000Y-62500000I-1994000J0D01*
G01*
X222006000Y-62500000D02*
G75*
G02*
X225994000Y-62500000I1994000J0D01*
G01*
X228050000Y-57420000D02*
G75*
G02*
X225050000Y-57420000I-1500000J0D01*
G01*
X225050000Y-57420000D02*
G75*
G02*
X228050000Y-57420000I1500000J0D01*
G01*
X229931000Y-62500000D02*
G75*
G02*
X228229000Y-62500000I-851000J0D01*
G01*
X228229000Y-62500000D02*
G75*
G02*
X229931000Y-62500000I851000J0D01*
G01*
%TO.C,SW79*%
X124771000Y-43500000D02*
G75*
G02*
X123069000Y-43500000I-851000J0D01*
G01*
X123069000Y-43500000D02*
G75*
G02*
X124771000Y-43500000I851000J0D01*
G01*
X126690000Y-40960000D02*
G75*
G02*
X123690000Y-40960000I-1500000J0D01*
G01*
X123690000Y-40960000D02*
G75*
G02*
X126690000Y-40960000I1500000J0D01*
G01*
X130994000Y-43500000D02*
G75*
G02*
X127006000Y-43500000I-1994000J0D01*
G01*
X127006000Y-43500000D02*
G75*
G02*
X130994000Y-43500000I1994000J0D01*
G01*
X133050000Y-38420000D02*
G75*
G02*
X130050000Y-38420000I-1500000J0D01*
G01*
X130050000Y-38420000D02*
G75*
G02*
X133050000Y-38420000I1500000J0D01*
G01*
X134931000Y-43500000D02*
G75*
G02*
X133229000Y-43500000I-851000J0D01*
G01*
X133229000Y-43500000D02*
G75*
G02*
X134931000Y-43500000I851000J0D01*
G01*
%TO.C,SW82*%
X143771000Y-24500000D02*
G75*
G02*
X142069000Y-24500000I-851000J0D01*
G01*
X142069000Y-24500000D02*
G75*
G02*
X143771000Y-24500000I851000J0D01*
G01*
X145690000Y-21960000D02*
G75*
G02*
X142690000Y-21960000I-1500000J0D01*
G01*
X142690000Y-21960000D02*
G75*
G02*
X145690000Y-21960000I1500000J0D01*
G01*
X149994000Y-24500000D02*
G75*
G02*
X146006000Y-24500000I-1994000J0D01*
G01*
X146006000Y-24500000D02*
G75*
G02*
X149994000Y-24500000I1994000J0D01*
G01*
X152050000Y-19420000D02*
G75*
G02*
X149050000Y-19420000I-1500000J0D01*
G01*
X149050000Y-19420000D02*
G75*
G02*
X152050000Y-19420000I1500000J0D01*
G01*
X153931000Y-24500000D02*
G75*
G02*
X152229000Y-24500000I-851000J0D01*
G01*
X152229000Y-24500000D02*
G75*
G02*
X153931000Y-24500000I851000J0D01*
G01*
%TO.C,SW68*%
X86771000Y-24500000D02*
G75*
G02*
X85069000Y-24500000I-851000J0D01*
G01*
X85069000Y-24500000D02*
G75*
G02*
X86771000Y-24500000I851000J0D01*
G01*
X88690000Y-21960000D02*
G75*
G02*
X85690000Y-21960000I-1500000J0D01*
G01*
X85690000Y-21960000D02*
G75*
G02*
X88690000Y-21960000I1500000J0D01*
G01*
X92994000Y-24500000D02*
G75*
G02*
X89006000Y-24500000I-1994000J0D01*
G01*
X89006000Y-24500000D02*
G75*
G02*
X92994000Y-24500000I1994000J0D01*
G01*
X95050000Y-19420000D02*
G75*
G02*
X92050000Y-19420000I-1500000J0D01*
G01*
X92050000Y-19420000D02*
G75*
G02*
X95050000Y-19420000I1500000J0D01*
G01*
X96931000Y-24500000D02*
G75*
G02*
X95229000Y-24500000I-851000J0D01*
G01*
X95229000Y-24500000D02*
G75*
G02*
X96931000Y-24500000I851000J0D01*
G01*
%TO.C,SW85*%
X143771000Y-81500000D02*
G75*
G02*
X142069000Y-81500000I-851000J0D01*
G01*
X142069000Y-81500000D02*
G75*
G02*
X143771000Y-81500000I851000J0D01*
G01*
X145690000Y-78960000D02*
G75*
G02*
X142690000Y-78960000I-1500000J0D01*
G01*
X142690000Y-78960000D02*
G75*
G02*
X145690000Y-78960000I1500000J0D01*
G01*
X149994000Y-81500000D02*
G75*
G02*
X146006000Y-81500000I-1994000J0D01*
G01*
X146006000Y-81500000D02*
G75*
G02*
X149994000Y-81500000I1994000J0D01*
G01*
X152050000Y-76420000D02*
G75*
G02*
X149050000Y-76420000I-1500000J0D01*
G01*
X149050000Y-76420000D02*
G75*
G02*
X152050000Y-76420000I1500000J0D01*
G01*
X153931000Y-81500000D02*
G75*
G02*
X152229000Y-81500000I-851000J0D01*
G01*
X152229000Y-81500000D02*
G75*
G02*
X153931000Y-81500000I851000J0D01*
G01*
%TO.C,SW91*%
X181771000Y-24500000D02*
G75*
G02*
X180069000Y-24500000I-851000J0D01*
G01*
X180069000Y-24500000D02*
G75*
G02*
X181771000Y-24500000I851000J0D01*
G01*
X183690000Y-21960000D02*
G75*
G02*
X180690000Y-21960000I-1500000J0D01*
G01*
X180690000Y-21960000D02*
G75*
G02*
X183690000Y-21960000I1500000J0D01*
G01*
X187994000Y-24500000D02*
G75*
G02*
X184006000Y-24500000I-1994000J0D01*
G01*
X184006000Y-24500000D02*
G75*
G02*
X187994000Y-24500000I1994000J0D01*
G01*
X190050000Y-19420000D02*
G75*
G02*
X187050000Y-19420000I-1500000J0D01*
G01*
X187050000Y-19420000D02*
G75*
G02*
X190050000Y-19420000I1500000J0D01*
G01*
X191931000Y-24500000D02*
G75*
G02*
X190229000Y-24500000I-851000J0D01*
G01*
X190229000Y-24500000D02*
G75*
G02*
X191931000Y-24500000I851000J0D01*
G01*
%TO.C,SW59*%
X48771000Y-24500000D02*
G75*
G02*
X47069000Y-24500000I-851000J0D01*
G01*
X47069000Y-24500000D02*
G75*
G02*
X48771000Y-24500000I851000J0D01*
G01*
X50690000Y-21960000D02*
G75*
G02*
X47690000Y-21960000I-1500000J0D01*
G01*
X47690000Y-21960000D02*
G75*
G02*
X50690000Y-21960000I1500000J0D01*
G01*
X54994000Y-24500000D02*
G75*
G02*
X51006000Y-24500000I-1994000J0D01*
G01*
X51006000Y-24500000D02*
G75*
G02*
X54994000Y-24500000I1994000J0D01*
G01*
X57050000Y-19420000D02*
G75*
G02*
X54050000Y-19420000I-1500000J0D01*
G01*
X54050000Y-19420000D02*
G75*
G02*
X57050000Y-19420000I1500000J0D01*
G01*
X58931000Y-24500000D02*
G75*
G02*
X57229000Y-24500000I-851000J0D01*
G01*
X57229000Y-24500000D02*
G75*
G02*
X58931000Y-24500000I851000J0D01*
G01*
%TO.C,SW86*%
X143771000Y-100500000D02*
G75*
G02*
X142069000Y-100500000I-851000J0D01*
G01*
X142069000Y-100500000D02*
G75*
G02*
X143771000Y-100500000I851000J0D01*
G01*
X145690000Y-97960000D02*
G75*
G02*
X142690000Y-97960000I-1500000J0D01*
G01*
X142690000Y-97960000D02*
G75*
G02*
X145690000Y-97960000I1500000J0D01*
G01*
X149994000Y-100500000D02*
G75*
G02*
X146006000Y-100500000I-1994000J0D01*
G01*
X146006000Y-100500000D02*
G75*
G02*
X149994000Y-100500000I1994000J0D01*
G01*
X152050000Y-95420000D02*
G75*
G02*
X149050000Y-95420000I-1500000J0D01*
G01*
X149050000Y-95420000D02*
G75*
G02*
X152050000Y-95420000I1500000J0D01*
G01*
X153931000Y-100500000D02*
G75*
G02*
X152229000Y-100500000I-851000J0D01*
G01*
X152229000Y-100500000D02*
G75*
G02*
X153931000Y-100500000I851000J0D01*
G01*
%TO.C,SW76*%
X105771000Y-81500000D02*
G75*
G02*
X104069000Y-81500000I-851000J0D01*
G01*
X104069000Y-81500000D02*
G75*
G02*
X105771000Y-81500000I851000J0D01*
G01*
X107690000Y-78960000D02*
G75*
G02*
X104690000Y-78960000I-1500000J0D01*
G01*
X104690000Y-78960000D02*
G75*
G02*
X107690000Y-78960000I1500000J0D01*
G01*
X111994000Y-81500000D02*
G75*
G02*
X108006000Y-81500000I-1994000J0D01*
G01*
X108006000Y-81500000D02*
G75*
G02*
X111994000Y-81500000I1994000J0D01*
G01*
X114050000Y-76420000D02*
G75*
G02*
X111050000Y-76420000I-1500000J0D01*
G01*
X111050000Y-76420000D02*
G75*
G02*
X114050000Y-76420000I1500000J0D01*
G01*
X115931000Y-81500000D02*
G75*
G02*
X114229000Y-81500000I-851000J0D01*
G01*
X114229000Y-81500000D02*
G75*
G02*
X115931000Y-81500000I851000J0D01*
G01*
%TO.C,SW97*%
X200771000Y-43500000D02*
G75*
G02*
X199069000Y-43500000I-851000J0D01*
G01*
X199069000Y-43500000D02*
G75*
G02*
X200771000Y-43500000I851000J0D01*
G01*
X202690000Y-40960000D02*
G75*
G02*
X199690000Y-40960000I-1500000J0D01*
G01*
X199690000Y-40960000D02*
G75*
G02*
X202690000Y-40960000I1500000J0D01*
G01*
X206994000Y-43500000D02*
G75*
G02*
X203006000Y-43500000I-1994000J0D01*
G01*
X203006000Y-43500000D02*
G75*
G02*
X206994000Y-43500000I1994000J0D01*
G01*
X209050000Y-38420000D02*
G75*
G02*
X206050000Y-38420000I-1500000J0D01*
G01*
X206050000Y-38420000D02*
G75*
G02*
X209050000Y-38420000I1500000J0D01*
G01*
X210931000Y-43500000D02*
G75*
G02*
X209229000Y-43500000I-851000J0D01*
G01*
X209229000Y-43500000D02*
G75*
G02*
X210931000Y-43500000I851000J0D01*
G01*
%TO.C,SW99*%
X200771000Y-81500000D02*
G75*
G02*
X199069000Y-81500000I-851000J0D01*
G01*
X199069000Y-81500000D02*
G75*
G02*
X200771000Y-81500000I851000J0D01*
G01*
X202690000Y-78960000D02*
G75*
G02*
X199690000Y-78960000I-1500000J0D01*
G01*
X199690000Y-78960000D02*
G75*
G02*
X202690000Y-78960000I1500000J0D01*
G01*
X206994000Y-81500000D02*
G75*
G02*
X203006000Y-81500000I-1994000J0D01*
G01*
X203006000Y-81500000D02*
G75*
G02*
X206994000Y-81500000I1994000J0D01*
G01*
X209050000Y-76420000D02*
G75*
G02*
X206050000Y-76420000I-1500000J0D01*
G01*
X206050000Y-76420000D02*
G75*
G02*
X209050000Y-76420000I1500000J0D01*
G01*
X210931000Y-81500000D02*
G75*
G02*
X209229000Y-81500000I-851000J0D01*
G01*
X209229000Y-81500000D02*
G75*
G02*
X210931000Y-81500000I851000J0D01*
G01*
%TO.C,SW106*%
X243521000Y-43500000D02*
G75*
G02*
X241819000Y-43500000I-851000J0D01*
G01*
X241819000Y-43500000D02*
G75*
G02*
X243521000Y-43500000I851000J0D01*
G01*
X245440000Y-40960000D02*
G75*
G02*
X242440000Y-40960000I-1500000J0D01*
G01*
X242440000Y-40960000D02*
G75*
G02*
X245440000Y-40960000I1500000J0D01*
G01*
X249744000Y-43500000D02*
G75*
G02*
X245756000Y-43500000I-1994000J0D01*
G01*
X245756000Y-43500000D02*
G75*
G02*
X249744000Y-43500000I1994000J0D01*
G01*
X251800000Y-38420000D02*
G75*
G02*
X248800000Y-38420000I-1500000J0D01*
G01*
X248800000Y-38420000D02*
G75*
G02*
X251800000Y-38420000I1500000J0D01*
G01*
X253681000Y-43500000D02*
G75*
G02*
X251979000Y-43500000I-851000J0D01*
G01*
X251979000Y-43500000D02*
G75*
G02*
X253681000Y-43500000I851000J0D01*
G01*
%TO.C,SW58*%
X25021000Y-81500000D02*
G75*
G02*
X23319000Y-81500000I-851000J0D01*
G01*
X23319000Y-81500000D02*
G75*
G02*
X25021000Y-81500000I851000J0D01*
G01*
X26940000Y-78960000D02*
G75*
G02*
X23940000Y-78960000I-1500000J0D01*
G01*
X23940000Y-78960000D02*
G75*
G02*
X26940000Y-78960000I1500000J0D01*
G01*
X31244000Y-81500000D02*
G75*
G02*
X27256000Y-81500000I-1994000J0D01*
G01*
X27256000Y-81500000D02*
G75*
G02*
X31244000Y-81500000I1994000J0D01*
G01*
X33300000Y-76420000D02*
G75*
G02*
X30300000Y-76420000I-1500000J0D01*
G01*
X30300000Y-76420000D02*
G75*
G02*
X33300000Y-76420000I1500000J0D01*
G01*
X35181000Y-81500000D02*
G75*
G02*
X33479000Y-81500000I-851000J0D01*
G01*
X33479000Y-81500000D02*
G75*
G02*
X35181000Y-81500000I851000J0D01*
G01*
%TO.C,SW83*%
X143771000Y-43500000D02*
G75*
G02*
X142069000Y-43500000I-851000J0D01*
G01*
X142069000Y-43500000D02*
G75*
G02*
X143771000Y-43500000I851000J0D01*
G01*
X145690000Y-40960000D02*
G75*
G02*
X142690000Y-40960000I-1500000J0D01*
G01*
X142690000Y-40960000D02*
G75*
G02*
X145690000Y-40960000I1500000J0D01*
G01*
X149994000Y-43500000D02*
G75*
G02*
X146006000Y-43500000I-1994000J0D01*
G01*
X146006000Y-43500000D02*
G75*
G02*
X149994000Y-43500000I1994000J0D01*
G01*
X152050000Y-38420000D02*
G75*
G02*
X149050000Y-38420000I-1500000J0D01*
G01*
X149050000Y-38420000D02*
G75*
G02*
X152050000Y-38420000I1500000J0D01*
G01*
X153931000Y-43500000D02*
G75*
G02*
X152229000Y-43500000I-851000J0D01*
G01*
X152229000Y-43500000D02*
G75*
G02*
X153931000Y-43500000I851000J0D01*
G01*
%TO.C,SW100*%
X200771000Y-100500000D02*
G75*
G02*
X199069000Y-100500000I-851000J0D01*
G01*
X199069000Y-100500000D02*
G75*
G02*
X200771000Y-100500000I851000J0D01*
G01*
X202690000Y-97960000D02*
G75*
G02*
X199690000Y-97960000I-1500000J0D01*
G01*
X199690000Y-97960000D02*
G75*
G02*
X202690000Y-97960000I1500000J0D01*
G01*
X206994000Y-100500000D02*
G75*
G02*
X203006000Y-100500000I-1994000J0D01*
G01*
X203006000Y-100500000D02*
G75*
G02*
X206994000Y-100500000I1994000J0D01*
G01*
X209050000Y-95420000D02*
G75*
G02*
X206050000Y-95420000I-1500000J0D01*
G01*
X206050000Y-95420000D02*
G75*
G02*
X209050000Y-95420000I1500000J0D01*
G01*
X210931000Y-100500000D02*
G75*
G02*
X209229000Y-100500000I-851000J0D01*
G01*
X209229000Y-100500000D02*
G75*
G02*
X210931000Y-100500000I851000J0D01*
G01*
%TO.C,SW55*%
X25021000Y-24500000D02*
G75*
G02*
X23319000Y-24500000I-851000J0D01*
G01*
X23319000Y-24500000D02*
G75*
G02*
X25021000Y-24500000I851000J0D01*
G01*
X26940000Y-21960000D02*
G75*
G02*
X23940000Y-21960000I-1500000J0D01*
G01*
X23940000Y-21960000D02*
G75*
G02*
X26940000Y-21960000I1500000J0D01*
G01*
X31244000Y-24500000D02*
G75*
G02*
X27256000Y-24500000I-1994000J0D01*
G01*
X27256000Y-24500000D02*
G75*
G02*
X31244000Y-24500000I1994000J0D01*
G01*
X33300000Y-19420000D02*
G75*
G02*
X30300000Y-19420000I-1500000J0D01*
G01*
X30300000Y-19420000D02*
G75*
G02*
X33300000Y-19420000I1500000J0D01*
G01*
X35181000Y-24500000D02*
G75*
G02*
X33479000Y-24500000I-851000J0D01*
G01*
X33479000Y-24500000D02*
G75*
G02*
X35181000Y-24500000I851000J0D01*
G01*
%TO.C,SW107*%
X243521000Y-62500000D02*
G75*
G02*
X241819000Y-62500000I-851000J0D01*
G01*
X241819000Y-62500000D02*
G75*
G02*
X243521000Y-62500000I851000J0D01*
G01*
X245440000Y-59960000D02*
G75*
G02*
X242440000Y-59960000I-1500000J0D01*
G01*
X242440000Y-59960000D02*
G75*
G02*
X245440000Y-59960000I1500000J0D01*
G01*
X249744000Y-62500000D02*
G75*
G02*
X245756000Y-62500000I-1994000J0D01*
G01*
X245756000Y-62500000D02*
G75*
G02*
X249744000Y-62500000I1994000J0D01*
G01*
X251800000Y-57420000D02*
G75*
G02*
X248800000Y-57420000I-1500000J0D01*
G01*
X248800000Y-57420000D02*
G75*
G02*
X251800000Y-57420000I1500000J0D01*
G01*
X253681000Y-62500000D02*
G75*
G02*
X251979000Y-62500000I-851000J0D01*
G01*
X251979000Y-62500000D02*
G75*
G02*
X253681000Y-62500000I851000J0D01*
G01*
%TO.C,SW72*%
X86771000Y-100500000D02*
G75*
G02*
X85069000Y-100500000I-851000J0D01*
G01*
X85069000Y-100500000D02*
G75*
G02*
X86771000Y-100500000I851000J0D01*
G01*
X88690000Y-97960000D02*
G75*
G02*
X85690000Y-97960000I-1500000J0D01*
G01*
X85690000Y-97960000D02*
G75*
G02*
X88690000Y-97960000I1500000J0D01*
G01*
X92994000Y-100500000D02*
G75*
G02*
X89006000Y-100500000I-1994000J0D01*
G01*
X89006000Y-100500000D02*
G75*
G02*
X92994000Y-100500000I1994000J0D01*
G01*
X95050000Y-95420000D02*
G75*
G02*
X92050000Y-95420000I-1500000J0D01*
G01*
X92050000Y-95420000D02*
G75*
G02*
X95050000Y-95420000I1500000J0D01*
G01*
X96931000Y-100500000D02*
G75*
G02*
X95229000Y-100500000I-851000J0D01*
G01*
X95229000Y-100500000D02*
G75*
G02*
X96931000Y-100500000I851000J0D01*
G01*
%TO.C,SW56*%
X25021000Y-43500000D02*
G75*
G02*
X23319000Y-43500000I-851000J0D01*
G01*
X23319000Y-43500000D02*
G75*
G02*
X25021000Y-43500000I851000J0D01*
G01*
X26940000Y-40960000D02*
G75*
G02*
X23940000Y-40960000I-1500000J0D01*
G01*
X23940000Y-40960000D02*
G75*
G02*
X26940000Y-40960000I1500000J0D01*
G01*
X31244000Y-43500000D02*
G75*
G02*
X27256000Y-43500000I-1994000J0D01*
G01*
X27256000Y-43500000D02*
G75*
G02*
X31244000Y-43500000I1994000J0D01*
G01*
X33300000Y-38420000D02*
G75*
G02*
X30300000Y-38420000I-1500000J0D01*
G01*
X30300000Y-38420000D02*
G75*
G02*
X33300000Y-38420000I1500000J0D01*
G01*
X35181000Y-43500000D02*
G75*
G02*
X33479000Y-43500000I-851000J0D01*
G01*
X33479000Y-43500000D02*
G75*
G02*
X35181000Y-43500000I851000J0D01*
G01*
%TO.C,SW93*%
X181771000Y-62540000D02*
G75*
G02*
X180069000Y-62540000I-851000J0D01*
G01*
X180069000Y-62540000D02*
G75*
G02*
X181771000Y-62540000I851000J0D01*
G01*
X183690000Y-60000000D02*
G75*
G02*
X180690000Y-60000000I-1500000J0D01*
G01*
X180690000Y-60000000D02*
G75*
G02*
X183690000Y-60000000I1500000J0D01*
G01*
X187994000Y-62540000D02*
G75*
G02*
X184006000Y-62540000I-1994000J0D01*
G01*
X184006000Y-62540000D02*
G75*
G02*
X187994000Y-62540000I1994000J0D01*
G01*
X190050000Y-57460000D02*
G75*
G02*
X187050000Y-57460000I-1500000J0D01*
G01*
X187050000Y-57460000D02*
G75*
G02*
X190050000Y-57460000I1500000J0D01*
G01*
X191931000Y-62540000D02*
G75*
G02*
X190229000Y-62540000I-851000J0D01*
G01*
X190229000Y-62540000D02*
G75*
G02*
X191931000Y-62540000I851000J0D01*
G01*
%TO.C,SW66*%
X67771000Y-81500000D02*
G75*
G02*
X66069000Y-81500000I-851000J0D01*
G01*
X66069000Y-81500000D02*
G75*
G02*
X67771000Y-81500000I851000J0D01*
G01*
X69690000Y-78960000D02*
G75*
G02*
X66690000Y-78960000I-1500000J0D01*
G01*
X66690000Y-78960000D02*
G75*
G02*
X69690000Y-78960000I1500000J0D01*
G01*
X73994000Y-81500000D02*
G75*
G02*
X70006000Y-81500000I-1994000J0D01*
G01*
X70006000Y-81500000D02*
G75*
G02*
X73994000Y-81500000I1994000J0D01*
G01*
X76050000Y-76420000D02*
G75*
G02*
X73050000Y-76420000I-1500000J0D01*
G01*
X73050000Y-76420000D02*
G75*
G02*
X76050000Y-76420000I1500000J0D01*
G01*
X77931000Y-81500000D02*
G75*
G02*
X76229000Y-81500000I-851000J0D01*
G01*
X76229000Y-81500000D02*
G75*
G02*
X77931000Y-81500000I851000J0D01*
G01*
%TO.C,SW81*%
X124771000Y-81500000D02*
G75*
G02*
X123069000Y-81500000I-851000J0D01*
G01*
X123069000Y-81500000D02*
G75*
G02*
X124771000Y-81500000I851000J0D01*
G01*
X126690000Y-78960000D02*
G75*
G02*
X123690000Y-78960000I-1500000J0D01*
G01*
X123690000Y-78960000D02*
G75*
G02*
X126690000Y-78960000I1500000J0D01*
G01*
X130994000Y-81500000D02*
G75*
G02*
X127006000Y-81500000I-1994000J0D01*
G01*
X127006000Y-81500000D02*
G75*
G02*
X130994000Y-81500000I1994000J0D01*
G01*
X133050000Y-76420000D02*
G75*
G02*
X130050000Y-76420000I-1500000J0D01*
G01*
X130050000Y-76420000D02*
G75*
G02*
X133050000Y-76420000I1500000J0D01*
G01*
X134931000Y-81500000D02*
G75*
G02*
X133229000Y-81500000I-851000J0D01*
G01*
X133229000Y-81500000D02*
G75*
G02*
X134931000Y-81500000I851000J0D01*
G01*
%TO.C,SW92*%
X181771000Y-43500000D02*
G75*
G02*
X180069000Y-43500000I-851000J0D01*
G01*
X180069000Y-43500000D02*
G75*
G02*
X181771000Y-43500000I851000J0D01*
G01*
X183690000Y-40960000D02*
G75*
G02*
X180690000Y-40960000I-1500000J0D01*
G01*
X180690000Y-40960000D02*
G75*
G02*
X183690000Y-40960000I1500000J0D01*
G01*
X187994000Y-43500000D02*
G75*
G02*
X184006000Y-43500000I-1994000J0D01*
G01*
X184006000Y-43500000D02*
G75*
G02*
X187994000Y-43500000I1994000J0D01*
G01*
X190050000Y-38420000D02*
G75*
G02*
X187050000Y-38420000I-1500000J0D01*
G01*
X187050000Y-38420000D02*
G75*
G02*
X190050000Y-38420000I1500000J0D01*
G01*
X191931000Y-43500000D02*
G75*
G02*
X190229000Y-43500000I-851000J0D01*
G01*
X190229000Y-43500000D02*
G75*
G02*
X191931000Y-43500000I851000J0D01*
G01*
%TO.C,SW64*%
X67771000Y-43500000D02*
G75*
G02*
X66069000Y-43500000I-851000J0D01*
G01*
X66069000Y-43500000D02*
G75*
G02*
X67771000Y-43500000I851000J0D01*
G01*
X69690000Y-40960000D02*
G75*
G02*
X66690000Y-40960000I-1500000J0D01*
G01*
X66690000Y-40960000D02*
G75*
G02*
X69690000Y-40960000I1500000J0D01*
G01*
X73994000Y-43500000D02*
G75*
G02*
X70006000Y-43500000I-1994000J0D01*
G01*
X70006000Y-43500000D02*
G75*
G02*
X73994000Y-43500000I1994000J0D01*
G01*
X76050000Y-38420000D02*
G75*
G02*
X73050000Y-38420000I-1500000J0D01*
G01*
X73050000Y-38420000D02*
G75*
G02*
X76050000Y-38420000I1500000J0D01*
G01*
X77931000Y-43500000D02*
G75*
G02*
X76229000Y-43500000I-851000J0D01*
G01*
X76229000Y-43500000D02*
G75*
G02*
X77931000Y-43500000I851000J0D01*
G01*
%TO.C,SW95*%
X181771000Y-100500000D02*
G75*
G02*
X180069000Y-100500000I-851000J0D01*
G01*
X180069000Y-100500000D02*
G75*
G02*
X181771000Y-100500000I851000J0D01*
G01*
X183690000Y-97960000D02*
G75*
G02*
X180690000Y-97960000I-1500000J0D01*
G01*
X180690000Y-97960000D02*
G75*
G02*
X183690000Y-97960000I1500000J0D01*
G01*
X187994000Y-100500000D02*
G75*
G02*
X184006000Y-100500000I-1994000J0D01*
G01*
X184006000Y-100500000D02*
G75*
G02*
X187994000Y-100500000I1994000J0D01*
G01*
X190050000Y-95420000D02*
G75*
G02*
X187050000Y-95420000I-1500000J0D01*
G01*
X187050000Y-95420000D02*
G75*
G02*
X190050000Y-95420000I1500000J0D01*
G01*
X191931000Y-100500000D02*
G75*
G02*
X190229000Y-100500000I-851000J0D01*
G01*
X190229000Y-100500000D02*
G75*
G02*
X191931000Y-100500000I851000J0D01*
G01*
%TO.C,SW94*%
X181771000Y-81500000D02*
G75*
G02*
X180069000Y-81500000I-851000J0D01*
G01*
X180069000Y-81500000D02*
G75*
G02*
X181771000Y-81500000I851000J0D01*
G01*
X183690000Y-78960000D02*
G75*
G02*
X180690000Y-78960000I-1500000J0D01*
G01*
X180690000Y-78960000D02*
G75*
G02*
X183690000Y-78960000I1500000J0D01*
G01*
X187994000Y-81500000D02*
G75*
G02*
X184006000Y-81500000I-1994000J0D01*
G01*
X184006000Y-81500000D02*
G75*
G02*
X187994000Y-81500000I1994000J0D01*
G01*
X190050000Y-76420000D02*
G75*
G02*
X187050000Y-76420000I-1500000J0D01*
G01*
X187050000Y-76420000D02*
G75*
G02*
X190050000Y-76420000I1500000J0D01*
G01*
X191931000Y-81500000D02*
G75*
G02*
X190229000Y-81500000I-851000J0D01*
G01*
X190229000Y-81500000D02*
G75*
G02*
X191931000Y-81500000I851000J0D01*
G01*
%TO.C,SW105*%
X243521000Y-24500000D02*
G75*
G02*
X241819000Y-24500000I-851000J0D01*
G01*
X241819000Y-24500000D02*
G75*
G02*
X243521000Y-24500000I851000J0D01*
G01*
X245440000Y-21960000D02*
G75*
G02*
X242440000Y-21960000I-1500000J0D01*
G01*
X242440000Y-21960000D02*
G75*
G02*
X245440000Y-21960000I1500000J0D01*
G01*
X249744000Y-24500000D02*
G75*
G02*
X245756000Y-24500000I-1994000J0D01*
G01*
X245756000Y-24500000D02*
G75*
G02*
X249744000Y-24500000I1994000J0D01*
G01*
X251800000Y-19420000D02*
G75*
G02*
X248800000Y-19420000I-1500000J0D01*
G01*
X248800000Y-19420000D02*
G75*
G02*
X251800000Y-19420000I1500000J0D01*
G01*
X253681000Y-24500000D02*
G75*
G02*
X251979000Y-24500000I-851000J0D01*
G01*
X251979000Y-24500000D02*
G75*
G02*
X253681000Y-24500000I851000J0D01*
G01*
%TO.C,SW108*%
X243521000Y-81500000D02*
G75*
G02*
X241819000Y-81500000I-851000J0D01*
G01*
X241819000Y-81500000D02*
G75*
G02*
X243521000Y-81500000I851000J0D01*
G01*
X245440000Y-78960000D02*
G75*
G02*
X242440000Y-78960000I-1500000J0D01*
G01*
X242440000Y-78960000D02*
G75*
G02*
X245440000Y-78960000I1500000J0D01*
G01*
X249744000Y-81500000D02*
G75*
G02*
X245756000Y-81500000I-1994000J0D01*
G01*
X245756000Y-81500000D02*
G75*
G02*
X249744000Y-81500000I1994000J0D01*
G01*
X251800000Y-76420000D02*
G75*
G02*
X248800000Y-76420000I-1500000J0D01*
G01*
X248800000Y-76420000D02*
G75*
G02*
X251800000Y-76420000I1500000J0D01*
G01*
X253681000Y-81500000D02*
G75*
G02*
X251979000Y-81500000I-851000J0D01*
G01*
X251979000Y-81500000D02*
G75*
G02*
X253681000Y-81500000I851000J0D01*
G01*
%TO.C,SW60*%
X48771000Y-43500000D02*
G75*
G02*
X47069000Y-43500000I-851000J0D01*
G01*
X47069000Y-43500000D02*
G75*
G02*
X48771000Y-43500000I851000J0D01*
G01*
X50690000Y-40960000D02*
G75*
G02*
X47690000Y-40960000I-1500000J0D01*
G01*
X47690000Y-40960000D02*
G75*
G02*
X50690000Y-40960000I1500000J0D01*
G01*
X54994000Y-43500000D02*
G75*
G02*
X51006000Y-43500000I-1994000J0D01*
G01*
X51006000Y-43500000D02*
G75*
G02*
X54994000Y-43500000I1994000J0D01*
G01*
X57050000Y-38420000D02*
G75*
G02*
X54050000Y-38420000I-1500000J0D01*
G01*
X54050000Y-38420000D02*
G75*
G02*
X57050000Y-38420000I1500000J0D01*
G01*
X58931000Y-43500000D02*
G75*
G02*
X57229000Y-43500000I-851000J0D01*
G01*
X57229000Y-43500000D02*
G75*
G02*
X58931000Y-43500000I851000J0D01*
G01*
%TO.C,SW69*%
X86771000Y-43500000D02*
G75*
G02*
X85069000Y-43500000I-851000J0D01*
G01*
X85069000Y-43500000D02*
G75*
G02*
X86771000Y-43500000I851000J0D01*
G01*
X88690000Y-40960000D02*
G75*
G02*
X85690000Y-40960000I-1500000J0D01*
G01*
X85690000Y-40960000D02*
G75*
G02*
X88690000Y-40960000I1500000J0D01*
G01*
X92994000Y-43500000D02*
G75*
G02*
X89006000Y-43500000I-1994000J0D01*
G01*
X89006000Y-43500000D02*
G75*
G02*
X92994000Y-43500000I1994000J0D01*
G01*
X95050000Y-38420000D02*
G75*
G02*
X92050000Y-38420000I-1500000J0D01*
G01*
X92050000Y-38420000D02*
G75*
G02*
X95050000Y-38420000I1500000J0D01*
G01*
X96931000Y-43500000D02*
G75*
G02*
X95229000Y-43500000I-851000J0D01*
G01*
X95229000Y-43500000D02*
G75*
G02*
X96931000Y-43500000I851000J0D01*
G01*
%TO.C,SW63*%
X67771000Y-24500000D02*
G75*
G02*
X66069000Y-24500000I-851000J0D01*
G01*
X66069000Y-24500000D02*
G75*
G02*
X67771000Y-24500000I851000J0D01*
G01*
X69690000Y-21960000D02*
G75*
G02*
X66690000Y-21960000I-1500000J0D01*
G01*
X66690000Y-21960000D02*
G75*
G02*
X69690000Y-21960000I1500000J0D01*
G01*
X73994000Y-24500000D02*
G75*
G02*
X70006000Y-24500000I-1994000J0D01*
G01*
X70006000Y-24500000D02*
G75*
G02*
X73994000Y-24500000I1994000J0D01*
G01*
X76050000Y-19420000D02*
G75*
G02*
X73050000Y-19420000I-1500000J0D01*
G01*
X73050000Y-19420000D02*
G75*
G02*
X76050000Y-19420000I1500000J0D01*
G01*
X77931000Y-24500000D02*
G75*
G02*
X76229000Y-24500000I-851000J0D01*
G01*
X76229000Y-24500000D02*
G75*
G02*
X77931000Y-24500000I851000J0D01*
G01*
%TO.C,SW78*%
X124771000Y-24500000D02*
G75*
G02*
X123069000Y-24500000I-851000J0D01*
G01*
X123069000Y-24500000D02*
G75*
G02*
X124771000Y-24500000I851000J0D01*
G01*
X126690000Y-21960000D02*
G75*
G02*
X123690000Y-21960000I-1500000J0D01*
G01*
X123690000Y-21960000D02*
G75*
G02*
X126690000Y-21960000I1500000J0D01*
G01*
X130994000Y-24500000D02*
G75*
G02*
X127006000Y-24500000I-1994000J0D01*
G01*
X127006000Y-24500000D02*
G75*
G02*
X130994000Y-24500000I1994000J0D01*
G01*
X133050000Y-19420000D02*
G75*
G02*
X130050000Y-19420000I-1500000J0D01*
G01*
X130050000Y-19420000D02*
G75*
G02*
X133050000Y-19420000I1500000J0D01*
G01*
X134931000Y-24500000D02*
G75*
G02*
X133229000Y-24500000I-851000J0D01*
G01*
X133229000Y-24500000D02*
G75*
G02*
X134931000Y-24500000I851000J0D01*
G01*
%TO.C,SW80*%
X124771000Y-62500000D02*
G75*
G02*
X123069000Y-62500000I-851000J0D01*
G01*
X123069000Y-62500000D02*
G75*
G02*
X124771000Y-62500000I851000J0D01*
G01*
X126690000Y-59960000D02*
G75*
G02*
X123690000Y-59960000I-1500000J0D01*
G01*
X123690000Y-59960000D02*
G75*
G02*
X126690000Y-59960000I1500000J0D01*
G01*
X130994000Y-62500000D02*
G75*
G02*
X127006000Y-62500000I-1994000J0D01*
G01*
X127006000Y-62500000D02*
G75*
G02*
X130994000Y-62500000I1994000J0D01*
G01*
X133050000Y-57420000D02*
G75*
G02*
X130050000Y-57420000I-1500000J0D01*
G01*
X130050000Y-57420000D02*
G75*
G02*
X133050000Y-57420000I1500000J0D01*
G01*
X134931000Y-62500000D02*
G75*
G02*
X133229000Y-62500000I-851000J0D01*
G01*
X133229000Y-62500000D02*
G75*
G02*
X134931000Y-62500000I851000J0D01*
G01*
%TO.C,SW96*%
X200771000Y-24500000D02*
G75*
G02*
X199069000Y-24500000I-851000J0D01*
G01*
X199069000Y-24500000D02*
G75*
G02*
X200771000Y-24500000I851000J0D01*
G01*
X202690000Y-21960000D02*
G75*
G02*
X199690000Y-21960000I-1500000J0D01*
G01*
X199690000Y-21960000D02*
G75*
G02*
X202690000Y-21960000I1500000J0D01*
G01*
X206994000Y-24500000D02*
G75*
G02*
X203006000Y-24500000I-1994000J0D01*
G01*
X203006000Y-24500000D02*
G75*
G02*
X206994000Y-24500000I1994000J0D01*
G01*
X209050000Y-19420000D02*
G75*
G02*
X206050000Y-19420000I-1500000J0D01*
G01*
X206050000Y-19420000D02*
G75*
G02*
X209050000Y-19420000I1500000J0D01*
G01*
X210931000Y-24500000D02*
G75*
G02*
X209229000Y-24500000I-851000J0D01*
G01*
X209229000Y-24500000D02*
G75*
G02*
X210931000Y-24500000I851000J0D01*
G01*
%TO.C,SW101*%
X219771000Y-24500000D02*
G75*
G02*
X218069000Y-24500000I-851000J0D01*
G01*
X218069000Y-24500000D02*
G75*
G02*
X219771000Y-24500000I851000J0D01*
G01*
X221690000Y-21960000D02*
G75*
G02*
X218690000Y-21960000I-1500000J0D01*
G01*
X218690000Y-21960000D02*
G75*
G02*
X221690000Y-21960000I1500000J0D01*
G01*
X225994000Y-24500000D02*
G75*
G02*
X222006000Y-24500000I-1994000J0D01*
G01*
X222006000Y-24500000D02*
G75*
G02*
X225994000Y-24500000I1994000J0D01*
G01*
X228050000Y-19420000D02*
G75*
G02*
X225050000Y-19420000I-1500000J0D01*
G01*
X225050000Y-19420000D02*
G75*
G02*
X228050000Y-19420000I1500000J0D01*
G01*
X229931000Y-24500000D02*
G75*
G02*
X228229000Y-24500000I-851000J0D01*
G01*
X228229000Y-24500000D02*
G75*
G02*
X229931000Y-24500000I851000J0D01*
G01*
%TO.C,SW67*%
X67771000Y-100500000D02*
G75*
G02*
X66069000Y-100500000I-851000J0D01*
G01*
X66069000Y-100500000D02*
G75*
G02*
X67771000Y-100500000I851000J0D01*
G01*
X69690000Y-97960000D02*
G75*
G02*
X66690000Y-97960000I-1500000J0D01*
G01*
X66690000Y-97960000D02*
G75*
G02*
X69690000Y-97960000I1500000J0D01*
G01*
X73994000Y-100500000D02*
G75*
G02*
X70006000Y-100500000I-1994000J0D01*
G01*
X70006000Y-100500000D02*
G75*
G02*
X73994000Y-100500000I1994000J0D01*
G01*
X76050000Y-95420000D02*
G75*
G02*
X73050000Y-95420000I-1500000J0D01*
G01*
X73050000Y-95420000D02*
G75*
G02*
X76050000Y-95420000I1500000J0D01*
G01*
X77931000Y-100500000D02*
G75*
G02*
X76229000Y-100500000I-851000J0D01*
G01*
X76229000Y-100500000D02*
G75*
G02*
X77931000Y-100500000I851000J0D01*
G01*
%TO.C,SW90*%
X162771000Y-81500000D02*
G75*
G02*
X161069000Y-81500000I-851000J0D01*
G01*
X161069000Y-81500000D02*
G75*
G02*
X162771000Y-81500000I851000J0D01*
G01*
X164690000Y-78960000D02*
G75*
G02*
X161690000Y-78960000I-1500000J0D01*
G01*
X161690000Y-78960000D02*
G75*
G02*
X164690000Y-78960000I1500000J0D01*
G01*
X168994000Y-81500000D02*
G75*
G02*
X165006000Y-81500000I-1994000J0D01*
G01*
X165006000Y-81500000D02*
G75*
G02*
X168994000Y-81500000I1994000J0D01*
G01*
X171050000Y-76420000D02*
G75*
G02*
X168050000Y-76420000I-1500000J0D01*
G01*
X168050000Y-76420000D02*
G75*
G02*
X171050000Y-76420000I1500000J0D01*
G01*
X172931000Y-81500000D02*
G75*
G02*
X171229000Y-81500000I-851000J0D01*
G01*
X171229000Y-81500000D02*
G75*
G02*
X172931000Y-81500000I851000J0D01*
G01*
%TO.C,SW102*%
X219771000Y-43500000D02*
G75*
G02*
X218069000Y-43500000I-851000J0D01*
G01*
X218069000Y-43500000D02*
G75*
G02*
X219771000Y-43500000I851000J0D01*
G01*
X221690000Y-40960000D02*
G75*
G02*
X218690000Y-40960000I-1500000J0D01*
G01*
X218690000Y-40960000D02*
G75*
G02*
X221690000Y-40960000I1500000J0D01*
G01*
X225994000Y-43500000D02*
G75*
G02*
X222006000Y-43500000I-1994000J0D01*
G01*
X222006000Y-43500000D02*
G75*
G02*
X225994000Y-43500000I1994000J0D01*
G01*
X228050000Y-38420000D02*
G75*
G02*
X225050000Y-38420000I-1500000J0D01*
G01*
X225050000Y-38420000D02*
G75*
G02*
X228050000Y-38420000I1500000J0D01*
G01*
X229931000Y-43500000D02*
G75*
G02*
X228229000Y-43500000I-851000J0D01*
G01*
X228229000Y-43500000D02*
G75*
G02*
X229931000Y-43500000I851000J0D01*
G01*
%TO.C,SW70*%
X86771000Y-62500000D02*
G75*
G02*
X85069000Y-62500000I-851000J0D01*
G01*
X85069000Y-62500000D02*
G75*
G02*
X86771000Y-62500000I851000J0D01*
G01*
X88690000Y-59960000D02*
G75*
G02*
X85690000Y-59960000I-1500000J0D01*
G01*
X85690000Y-59960000D02*
G75*
G02*
X88690000Y-59960000I1500000J0D01*
G01*
X92994000Y-62500000D02*
G75*
G02*
X89006000Y-62500000I-1994000J0D01*
G01*
X89006000Y-62500000D02*
G75*
G02*
X92994000Y-62500000I1994000J0D01*
G01*
X95050000Y-57420000D02*
G75*
G02*
X92050000Y-57420000I-1500000J0D01*
G01*
X92050000Y-57420000D02*
G75*
G02*
X95050000Y-57420000I1500000J0D01*
G01*
X96931000Y-62500000D02*
G75*
G02*
X95229000Y-62500000I-851000J0D01*
G01*
X95229000Y-62500000D02*
G75*
G02*
X96931000Y-62500000I851000J0D01*
G01*
%TO.C,SW65*%
X67771000Y-62500000D02*
G75*
G02*
X66069000Y-62500000I-851000J0D01*
G01*
X66069000Y-62500000D02*
G75*
G02*
X67771000Y-62500000I851000J0D01*
G01*
X69690000Y-59960000D02*
G75*
G02*
X66690000Y-59960000I-1500000J0D01*
G01*
X66690000Y-59960000D02*
G75*
G02*
X69690000Y-59960000I1500000J0D01*
G01*
X73994000Y-62500000D02*
G75*
G02*
X70006000Y-62500000I-1994000J0D01*
G01*
X70006000Y-62500000D02*
G75*
G02*
X73994000Y-62500000I1994000J0D01*
G01*
X76050000Y-57420000D02*
G75*
G02*
X73050000Y-57420000I-1500000J0D01*
G01*
X73050000Y-57420000D02*
G75*
G02*
X76050000Y-57420000I1500000J0D01*
G01*
X77931000Y-62500000D02*
G75*
G02*
X76229000Y-62500000I-851000J0D01*
G01*
X76229000Y-62500000D02*
G75*
G02*
X77931000Y-62500000I851000J0D01*
G01*
%TO.C,SW77*%
X105771000Y-100500000D02*
G75*
G02*
X104069000Y-100500000I-851000J0D01*
G01*
X104069000Y-100500000D02*
G75*
G02*
X105771000Y-100500000I851000J0D01*
G01*
X107690000Y-97960000D02*
G75*
G02*
X104690000Y-97960000I-1500000J0D01*
G01*
X104690000Y-97960000D02*
G75*
G02*
X107690000Y-97960000I1500000J0D01*
G01*
X111994000Y-100500000D02*
G75*
G02*
X108006000Y-100500000I-1994000J0D01*
G01*
X108006000Y-100500000D02*
G75*
G02*
X111994000Y-100500000I1994000J0D01*
G01*
X114050000Y-95420000D02*
G75*
G02*
X111050000Y-95420000I-1500000J0D01*
G01*
X111050000Y-95420000D02*
G75*
G02*
X114050000Y-95420000I1500000J0D01*
G01*
X115931000Y-100500000D02*
G75*
G02*
X114229000Y-100500000I-851000J0D01*
G01*
X114229000Y-100500000D02*
G75*
G02*
X115931000Y-100500000I851000J0D01*
G01*
%TO.C,SW98*%
X200771000Y-62500000D02*
G75*
G02*
X199069000Y-62500000I-851000J0D01*
G01*
X199069000Y-62500000D02*
G75*
G02*
X200771000Y-62500000I851000J0D01*
G01*
X202690000Y-59960000D02*
G75*
G02*
X199690000Y-59960000I-1500000J0D01*
G01*
X199690000Y-59960000D02*
G75*
G02*
X202690000Y-59960000I1500000J0D01*
G01*
X206994000Y-62500000D02*
G75*
G02*
X203006000Y-62500000I-1994000J0D01*
G01*
X203006000Y-62500000D02*
G75*
G02*
X206994000Y-62500000I1994000J0D01*
G01*
X209050000Y-57420000D02*
G75*
G02*
X206050000Y-57420000I-1500000J0D01*
G01*
X206050000Y-57420000D02*
G75*
G02*
X209050000Y-57420000I1500000J0D01*
G01*
X210931000Y-62500000D02*
G75*
G02*
X209229000Y-62500000I-851000J0D01*
G01*
X209229000Y-62500000D02*
G75*
G02*
X210931000Y-62500000I851000J0D01*
G01*
%TO.C,SW89*%
X162771000Y-62500000D02*
G75*
G02*
X161069000Y-62500000I-851000J0D01*
G01*
X161069000Y-62500000D02*
G75*
G02*
X162771000Y-62500000I851000J0D01*
G01*
X164690000Y-59960000D02*
G75*
G02*
X161690000Y-59960000I-1500000J0D01*
G01*
X161690000Y-59960000D02*
G75*
G02*
X164690000Y-59960000I1500000J0D01*
G01*
X168994000Y-62500000D02*
G75*
G02*
X165006000Y-62500000I-1994000J0D01*
G01*
X165006000Y-62500000D02*
G75*
G02*
X168994000Y-62500000I1994000J0D01*
G01*
X171050000Y-57420000D02*
G75*
G02*
X168050000Y-57420000I-1500000J0D01*
G01*
X168050000Y-57420000D02*
G75*
G02*
X171050000Y-57420000I1500000J0D01*
G01*
X172931000Y-62500000D02*
G75*
G02*
X171229000Y-62500000I-851000J0D01*
G01*
X171229000Y-62500000D02*
G75*
G02*
X172931000Y-62500000I851000J0D01*
G01*
%TO.C,SW61*%
X48771000Y-62500000D02*
G75*
G02*
X47069000Y-62500000I-851000J0D01*
G01*
X47069000Y-62500000D02*
G75*
G02*
X48771000Y-62500000I851000J0D01*
G01*
X50690000Y-59960000D02*
G75*
G02*
X47690000Y-59960000I-1500000J0D01*
G01*
X47690000Y-59960000D02*
G75*
G02*
X50690000Y-59960000I1500000J0D01*
G01*
X54994000Y-62500000D02*
G75*
G02*
X51006000Y-62500000I-1994000J0D01*
G01*
X51006000Y-62500000D02*
G75*
G02*
X54994000Y-62500000I1994000J0D01*
G01*
X57050000Y-57420000D02*
G75*
G02*
X54050000Y-57420000I-1500000J0D01*
G01*
X54050000Y-57420000D02*
G75*
G02*
X57050000Y-57420000I1500000J0D01*
G01*
X58931000Y-62500000D02*
G75*
G02*
X57229000Y-62500000I-851000J0D01*
G01*
X57229000Y-62500000D02*
G75*
G02*
X58931000Y-62500000I851000J0D01*
G01*
%TO.C,SW74*%
X105771000Y-43500000D02*
G75*
G02*
X104069000Y-43500000I-851000J0D01*
G01*
X104069000Y-43500000D02*
G75*
G02*
X105771000Y-43500000I851000J0D01*
G01*
X107690000Y-40960000D02*
G75*
G02*
X104690000Y-40960000I-1500000J0D01*
G01*
X104690000Y-40960000D02*
G75*
G02*
X107690000Y-40960000I1500000J0D01*
G01*
X111994000Y-43500000D02*
G75*
G02*
X108006000Y-43500000I-1994000J0D01*
G01*
X108006000Y-43500000D02*
G75*
G02*
X111994000Y-43500000I1994000J0D01*
G01*
X114050000Y-38420000D02*
G75*
G02*
X111050000Y-38420000I-1500000J0D01*
G01*
X111050000Y-38420000D02*
G75*
G02*
X114050000Y-38420000I1500000J0D01*
G01*
X115931000Y-43500000D02*
G75*
G02*
X114229000Y-43500000I-851000J0D01*
G01*
X114229000Y-43500000D02*
G75*
G02*
X115931000Y-43500000I851000J0D01*
G01*
%TO.C,SW57*%
X25021000Y-62500000D02*
G75*
G02*
X23319000Y-62500000I-851000J0D01*
G01*
X23319000Y-62500000D02*
G75*
G02*
X25021000Y-62500000I851000J0D01*
G01*
X26940000Y-59960000D02*
G75*
G02*
X23940000Y-59960000I-1500000J0D01*
G01*
X23940000Y-59960000D02*
G75*
G02*
X26940000Y-59960000I1500000J0D01*
G01*
X31244000Y-62500000D02*
G75*
G02*
X27256000Y-62500000I-1994000J0D01*
G01*
X27256000Y-62500000D02*
G75*
G02*
X31244000Y-62500000I1994000J0D01*
G01*
X33300000Y-57420000D02*
G75*
G02*
X30300000Y-57420000I-1500000J0D01*
G01*
X30300000Y-57420000D02*
G75*
G02*
X33300000Y-57420000I1500000J0D01*
G01*
X35181000Y-62500000D02*
G75*
G02*
X33479000Y-62500000I-851000J0D01*
G01*
X33479000Y-62500000D02*
G75*
G02*
X35181000Y-62500000I851000J0D01*
G01*
%TO.C,SW84*%
X143771000Y-62500000D02*
G75*
G02*
X142069000Y-62500000I-851000J0D01*
G01*
X142069000Y-62500000D02*
G75*
G02*
X143771000Y-62500000I851000J0D01*
G01*
X145690000Y-59960000D02*
G75*
G02*
X142690000Y-59960000I-1500000J0D01*
G01*
X142690000Y-59960000D02*
G75*
G02*
X145690000Y-59960000I1500000J0D01*
G01*
X149994000Y-62500000D02*
G75*
G02*
X146006000Y-62500000I-1994000J0D01*
G01*
X146006000Y-62500000D02*
G75*
G02*
X149994000Y-62500000I1994000J0D01*
G01*
X152050000Y-57420000D02*
G75*
G02*
X149050000Y-57420000I-1500000J0D01*
G01*
X149050000Y-57420000D02*
G75*
G02*
X152050000Y-57420000I1500000J0D01*
G01*
X153931000Y-62500000D02*
G75*
G02*
X152229000Y-62500000I-851000J0D01*
G01*
X152229000Y-62500000D02*
G75*
G02*
X153931000Y-62500000I851000J0D01*
G01*
%TO.C,SW73*%
X105771000Y-24500000D02*
G75*
G02*
X104069000Y-24500000I-851000J0D01*
G01*
X104069000Y-24500000D02*
G75*
G02*
X105771000Y-24500000I851000J0D01*
G01*
X107690000Y-21960000D02*
G75*
G02*
X104690000Y-21960000I-1500000J0D01*
G01*
X104690000Y-21960000D02*
G75*
G02*
X107690000Y-21960000I1500000J0D01*
G01*
X111994000Y-24500000D02*
G75*
G02*
X108006000Y-24500000I-1994000J0D01*
G01*
X108006000Y-24500000D02*
G75*
G02*
X111994000Y-24500000I1994000J0D01*
G01*
X114050000Y-19420000D02*
G75*
G02*
X111050000Y-19420000I-1500000J0D01*
G01*
X111050000Y-19420000D02*
G75*
G02*
X114050000Y-19420000I1500000J0D01*
G01*
X115931000Y-24500000D02*
G75*
G02*
X114229000Y-24500000I-851000J0D01*
G01*
X114229000Y-24500000D02*
G75*
G02*
X115931000Y-24500000I851000J0D01*
G01*
%TO.C,SW104*%
X219771000Y-81500000D02*
G75*
G02*
X218069000Y-81500000I-851000J0D01*
G01*
X218069000Y-81500000D02*
G75*
G02*
X219771000Y-81500000I851000J0D01*
G01*
X221690000Y-78960000D02*
G75*
G02*
X218690000Y-78960000I-1500000J0D01*
G01*
X218690000Y-78960000D02*
G75*
G02*
X221690000Y-78960000I1500000J0D01*
G01*
X225994000Y-81500000D02*
G75*
G02*
X222006000Y-81500000I-1994000J0D01*
G01*
X222006000Y-81500000D02*
G75*
G02*
X225994000Y-81500000I1994000J0D01*
G01*
X228050000Y-76420000D02*
G75*
G02*
X225050000Y-76420000I-1500000J0D01*
G01*
X225050000Y-76420000D02*
G75*
G02*
X228050000Y-76420000I1500000J0D01*
G01*
X229931000Y-81500000D02*
G75*
G02*
X228229000Y-81500000I-851000J0D01*
G01*
X228229000Y-81500000D02*
G75*
G02*
X229931000Y-81500000I851000J0D01*
G01*
%TO.C,SW87*%
X162771000Y-24500000D02*
G75*
G02*
X161069000Y-24500000I-851000J0D01*
G01*
X161069000Y-24500000D02*
G75*
G02*
X162771000Y-24500000I851000J0D01*
G01*
X164690000Y-21960000D02*
G75*
G02*
X161690000Y-21960000I-1500000J0D01*
G01*
X161690000Y-21960000D02*
G75*
G02*
X164690000Y-21960000I1500000J0D01*
G01*
X168994000Y-24500000D02*
G75*
G02*
X165006000Y-24500000I-1994000J0D01*
G01*
X165006000Y-24500000D02*
G75*
G02*
X168994000Y-24500000I1994000J0D01*
G01*
X171050000Y-19420000D02*
G75*
G02*
X168050000Y-19420000I-1500000J0D01*
G01*
X168050000Y-19420000D02*
G75*
G02*
X171050000Y-19420000I1500000J0D01*
G01*
X172931000Y-24500000D02*
G75*
G02*
X171229000Y-24500000I-851000J0D01*
G01*
X171229000Y-24500000D02*
G75*
G02*
X172931000Y-24500000I851000J0D01*
G01*
%TO.C,SW62*%
X48771000Y-81500000D02*
G75*
G02*
X47069000Y-81500000I-851000J0D01*
G01*
X47069000Y-81500000D02*
G75*
G02*
X48771000Y-81500000I851000J0D01*
G01*
X50690000Y-78960000D02*
G75*
G02*
X47690000Y-78960000I-1500000J0D01*
G01*
X47690000Y-78960000D02*
G75*
G02*
X50690000Y-78960000I1500000J0D01*
G01*
X54994000Y-81500000D02*
G75*
G02*
X51006000Y-81500000I-1994000J0D01*
G01*
X51006000Y-81500000D02*
G75*
G02*
X54994000Y-81500000I1994000J0D01*
G01*
X57050000Y-76420000D02*
G75*
G02*
X54050000Y-76420000I-1500000J0D01*
G01*
X54050000Y-76420000D02*
G75*
G02*
X57050000Y-76420000I1500000J0D01*
G01*
X58931000Y-81500000D02*
G75*
G02*
X57229000Y-81500000I-851000J0D01*
G01*
X57229000Y-81500000D02*
G75*
G02*
X58931000Y-81500000I851000J0D01*
G01*
%TO.C,SW88*%
X162771000Y-43500000D02*
G75*
G02*
X161069000Y-43500000I-851000J0D01*
G01*
X161069000Y-43500000D02*
G75*
G02*
X162771000Y-43500000I851000J0D01*
G01*
X164690000Y-40960000D02*
G75*
G02*
X161690000Y-40960000I-1500000J0D01*
G01*
X161690000Y-40960000D02*
G75*
G02*
X164690000Y-40960000I1500000J0D01*
G01*
X168994000Y-43500000D02*
G75*
G02*
X165006000Y-43500000I-1994000J0D01*
G01*
X165006000Y-43500000D02*
G75*
G02*
X168994000Y-43500000I1994000J0D01*
G01*
X171050000Y-38420000D02*
G75*
G02*
X168050000Y-38420000I-1500000J0D01*
G01*
X168050000Y-38420000D02*
G75*
G02*
X171050000Y-38420000I1500000J0D01*
G01*
X172931000Y-43500000D02*
G75*
G02*
X171229000Y-43500000I-851000J0D01*
G01*
X171229000Y-43500000D02*
G75*
G02*
X172931000Y-43500000I851000J0D01*
G01*
%TO.C,SW75*%
X105771000Y-62500000D02*
G75*
G02*
X104069000Y-62500000I-851000J0D01*
G01*
X104069000Y-62500000D02*
G75*
G02*
X105771000Y-62500000I851000J0D01*
G01*
X107690000Y-59960000D02*
G75*
G02*
X104690000Y-59960000I-1500000J0D01*
G01*
X104690000Y-59960000D02*
G75*
G02*
X107690000Y-59960000I1500000J0D01*
G01*
X111994000Y-62500000D02*
G75*
G02*
X108006000Y-62500000I-1994000J0D01*
G01*
X108006000Y-62500000D02*
G75*
G02*
X111994000Y-62500000I1994000J0D01*
G01*
X114050000Y-57420000D02*
G75*
G02*
X111050000Y-57420000I-1500000J0D01*
G01*
X111050000Y-57420000D02*
G75*
G02*
X114050000Y-57420000I1500000J0D01*
G01*
X115931000Y-62500000D02*
G75*
G02*
X114229000Y-62500000I-851000J0D01*
G01*
X114229000Y-62500000D02*
G75*
G02*
X115931000Y-62500000I851000J0D01*
G01*
%TO.C,SW71*%
X86771000Y-81500000D02*
G75*
G02*
X85069000Y-81500000I-851000J0D01*
G01*
X85069000Y-81500000D02*
G75*
G02*
X86771000Y-81500000I851000J0D01*
G01*
X88690000Y-78960000D02*
G75*
G02*
X85690000Y-78960000I-1500000J0D01*
G01*
X85690000Y-78960000D02*
G75*
G02*
X88690000Y-78960000I1500000J0D01*
G01*
X92994000Y-81500000D02*
G75*
G02*
X89006000Y-81500000I-1994000J0D01*
G01*
X89006000Y-81500000D02*
G75*
G02*
X92994000Y-81500000I1994000J0D01*
G01*
X95050000Y-76420000D02*
G75*
G02*
X92050000Y-76420000I-1500000J0D01*
G01*
X92050000Y-76420000D02*
G75*
G02*
X95050000Y-76420000I1500000J0D01*
G01*
X96931000Y-81500000D02*
G75*
G02*
X95229000Y-81500000I-851000J0D01*
G01*
X95229000Y-81500000D02*
G75*
G02*
X96931000Y-81500000I851000J0D01*
G01*
%TD*%
M02*
