%TF.GenerationSoftware,KiCad,Pcbnew,9.0.6*%
%TF.CreationDate,2026-01-15T12:54:40-05:00*%
%TF.ProjectId,60_keyboard,36305f6b-6579-4626-9f61-72642e6b6963,rev?*%
%TF.SameCoordinates,Original*%
%TF.FileFunction,Legend,Bot*%
%TF.FilePolarity,Positive*%
%FSLAX46Y46*%
G04 Gerber Fmt 4.6, Leading zero omitted, Abs format (unit mm)*
G04 Created by KiCad (PCBNEW 9.0.6) date 2026-01-15 12:54:40*
%MOMM*%
%LPD*%
G01*
G04 APERTURE LIST*
%ADD10C,0.120000*%
%ADD11C,0.127000*%
%ADD12C,0.200000*%
G04 APERTURE END LIST*
D10*
%TO.C,C6*%
X238534165Y-29445000D02*
X238765835Y-29445000D01*
X238534165Y-30165000D02*
X238765835Y-30165000D01*
%TO.C,D85*%
X150110000Y-85500000D02*
X146100000Y-85500000D01*
X150110000Y-85500000D02*
X150110000Y-87500000D01*
X150110000Y-87500000D02*
X146100000Y-87500000D01*
%TO.C,D83*%
X150360000Y-47750000D02*
X146350000Y-47750000D01*
X150360000Y-47750000D02*
X150360000Y-49750000D01*
X150360000Y-49750000D02*
X146350000Y-49750000D01*
%TO.C,D61*%
X55360000Y-66500000D02*
X51350000Y-66500000D01*
X55360000Y-66500000D02*
X55360000Y-68500000D01*
X55360000Y-68500000D02*
X51350000Y-68500000D01*
%TO.C,D71*%
X93460000Y-85500000D02*
X89450000Y-85500000D01*
X93460000Y-85500000D02*
X93460000Y-87500000D01*
X93460000Y-87500000D02*
X89450000Y-87500000D01*
%TO.C,D95*%
X188360000Y-104500000D02*
X184350000Y-104500000D01*
X188360000Y-104500000D02*
X188360000Y-106500000D01*
X188360000Y-106500000D02*
X184350000Y-106500000D01*
%TO.C,D72*%
X93210000Y-104500000D02*
X89200000Y-104500000D01*
X93210000Y-104500000D02*
X93210000Y-106500000D01*
X93210000Y-106500000D02*
X89200000Y-106500000D01*
%TO.C,D55*%
X31710000Y-28500000D02*
X27700000Y-28500000D01*
X31710000Y-28500000D02*
X31710000Y-30500000D01*
X31710000Y-30500000D02*
X27700000Y-30500000D01*
%TO.C,C9*%
X229390000Y-34134165D02*
X229390000Y-34365835D01*
X230110000Y-34134165D02*
X230110000Y-34365835D01*
%TO.C,D87*%
X169360000Y-28500000D02*
X165350000Y-28500000D01*
X169360000Y-28500000D02*
X169360000Y-30500000D01*
X169360000Y-30500000D02*
X165350000Y-30500000D01*
%TO.C,D67*%
X74360000Y-104750000D02*
X70350000Y-104750000D01*
X74360000Y-104750000D02*
X74360000Y-106750000D01*
X74360000Y-106750000D02*
X70350000Y-106750000D01*
%TO.C,D80*%
X131360000Y-66750000D02*
X127350000Y-66750000D01*
X131360000Y-66750000D02*
X131360000Y-68750000D01*
X131360000Y-68750000D02*
X127350000Y-68750000D01*
%TO.C,C12*%
X227115835Y-32390000D02*
X226884165Y-32390000D01*
X227115835Y-33110000D02*
X226884165Y-33110000D01*
%TO.C,R6*%
X229370000Y-15167621D02*
X229370000Y-14832379D01*
X230130000Y-15167621D02*
X230130000Y-14832379D01*
%TO.C,D70*%
X93210000Y-66500000D02*
X89200000Y-66500000D01*
X93210000Y-66500000D02*
X93210000Y-68500000D01*
X93210000Y-68500000D02*
X89200000Y-68500000D01*
%TO.C,C15*%
X237390000Y-38365835D02*
X237390000Y-38134165D01*
X238110000Y-38365835D02*
X238110000Y-38134165D01*
%TO.C,D73*%
X112360000Y-28500000D02*
X108350000Y-28500000D01*
X112360000Y-28500000D02*
X112360000Y-30500000D01*
X112360000Y-30500000D02*
X108350000Y-30500000D01*
%TO.C,D77*%
X112360000Y-104500000D02*
X108350000Y-104500000D01*
X112360000Y-104500000D02*
X112360000Y-106500000D01*
X112360000Y-106500000D02*
X108350000Y-106500000D01*
%TO.C,D102*%
X226360000Y-47500000D02*
X222350000Y-47500000D01*
X226360000Y-47500000D02*
X226360000Y-49500000D01*
X226360000Y-49500000D02*
X222350000Y-49500000D01*
%TO.C,D104*%
X226110000Y-85500000D02*
X222100000Y-85500000D01*
X226110000Y-85500000D02*
X226110000Y-87500000D01*
X226110000Y-87500000D02*
X222100000Y-87500000D01*
%TO.C,J1*%
X231300000Y-8600000D02*
X240700000Y-8600000D01*
X231300000Y-10500000D02*
X231300000Y-8600000D01*
X231300000Y-14400000D02*
X231300000Y-12400000D01*
X240700000Y-10500000D02*
X240700000Y-8600000D01*
X240700000Y-14400000D02*
X240700000Y-12400000D01*
%TO.C,R7*%
X234370000Y-24082379D02*
X234370000Y-24417621D01*
X235130000Y-24082379D02*
X235130000Y-24417621D01*
%TO.C,C10*%
X227115835Y-34390000D02*
X226884165Y-34390000D01*
X227115835Y-35110000D02*
X226884165Y-35110000D01*
%TO.C,C4*%
X237890000Y-33634165D02*
X237890000Y-33865835D01*
X238610000Y-33634165D02*
X238610000Y-33865835D01*
%TO.C,D1*%
X241650000Y-17010000D02*
X241650000Y-13750000D01*
X243350000Y-17010000D02*
X241650000Y-17010000D01*
X243350000Y-17010000D02*
X243350000Y-13750000D01*
%TO.C,D76*%
X112360000Y-85500000D02*
X108350000Y-85500000D01*
X112360000Y-85500000D02*
X112360000Y-87500000D01*
X112360000Y-87500000D02*
X108350000Y-87500000D01*
%TO.C,D78*%
X131360000Y-28500000D02*
X127350000Y-28500000D01*
X131360000Y-28500000D02*
X131360000Y-30500000D01*
X131360000Y-30500000D02*
X127350000Y-30500000D01*
%TO.C,C14*%
X231890000Y-37884165D02*
X231890000Y-38115835D01*
X232610000Y-37884165D02*
X232610000Y-38115835D01*
%TO.C,D101*%
X226210000Y-28500000D02*
X222200000Y-28500000D01*
X226210000Y-28500000D02*
X226210000Y-30500000D01*
X226210000Y-30500000D02*
X222200000Y-30500000D01*
%TO.C,D56*%
X31610000Y-47500000D02*
X27600000Y-47500000D01*
X31610000Y-47500000D02*
X31610000Y-49500000D01*
X31610000Y-49500000D02*
X27600000Y-49500000D01*
%TO.C,C3*%
X229390000Y-31615835D02*
X229390000Y-31384165D01*
X230110000Y-31615835D02*
X230110000Y-31384165D01*
%TO.C,D92*%
X188360000Y-47500000D02*
X184350000Y-47500000D01*
X188360000Y-47500000D02*
X188360000Y-49500000D01*
X188360000Y-49500000D02*
X184350000Y-49500000D01*
%TO.C,D89*%
X169360000Y-66500000D02*
X165350000Y-66500000D01*
X169360000Y-66500000D02*
X169360000Y-68500000D01*
X169360000Y-68500000D02*
X165350000Y-68500000D01*
%TO.C,D68*%
X93210000Y-28750000D02*
X89200000Y-28750000D01*
X93210000Y-28750000D02*
X93210000Y-30750000D01*
X93210000Y-30750000D02*
X89200000Y-30750000D01*
%TO.C,C1*%
X238884165Y-19140000D02*
X239115835Y-19140000D01*
X238884165Y-19860000D02*
X239115835Y-19860000D01*
%TO.C,D79*%
X131360000Y-47500000D02*
X127350000Y-47500000D01*
X131360000Y-47500000D02*
X131360000Y-49500000D01*
X131360000Y-49500000D02*
X127350000Y-49500000D01*
%TO.C,D4*%
X235760000Y-17900000D02*
X232500000Y-17900000D01*
X235760000Y-17900000D02*
X235760000Y-19600000D01*
X235760000Y-19600000D02*
X232500000Y-19600000D01*
%TO.C,SW1*%
X221190000Y-12750000D02*
X221190000Y-15450000D01*
X221190000Y-15460000D02*
X221450000Y-15460000D01*
X223200000Y-12740000D02*
X221190000Y-12740000D01*
X224980000Y-15460000D02*
X223020000Y-15460000D01*
X226550000Y-15460000D02*
X226550000Y-16000000D01*
X226550000Y-15460000D02*
X226800000Y-15460000D01*
X226810000Y-12740000D02*
X224800000Y-12740000D01*
X226810000Y-15460000D02*
X226810000Y-12740000D01*
D11*
%TO.C,Y1*%
X234920000Y-37350000D02*
X235080000Y-37350000D01*
X234920000Y-39850000D02*
X235080000Y-39850000D01*
D12*
X234000000Y-36400000D02*
G75*
G02*
X233800000Y-36400000I-100000J0D01*
G01*
X233800000Y-36400000D02*
G75*
G02*
X234000000Y-36400000I100000J0D01*
G01*
D10*
%TO.C,R8*%
X235370000Y-24417621D02*
X235370000Y-24082379D01*
X236130000Y-24417621D02*
X236130000Y-24082379D01*
%TO.C,D64*%
X74360000Y-47500000D02*
X70350000Y-47500000D01*
X74360000Y-47500000D02*
X74360000Y-49500000D01*
X74360000Y-49500000D02*
X70350000Y-49500000D01*
D11*
%TO.C,U3*%
X240035000Y-29165000D02*
X240035000Y-34445000D01*
X245265000Y-29165000D02*
X245265000Y-34445000D01*
D12*
X240235000Y-26590000D02*
G75*
G02*
X240035000Y-26590000I-100000J0D01*
G01*
X240035000Y-26590000D02*
G75*
G02*
X240235000Y-26590000I100000J0D01*
G01*
D10*
%TO.C,D63*%
X74360000Y-28500000D02*
X70350000Y-28500000D01*
X74360000Y-28500000D02*
X74360000Y-30500000D01*
X74360000Y-30500000D02*
X70350000Y-30500000D01*
%TO.C,D90*%
X169360000Y-85500000D02*
X165350000Y-85500000D01*
X169360000Y-85500000D02*
X169360000Y-87500000D01*
X169360000Y-87500000D02*
X165350000Y-87500000D01*
%TO.C,D84*%
X150360000Y-66500000D02*
X146350000Y-66500000D01*
X150360000Y-66500000D02*
X150360000Y-68500000D01*
X150360000Y-68500000D02*
X146350000Y-68500000D01*
%TO.C,D60*%
X55110000Y-47750000D02*
X51100000Y-47750000D01*
X55110000Y-47750000D02*
X55110000Y-49750000D01*
X55110000Y-49750000D02*
X51100000Y-49750000D01*
%TO.C,D103*%
X226210000Y-66500000D02*
X222200000Y-66500000D01*
X226210000Y-66500000D02*
X226210000Y-68500000D01*
X226210000Y-68500000D02*
X222200000Y-68500000D01*
%TO.C,D74*%
X112360000Y-47500000D02*
X108350000Y-47500000D01*
X112360000Y-47500000D02*
X112360000Y-49500000D01*
X112360000Y-49500000D02*
X108350000Y-49500000D01*
%TO.C,D58*%
X31610000Y-85750000D02*
X27600000Y-85750000D01*
X31610000Y-85750000D02*
X31610000Y-87750000D01*
X31610000Y-87750000D02*
X27600000Y-87750000D01*
%TO.C,D105*%
X249140000Y-28750000D02*
X253150000Y-28750000D01*
X249140000Y-30750000D02*
X249140000Y-28750000D01*
X249140000Y-30750000D02*
X253150000Y-30750000D01*
%TO.C,L1*%
X228390000Y-34149800D02*
X228390000Y-34350200D01*
X229110000Y-34149800D02*
X229110000Y-34350200D01*
%TO.C,D5*%
X236260000Y-20900000D02*
X233000000Y-20900000D01*
X236260000Y-20900000D02*
X236260000Y-22600000D01*
X236260000Y-22600000D02*
X233000000Y-22600000D01*
%TO.C,D107*%
X250110000Y-66500000D02*
X246100000Y-66500000D01*
X250110000Y-66500000D02*
X250110000Y-68500000D01*
X250110000Y-68500000D02*
X246100000Y-68500000D01*
%TO.C,U2*%
X236640000Y-24702500D02*
X236640000Y-26522500D01*
X236640000Y-26522500D02*
X236690000Y-26522500D01*
X236690000Y-24702500D02*
X236640000Y-24702500D01*
X237810000Y-26522500D02*
X238590000Y-26522500D01*
X239710000Y-26522500D02*
X239760000Y-26522500D01*
X239760000Y-24702500D02*
X239710000Y-24702500D01*
X239760000Y-26522500D02*
X239760000Y-24702500D01*
X236690000Y-24162500D02*
X236360000Y-24402500D01*
X236360000Y-23922500D01*
X236690000Y-24162500D01*
G36*
X236690000Y-24162500D02*
G01*
X236360000Y-24402500D01*
X236360000Y-23922500D01*
X236690000Y-24162500D01*
G37*
D11*
%TO.C,U1*%
X231500000Y-29305000D02*
X231750000Y-29305000D01*
X231500000Y-29555000D02*
X231500000Y-29305000D01*
X231500000Y-34305000D02*
X231500000Y-34055000D01*
X231500000Y-34305000D02*
X231750000Y-34305000D01*
X236250000Y-29305000D02*
X236500000Y-29305000D01*
X236250000Y-34305000D02*
X236500000Y-34305000D01*
X236500000Y-29305000D02*
X236500000Y-29555000D01*
X236500000Y-34305000D02*
X236500000Y-34055000D01*
D12*
X230600000Y-33605000D02*
G75*
G02*
X230400000Y-33605000I-100000J0D01*
G01*
X230400000Y-33605000D02*
G75*
G02*
X230600000Y-33605000I100000J0D01*
G01*
D10*
%TO.C,D93*%
X188360000Y-66500000D02*
X184350000Y-66500000D01*
X188360000Y-66500000D02*
X188360000Y-68500000D01*
X188360000Y-68500000D02*
X184350000Y-68500000D01*
%TO.C,C11*%
X227115835Y-33390000D02*
X226884165Y-33390000D01*
X227115835Y-34110000D02*
X226884165Y-34110000D01*
%TO.C,D65*%
X74360000Y-66750000D02*
X70350000Y-66750000D01*
X74360000Y-66750000D02*
X74360000Y-68750000D01*
X74360000Y-68750000D02*
X70350000Y-68750000D01*
%TO.C,D86*%
X150360000Y-104500000D02*
X146350000Y-104500000D01*
X150360000Y-104500000D02*
X150360000Y-106500000D01*
X150360000Y-106500000D02*
X146350000Y-106500000D01*
%TO.C,R2*%
X233417621Y-19870000D02*
X233082379Y-19870000D01*
X233417621Y-20630000D02*
X233082379Y-20630000D01*
%TO.C,D99*%
X207360000Y-85500000D02*
X203350000Y-85500000D01*
X207360000Y-85500000D02*
X207360000Y-87500000D01*
X207360000Y-87500000D02*
X203350000Y-87500000D01*
%TO.C,D98*%
X207360000Y-66500000D02*
X203350000Y-66500000D01*
X207360000Y-66500000D02*
X207360000Y-68500000D01*
X207360000Y-68500000D02*
X203350000Y-68500000D01*
%TO.C,D62*%
X55360000Y-85500000D02*
X51350000Y-85500000D01*
X55360000Y-85500000D02*
X55360000Y-87500000D01*
X55360000Y-87500000D02*
X51350000Y-87500000D01*
%TO.C,R1*%
X243620000Y-16167621D02*
X243620000Y-15832379D01*
X244380000Y-16167621D02*
X244380000Y-15832379D01*
%TO.C,L2*%
X232000200Y-35695000D02*
X231799800Y-35695000D01*
X232000200Y-36415000D02*
X231799800Y-36415000D01*
%TO.C,R5*%
X227870000Y-15167621D02*
X227870000Y-14832379D01*
X228630000Y-15167621D02*
X228630000Y-14832379D01*
%TO.C,D91*%
X188360000Y-28750000D02*
X184350000Y-28750000D01*
X188360000Y-28750000D02*
X188360000Y-30750000D01*
X188360000Y-30750000D02*
X184350000Y-30750000D01*
%TO.C,D94*%
X188110000Y-85500000D02*
X184100000Y-85500000D01*
X188110000Y-85500000D02*
X188110000Y-87500000D01*
X188110000Y-87500000D02*
X184100000Y-87500000D01*
%TO.C,D81*%
X131360000Y-85500000D02*
X127350000Y-85500000D01*
X131360000Y-85500000D02*
X131360000Y-87500000D01*
X131360000Y-87500000D02*
X127350000Y-87500000D01*
%TO.C,D75*%
X112460000Y-66500000D02*
X108450000Y-66500000D01*
X112460000Y-66500000D02*
X112460000Y-68500000D01*
X112460000Y-68500000D02*
X108450000Y-68500000D01*
%TO.C,D57*%
X31610000Y-66500000D02*
X27600000Y-66500000D01*
X31610000Y-66500000D02*
X31610000Y-68500000D01*
X31610000Y-68500000D02*
X27600000Y-68500000D01*
%TO.C,D82*%
X150360000Y-29000000D02*
X146350000Y-29000000D01*
X150360000Y-29000000D02*
X150360000Y-31000000D01*
X150360000Y-31000000D02*
X146350000Y-31000000D01*
%TO.C,D69*%
X93110000Y-47500000D02*
X89100000Y-47500000D01*
X93110000Y-47500000D02*
X93110000Y-49500000D01*
X93110000Y-49500000D02*
X89100000Y-49500000D01*
%TO.C,D59*%
X55110000Y-28750000D02*
X51100000Y-28750000D01*
X55110000Y-28750000D02*
X55110000Y-30750000D01*
X55110000Y-30750000D02*
X51100000Y-30750000D01*
%TO.C,D100*%
X207360000Y-104500000D02*
X203350000Y-104500000D01*
X207360000Y-104500000D02*
X207360000Y-106500000D01*
X207360000Y-106500000D02*
X203350000Y-106500000D01*
%TO.C,D108*%
X249960000Y-85500000D02*
X245950000Y-85500000D01*
X249960000Y-85500000D02*
X249960000Y-87500000D01*
X249960000Y-87500000D02*
X245950000Y-87500000D01*
%TO.C,D66*%
X74360000Y-85500000D02*
X70350000Y-85500000D01*
X74360000Y-85500000D02*
X74360000Y-87500000D01*
X74360000Y-87500000D02*
X70350000Y-87500000D01*
%TO.C,C8*%
X234134165Y-35640000D02*
X234365835Y-35640000D01*
X234134165Y-36360000D02*
X234365835Y-36360000D01*
%TO.C,R4*%
X245870000Y-29667621D02*
X245870000Y-29332379D01*
X246630000Y-29667621D02*
X246630000Y-29332379D01*
%TO.C,R3*%
X226832379Y-31370000D02*
X227167621Y-31370000D01*
X226832379Y-32130000D02*
X227167621Y-32130000D01*
%TO.C,C13*%
X228390000Y-31615835D02*
X228390000Y-31384165D01*
X229110000Y-31615835D02*
X229110000Y-31384165D01*
%TO.C,D96*%
X207360000Y-28500000D02*
X203350000Y-28500000D01*
X207360000Y-28500000D02*
X207360000Y-30500000D01*
X207360000Y-30500000D02*
X203350000Y-30500000D01*
%TO.C,C2*%
X240140000Y-24865835D02*
X240140000Y-24634165D01*
X240860000Y-24865835D02*
X240860000Y-24634165D01*
%TO.C,D97*%
X207210000Y-47500000D02*
X203200000Y-47500000D01*
X207210000Y-47500000D02*
X207210000Y-49500000D01*
X207210000Y-49500000D02*
X203200000Y-49500000D01*
%TO.C,D106*%
X249860000Y-47500000D02*
X245850000Y-47500000D01*
X249860000Y-47500000D02*
X249860000Y-49500000D01*
X249860000Y-49500000D02*
X245850000Y-49500000D01*
%TO.C,C5*%
X238534165Y-30445000D02*
X238765835Y-30445000D01*
X238534165Y-31165000D02*
X238765835Y-31165000D01*
%TO.C,D88*%
X169360000Y-47500000D02*
X165350000Y-47500000D01*
X169360000Y-47500000D02*
X169360000Y-49500000D01*
X169360000Y-49500000D02*
X165350000Y-49500000D01*
%TO.C,C7*%
X229365835Y-35640000D02*
X229134165Y-35640000D01*
X229365835Y-36360000D02*
X229134165Y-36360000D01*
%TD*%
M02*
