%TF.GenerationSoftware,KiCad,Pcbnew,9.0.6*%
%TF.CreationDate,2026-01-13T20:26:06-05:00*%
%TF.ProjectId,60_keyboard,36305f6b-6579-4626-9f61-72642e6b6963,rev?*%
%TF.SameCoordinates,Original*%
%TF.FileFunction,Soldermask,Bot*%
%TF.FilePolarity,Negative*%
%FSLAX46Y46*%
G04 Gerber Fmt 4.6, Leading zero omitted, Abs format (unit mm)*
G04 Created by KiCad (PCBNEW 9.0.6) date 2026-01-13 20:26:06*
%MOMM*%
%LPD*%
G01*
G04 APERTURE LIST*
G04 Aperture macros list*
%AMRoundRect*
0 Rectangle with rounded corners*
0 $1 Rounding radius*
0 $2 $3 $4 $5 $6 $7 $8 $9 X,Y pos of 4 corners*
0 Add a 4 corners polygon primitive as box body*
4,1,4,$2,$3,$4,$5,$6,$7,$8,$9,$2,$3,0*
0 Add four circle primitives for the rounded corners*
1,1,$1+$1,$2,$3*
1,1,$1+$1,$4,$5*
1,1,$1+$1,$6,$7*
1,1,$1+$1,$8,$9*
0 Add four rect primitives between the rounded corners*
20,1,$1+$1,$2,$3,$4,$5,0*
20,1,$1+$1,$4,$5,$6,$7,0*
20,1,$1+$1,$6,$7,$8,$9,0*
20,1,$1+$1,$8,$9,$2,$3,0*%
G04 Aperture macros list end*
%ADD10C,0.010000*%
%ADD11C,4.000000*%
%ADD12C,2.200000*%
%ADD13RoundRect,0.160000X-0.197500X-0.160000X0.197500X-0.160000X0.197500X0.160000X-0.197500X0.160000X0*%
%ADD14RoundRect,0.225000X0.225000X0.375000X-0.225000X0.375000X-0.225000X-0.375000X0.225000X-0.375000X0*%
%ADD15RoundRect,0.160000X-0.160000X0.197500X-0.160000X-0.197500X0.160000X-0.197500X0.160000X0.197500X0*%
%ADD16RoundRect,0.160000X0.197500X0.160000X-0.197500X0.160000X-0.197500X-0.160000X0.197500X-0.160000X0*%
%ADD17RoundRect,0.160000X0.160000X-0.197500X0.160000X0.197500X-0.160000X0.197500X-0.160000X-0.197500X0*%
%ADD18C,0.650000*%
%ADD19R,0.600000X1.450000*%
%ADD20R,0.300000X1.450000*%
%ADD21O,1.000000X1.600000*%
%ADD22O,1.000000X2.100000*%
%ADD23RoundRect,0.250000X0.250000X-0.250000X0.250000X0.250000X-0.250000X0.250000X-0.250000X-0.250000X0*%
%ADD24RoundRect,0.155000X-0.212500X-0.155000X0.212500X-0.155000X0.212500X0.155000X-0.212500X0.155000X0*%
%ADD25RoundRect,0.102000X-0.700000X0.600000X-0.700000X-0.600000X0.700000X-0.600000X0.700000X0.600000X0*%
%ADD26RoundRect,0.101750X-0.305250X0.805250X-0.305250X-0.805250X0.305250X-0.805250X0.305250X0.805250X0*%
%ADD27RoundRect,0.160000X-0.160000X0.222500X-0.160000X-0.222500X0.160000X-0.222500X0.160000X0.222500X0*%
%ADD28RoundRect,0.250000X0.250000X0.250000X-0.250000X0.250000X-0.250000X-0.250000X0.250000X-0.250000X0*%
%ADD29RoundRect,0.150000X-0.150000X0.512500X-0.150000X-0.512500X0.150000X-0.512500X0.150000X0.512500X0*%
%ADD30RoundRect,0.160000X0.222500X0.160000X-0.222500X0.160000X-0.222500X-0.160000X0.222500X-0.160000X0*%
%ADD31RoundRect,0.155000X0.155000X-0.212500X0.155000X0.212500X-0.155000X0.212500X-0.155000X-0.212500X0*%
%ADD32C,5.500000*%
G04 APERTURE END LIST*
D10*
%TO.C,U1*%
X232010000Y-30165000D02*
X231100000Y-30165000D01*
X231100000Y-29845000D01*
X232010000Y-29845000D01*
X232010000Y-30165000D01*
G36*
X232010000Y-30165000D02*
G01*
X231100000Y-30165000D01*
X231100000Y-29845000D01*
X232010000Y-29845000D01*
X232010000Y-30165000D01*
G37*
X232010000Y-30565000D02*
X231100000Y-30565000D01*
X231100000Y-30245000D01*
X232010000Y-30245000D01*
X232010000Y-30565000D01*
G36*
X232010000Y-30565000D02*
G01*
X231100000Y-30565000D01*
X231100000Y-30245000D01*
X232010000Y-30245000D01*
X232010000Y-30565000D01*
G37*
X232010000Y-30965000D02*
X231100000Y-30965000D01*
X231100000Y-30645000D01*
X232010000Y-30645000D01*
X232010000Y-30965000D01*
G36*
X232010000Y-30965000D02*
G01*
X231100000Y-30965000D01*
X231100000Y-30645000D01*
X232010000Y-30645000D01*
X232010000Y-30965000D01*
G37*
X232010000Y-31365000D02*
X231100000Y-31365000D01*
X231100000Y-31045000D01*
X232010000Y-31045000D01*
X232010000Y-31365000D01*
G36*
X232010000Y-31365000D02*
G01*
X231100000Y-31365000D01*
X231100000Y-31045000D01*
X232010000Y-31045000D01*
X232010000Y-31365000D01*
G37*
X232010000Y-31765000D02*
X231100000Y-31765000D01*
X231100000Y-31445000D01*
X232010000Y-31445000D01*
X232010000Y-31765000D01*
G36*
X232010000Y-31765000D02*
G01*
X231100000Y-31765000D01*
X231100000Y-31445000D01*
X232010000Y-31445000D01*
X232010000Y-31765000D01*
G37*
X232010000Y-32165000D02*
X231100000Y-32165000D01*
X231100000Y-31845000D01*
X232010000Y-31845000D01*
X232010000Y-32165000D01*
G36*
X232010000Y-32165000D02*
G01*
X231100000Y-32165000D01*
X231100000Y-31845000D01*
X232010000Y-31845000D01*
X232010000Y-32165000D01*
G37*
X232010000Y-32565000D02*
X231100000Y-32565000D01*
X231100000Y-32245000D01*
X232010000Y-32245000D01*
X232010000Y-32565000D01*
G36*
X232010000Y-32565000D02*
G01*
X231100000Y-32565000D01*
X231100000Y-32245000D01*
X232010000Y-32245000D01*
X232010000Y-32565000D01*
G37*
X232010000Y-32965000D02*
X231100000Y-32965000D01*
X231100000Y-32645000D01*
X232010000Y-32645000D01*
X232010000Y-32965000D01*
G36*
X232010000Y-32965000D02*
G01*
X231100000Y-32965000D01*
X231100000Y-32645000D01*
X232010000Y-32645000D01*
X232010000Y-32965000D01*
G37*
X232010000Y-33365000D02*
X231100000Y-33365000D01*
X231100000Y-33045000D01*
X232010000Y-33045000D01*
X232010000Y-33365000D01*
G36*
X232010000Y-33365000D02*
G01*
X231100000Y-33365000D01*
X231100000Y-33045000D01*
X232010000Y-33045000D01*
X232010000Y-33365000D01*
G37*
X232010000Y-33765000D02*
X231100000Y-33765000D01*
X231100000Y-33445000D01*
X232010000Y-33445000D01*
X232010000Y-33765000D01*
G36*
X232010000Y-33765000D02*
G01*
X231100000Y-33765000D01*
X231100000Y-33445000D01*
X232010000Y-33445000D01*
X232010000Y-33765000D01*
G37*
X232360000Y-29815000D02*
X232040000Y-29815000D01*
X232040000Y-28905000D01*
X232360000Y-28905000D01*
X232360000Y-29815000D01*
G36*
X232360000Y-29815000D02*
G01*
X232040000Y-29815000D01*
X232040000Y-28905000D01*
X232360000Y-28905000D01*
X232360000Y-29815000D01*
G37*
X232360000Y-34705000D02*
X232040000Y-34705000D01*
X232040000Y-33795000D01*
X232360000Y-33795000D01*
X232360000Y-34705000D01*
G36*
X232360000Y-34705000D02*
G01*
X232040000Y-34705000D01*
X232040000Y-33795000D01*
X232360000Y-33795000D01*
X232360000Y-34705000D01*
G37*
X235700000Y-33505000D02*
X232300000Y-33505000D01*
X232300000Y-30105000D01*
X235700000Y-30105000D01*
X235700000Y-33505000D01*
G36*
X235700000Y-33505000D02*
G01*
X232300000Y-33505000D01*
X232300000Y-30105000D01*
X235700000Y-30105000D01*
X235700000Y-33505000D01*
G37*
X232760000Y-29815000D02*
X232440000Y-29815000D01*
X232440000Y-28905000D01*
X232760000Y-28905000D01*
X232760000Y-29815000D01*
G36*
X232760000Y-29815000D02*
G01*
X232440000Y-29815000D01*
X232440000Y-28905000D01*
X232760000Y-28905000D01*
X232760000Y-29815000D01*
G37*
X232760000Y-34705000D02*
X232440000Y-34705000D01*
X232440000Y-33795000D01*
X232760000Y-33795000D01*
X232760000Y-34705000D01*
G36*
X232760000Y-34705000D02*
G01*
X232440000Y-34705000D01*
X232440000Y-33795000D01*
X232760000Y-33795000D01*
X232760000Y-34705000D01*
G37*
X233160000Y-29815000D02*
X232840000Y-29815000D01*
X232840000Y-28905000D01*
X233160000Y-28905000D01*
X233160000Y-29815000D01*
G36*
X233160000Y-29815000D02*
G01*
X232840000Y-29815000D01*
X232840000Y-28905000D01*
X233160000Y-28905000D01*
X233160000Y-29815000D01*
G37*
X233160000Y-34705000D02*
X232840000Y-34705000D01*
X232840000Y-33795000D01*
X233160000Y-33795000D01*
X233160000Y-34705000D01*
G36*
X233160000Y-34705000D02*
G01*
X232840000Y-34705000D01*
X232840000Y-33795000D01*
X233160000Y-33795000D01*
X233160000Y-34705000D01*
G37*
X233560000Y-29815000D02*
X233240000Y-29815000D01*
X233240000Y-28905000D01*
X233560000Y-28905000D01*
X233560000Y-29815000D01*
G36*
X233560000Y-29815000D02*
G01*
X233240000Y-29815000D01*
X233240000Y-28905000D01*
X233560000Y-28905000D01*
X233560000Y-29815000D01*
G37*
X233560000Y-34705000D02*
X233240000Y-34705000D01*
X233240000Y-33795000D01*
X233560000Y-33795000D01*
X233560000Y-34705000D01*
G36*
X233560000Y-34705000D02*
G01*
X233240000Y-34705000D01*
X233240000Y-33795000D01*
X233560000Y-33795000D01*
X233560000Y-34705000D01*
G37*
X233960000Y-29815000D02*
X233640000Y-29815000D01*
X233640000Y-28905000D01*
X233960000Y-28905000D01*
X233960000Y-29815000D01*
G36*
X233960000Y-29815000D02*
G01*
X233640000Y-29815000D01*
X233640000Y-28905000D01*
X233960000Y-28905000D01*
X233960000Y-29815000D01*
G37*
X233960000Y-34705000D02*
X233640000Y-34705000D01*
X233640000Y-33795000D01*
X233960000Y-33795000D01*
X233960000Y-34705000D01*
G36*
X233960000Y-34705000D02*
G01*
X233640000Y-34705000D01*
X233640000Y-33795000D01*
X233960000Y-33795000D01*
X233960000Y-34705000D01*
G37*
X234360000Y-29815000D02*
X234040000Y-29815000D01*
X234040000Y-28905000D01*
X234360000Y-28905000D01*
X234360000Y-29815000D01*
G36*
X234360000Y-29815000D02*
G01*
X234040000Y-29815000D01*
X234040000Y-28905000D01*
X234360000Y-28905000D01*
X234360000Y-29815000D01*
G37*
X234360000Y-34705000D02*
X234040000Y-34705000D01*
X234040000Y-33795000D01*
X234360000Y-33795000D01*
X234360000Y-34705000D01*
G36*
X234360000Y-34705000D02*
G01*
X234040000Y-34705000D01*
X234040000Y-33795000D01*
X234360000Y-33795000D01*
X234360000Y-34705000D01*
G37*
X234760000Y-29815000D02*
X234440000Y-29815000D01*
X234440000Y-28905000D01*
X234760000Y-28905000D01*
X234760000Y-29815000D01*
G36*
X234760000Y-29815000D02*
G01*
X234440000Y-29815000D01*
X234440000Y-28905000D01*
X234760000Y-28905000D01*
X234760000Y-29815000D01*
G37*
X234760000Y-34705000D02*
X234440000Y-34705000D01*
X234440000Y-33795000D01*
X234760000Y-33795000D01*
X234760000Y-34705000D01*
G36*
X234760000Y-34705000D02*
G01*
X234440000Y-34705000D01*
X234440000Y-33795000D01*
X234760000Y-33795000D01*
X234760000Y-34705000D01*
G37*
X235160000Y-29815000D02*
X234840000Y-29815000D01*
X234840000Y-28905000D01*
X235160000Y-28905000D01*
X235160000Y-29815000D01*
G36*
X235160000Y-29815000D02*
G01*
X234840000Y-29815000D01*
X234840000Y-28905000D01*
X235160000Y-28905000D01*
X235160000Y-29815000D01*
G37*
X235160000Y-34705000D02*
X234840000Y-34705000D01*
X234840000Y-33795000D01*
X235160000Y-33795000D01*
X235160000Y-34705000D01*
G36*
X235160000Y-34705000D02*
G01*
X234840000Y-34705000D01*
X234840000Y-33795000D01*
X235160000Y-33795000D01*
X235160000Y-34705000D01*
G37*
X235560000Y-29815000D02*
X235240000Y-29815000D01*
X235240000Y-28905000D01*
X235560000Y-28905000D01*
X235560000Y-29815000D01*
G36*
X235560000Y-29815000D02*
G01*
X235240000Y-29815000D01*
X235240000Y-28905000D01*
X235560000Y-28905000D01*
X235560000Y-29815000D01*
G37*
X235560000Y-34705000D02*
X235240000Y-34705000D01*
X235240000Y-33795000D01*
X235560000Y-33795000D01*
X235560000Y-34705000D01*
G36*
X235560000Y-34705000D02*
G01*
X235240000Y-34705000D01*
X235240000Y-33795000D01*
X235560000Y-33795000D01*
X235560000Y-34705000D01*
G37*
X235960000Y-29815000D02*
X235640000Y-29815000D01*
X235640000Y-28905000D01*
X235960000Y-28905000D01*
X235960000Y-29815000D01*
G36*
X235960000Y-29815000D02*
G01*
X235640000Y-29815000D01*
X235640000Y-28905000D01*
X235960000Y-28905000D01*
X235960000Y-29815000D01*
G37*
X235960000Y-34705000D02*
X235640000Y-34705000D01*
X235640000Y-33795000D01*
X235960000Y-33795000D01*
X235960000Y-34705000D01*
G36*
X235960000Y-34705000D02*
G01*
X235640000Y-34705000D01*
X235640000Y-33795000D01*
X235960000Y-33795000D01*
X235960000Y-34705000D01*
G37*
X236900000Y-30165000D02*
X235990000Y-30165000D01*
X235990000Y-29845000D01*
X236900000Y-29845000D01*
X236900000Y-30165000D01*
G36*
X236900000Y-30165000D02*
G01*
X235990000Y-30165000D01*
X235990000Y-29845000D01*
X236900000Y-29845000D01*
X236900000Y-30165000D01*
G37*
X236900000Y-30565000D02*
X235990000Y-30565000D01*
X235990000Y-30245000D01*
X236900000Y-30245000D01*
X236900000Y-30565000D01*
G36*
X236900000Y-30565000D02*
G01*
X235990000Y-30565000D01*
X235990000Y-30245000D01*
X236900000Y-30245000D01*
X236900000Y-30565000D01*
G37*
X236900000Y-30965000D02*
X235990000Y-30965000D01*
X235990000Y-30645000D01*
X236900000Y-30645000D01*
X236900000Y-30965000D01*
G36*
X236900000Y-30965000D02*
G01*
X235990000Y-30965000D01*
X235990000Y-30645000D01*
X236900000Y-30645000D01*
X236900000Y-30965000D01*
G37*
X236900000Y-31365000D02*
X235990000Y-31365000D01*
X235990000Y-31045000D01*
X236900000Y-31045000D01*
X236900000Y-31365000D01*
G36*
X236900000Y-31365000D02*
G01*
X235990000Y-31365000D01*
X235990000Y-31045000D01*
X236900000Y-31045000D01*
X236900000Y-31365000D01*
G37*
X236900000Y-31765000D02*
X235990000Y-31765000D01*
X235990000Y-31445000D01*
X236900000Y-31445000D01*
X236900000Y-31765000D01*
G36*
X236900000Y-31765000D02*
G01*
X235990000Y-31765000D01*
X235990000Y-31445000D01*
X236900000Y-31445000D01*
X236900000Y-31765000D01*
G37*
X236900000Y-32165000D02*
X235990000Y-32165000D01*
X235990000Y-31845000D01*
X236900000Y-31845000D01*
X236900000Y-32165000D01*
G36*
X236900000Y-32165000D02*
G01*
X235990000Y-32165000D01*
X235990000Y-31845000D01*
X236900000Y-31845000D01*
X236900000Y-32165000D01*
G37*
X236900000Y-32565000D02*
X235990000Y-32565000D01*
X235990000Y-32245000D01*
X236900000Y-32245000D01*
X236900000Y-32565000D01*
G36*
X236900000Y-32565000D02*
G01*
X235990000Y-32565000D01*
X235990000Y-32245000D01*
X236900000Y-32245000D01*
X236900000Y-32565000D01*
G37*
X236900000Y-32965000D02*
X235990000Y-32965000D01*
X235990000Y-32645000D01*
X236900000Y-32645000D01*
X236900000Y-32965000D01*
G36*
X236900000Y-32965000D02*
G01*
X235990000Y-32965000D01*
X235990000Y-32645000D01*
X236900000Y-32645000D01*
X236900000Y-32965000D01*
G37*
X236900000Y-33365000D02*
X235990000Y-33365000D01*
X235990000Y-33045000D01*
X236900000Y-33045000D01*
X236900000Y-33365000D01*
G36*
X236900000Y-33365000D02*
G01*
X235990000Y-33365000D01*
X235990000Y-33045000D01*
X236900000Y-33045000D01*
X236900000Y-33365000D01*
G37*
X236900000Y-33765000D02*
X235990000Y-33765000D01*
X235990000Y-33445000D01*
X236900000Y-33445000D01*
X236900000Y-33765000D01*
G36*
X236900000Y-33765000D02*
G01*
X235990000Y-33765000D01*
X235990000Y-33445000D01*
X236900000Y-33445000D01*
X236900000Y-33765000D01*
G37*
%TD*%
D11*
%TO.C,SW103*%
X224000000Y-62500000D03*
D12*
X220190000Y-59960000D03*
X226540000Y-57420000D03*
%TD*%
D11*
%TO.C,SW79*%
X129000000Y-43500000D03*
D12*
X125190000Y-40960000D03*
X131540000Y-38420000D03*
%TD*%
D11*
%TO.C,SW82*%
X148000000Y-24500000D03*
D12*
X144190000Y-21960000D03*
X150540000Y-19420000D03*
%TD*%
D11*
%TO.C,SW68*%
X91000000Y-24500000D03*
D12*
X87190000Y-21960000D03*
X93540000Y-19420000D03*
%TD*%
D11*
%TO.C,SW85*%
X148000000Y-81500000D03*
D12*
X144190000Y-78960000D03*
X150540000Y-76420000D03*
%TD*%
D11*
%TO.C,SW91*%
X186000000Y-24500000D03*
D12*
X182190000Y-21960000D03*
X188540000Y-19420000D03*
%TD*%
D11*
%TO.C,SW59*%
X53000000Y-24500000D03*
D12*
X49190000Y-21960000D03*
X55540000Y-19420000D03*
%TD*%
D11*
%TO.C,SW86*%
X148000000Y-100500000D03*
D12*
X144190000Y-97960000D03*
X150540000Y-95420000D03*
%TD*%
D11*
%TO.C,SW76*%
X110000000Y-81500000D03*
D12*
X106190000Y-78960000D03*
X112540000Y-76420000D03*
%TD*%
D11*
%TO.C,SW97*%
X205000000Y-43500000D03*
D12*
X201190000Y-40960000D03*
X207540000Y-38420000D03*
%TD*%
D11*
%TO.C,SW99*%
X205000000Y-81500000D03*
D12*
X201190000Y-78960000D03*
X207540000Y-76420000D03*
%TD*%
D11*
%TO.C,SW106*%
X247750000Y-43500000D03*
D12*
X243940000Y-40960000D03*
X250290000Y-38420000D03*
%TD*%
D11*
%TO.C,SW58*%
X29250000Y-81500000D03*
D12*
X25440000Y-78960000D03*
X31790000Y-76420000D03*
%TD*%
D11*
%TO.C,SW83*%
X148000000Y-43500000D03*
D12*
X144190000Y-40960000D03*
X150540000Y-38420000D03*
%TD*%
D11*
%TO.C,SW100*%
X205000000Y-100500000D03*
D12*
X201190000Y-97960000D03*
X207540000Y-95420000D03*
%TD*%
D11*
%TO.C,SW55*%
X29250000Y-24500000D03*
D12*
X25440000Y-21960000D03*
X31790000Y-19420000D03*
%TD*%
D11*
%TO.C,SW107*%
X247750000Y-62500000D03*
D12*
X243940000Y-59960000D03*
X250290000Y-57420000D03*
%TD*%
D11*
%TO.C,SW72*%
X91000000Y-100500000D03*
D12*
X87190000Y-97960000D03*
X93540000Y-95420000D03*
%TD*%
D11*
%TO.C,SW56*%
X29250000Y-43500000D03*
D12*
X25440000Y-40960000D03*
X31790000Y-38420000D03*
%TD*%
D11*
%TO.C,SW93*%
X186000000Y-62540000D03*
D12*
X182190000Y-60000000D03*
X188540000Y-57460000D03*
%TD*%
D11*
%TO.C,SW66*%
X72000000Y-81500000D03*
D12*
X68190000Y-78960000D03*
X74540000Y-76420000D03*
%TD*%
D11*
%TO.C,SW81*%
X129000000Y-81500000D03*
D12*
X125190000Y-78960000D03*
X131540000Y-76420000D03*
%TD*%
D11*
%TO.C,SW92*%
X186000000Y-43500000D03*
D12*
X182190000Y-40960000D03*
X188540000Y-38420000D03*
%TD*%
D11*
%TO.C,SW64*%
X72000000Y-43500000D03*
D12*
X68190000Y-40960000D03*
X74540000Y-38420000D03*
%TD*%
D11*
%TO.C,SW95*%
X186000000Y-100500000D03*
D12*
X182190000Y-97960000D03*
X188540000Y-95420000D03*
%TD*%
D11*
%TO.C,SW94*%
X186000000Y-81500000D03*
D12*
X182190000Y-78960000D03*
X188540000Y-76420000D03*
%TD*%
D11*
%TO.C,SW105*%
X247750000Y-24500000D03*
D12*
X243940000Y-21960000D03*
X250290000Y-19420000D03*
%TD*%
D11*
%TO.C,SW108*%
X247750000Y-81500000D03*
D12*
X243940000Y-78960000D03*
X250290000Y-76420000D03*
%TD*%
D11*
%TO.C,SW60*%
X53000000Y-43500000D03*
D12*
X49190000Y-40960000D03*
X55540000Y-38420000D03*
%TD*%
D11*
%TO.C,SW69*%
X91000000Y-43500000D03*
D12*
X87190000Y-40960000D03*
X93540000Y-38420000D03*
%TD*%
D11*
%TO.C,SW63*%
X72000000Y-24500000D03*
D12*
X68190000Y-21960000D03*
X74540000Y-19420000D03*
%TD*%
D11*
%TO.C,SW78*%
X129000000Y-24500000D03*
D12*
X125190000Y-21960000D03*
X131540000Y-19420000D03*
%TD*%
D11*
%TO.C,SW80*%
X129000000Y-62500000D03*
D12*
X125190000Y-59960000D03*
X131540000Y-57420000D03*
%TD*%
D11*
%TO.C,SW96*%
X205000000Y-24500000D03*
D12*
X201190000Y-21960000D03*
X207540000Y-19420000D03*
%TD*%
D11*
%TO.C,SW101*%
X224000000Y-24500000D03*
D12*
X220190000Y-21960000D03*
X226540000Y-19420000D03*
%TD*%
D11*
%TO.C,SW67*%
X72000000Y-100500000D03*
D12*
X68190000Y-97960000D03*
X74540000Y-95420000D03*
%TD*%
D11*
%TO.C,SW90*%
X167000000Y-81500000D03*
D12*
X163190000Y-78960000D03*
X169540000Y-76420000D03*
%TD*%
D11*
%TO.C,SW102*%
X224000000Y-43500000D03*
D12*
X220190000Y-40960000D03*
X226540000Y-38420000D03*
%TD*%
D11*
%TO.C,SW70*%
X91000000Y-62500000D03*
D12*
X87190000Y-59960000D03*
X93540000Y-57420000D03*
%TD*%
D11*
%TO.C,SW65*%
X72000000Y-62500000D03*
D12*
X68190000Y-59960000D03*
X74540000Y-57420000D03*
%TD*%
D11*
%TO.C,SW77*%
X110000000Y-100500000D03*
D12*
X106190000Y-97960000D03*
X112540000Y-95420000D03*
%TD*%
D11*
%TO.C,SW98*%
X205000000Y-62500000D03*
D12*
X201190000Y-59960000D03*
X207540000Y-57420000D03*
%TD*%
D11*
%TO.C,SW89*%
X167000000Y-62500000D03*
D12*
X163190000Y-59960000D03*
X169540000Y-57420000D03*
%TD*%
D11*
%TO.C,SW61*%
X53000000Y-62500000D03*
D12*
X49190000Y-59960000D03*
X55540000Y-57420000D03*
%TD*%
D11*
%TO.C,SW74*%
X110000000Y-43500000D03*
D12*
X106190000Y-40960000D03*
X112540000Y-38420000D03*
%TD*%
D11*
%TO.C,SW57*%
X29250000Y-62500000D03*
D12*
X25440000Y-59960000D03*
X31790000Y-57420000D03*
%TD*%
D11*
%TO.C,SW84*%
X148000000Y-62500000D03*
D12*
X144190000Y-59960000D03*
X150540000Y-57420000D03*
%TD*%
D11*
%TO.C,SW73*%
X110000000Y-24500000D03*
D12*
X106190000Y-21960000D03*
X112540000Y-19420000D03*
%TD*%
D11*
%TO.C,SW104*%
X224000000Y-81500000D03*
D12*
X220190000Y-78960000D03*
X226540000Y-76420000D03*
%TD*%
D11*
%TO.C,SW87*%
X167000000Y-24500000D03*
D12*
X163190000Y-21960000D03*
X169540000Y-19420000D03*
%TD*%
D11*
%TO.C,SW62*%
X53000000Y-81500000D03*
D12*
X49190000Y-78960000D03*
X55540000Y-76420000D03*
%TD*%
D11*
%TO.C,SW88*%
X167000000Y-43500000D03*
D12*
X163190000Y-40960000D03*
X169540000Y-38420000D03*
%TD*%
D11*
%TO.C,SW75*%
X110000000Y-62500000D03*
D12*
X106190000Y-59960000D03*
X112540000Y-57420000D03*
%TD*%
D11*
%TO.C,SW71*%
X91000000Y-81500000D03*
D12*
X87190000Y-78960000D03*
X93540000Y-76420000D03*
%TD*%
D13*
%TO.C,C6*%
X238052500Y-29805000D03*
X239247500Y-29805000D03*
%TD*%
D14*
%TO.C,D85*%
X149400000Y-86500000D03*
X146100000Y-86500000D03*
%TD*%
%TO.C,D83*%
X149650000Y-48750000D03*
X146350000Y-48750000D03*
%TD*%
%TO.C,D61*%
X54650000Y-67500000D03*
X51350000Y-67500000D03*
%TD*%
%TO.C,D71*%
X92750000Y-86500000D03*
X89450000Y-86500000D03*
%TD*%
%TO.C,D95*%
X187650000Y-105500000D03*
X184350000Y-105500000D03*
%TD*%
%TO.C,D72*%
X92500000Y-105500000D03*
X89200000Y-105500000D03*
%TD*%
%TO.C,D55*%
X31000000Y-29500000D03*
X27700000Y-29500000D03*
%TD*%
D15*
%TO.C,C9*%
X229750000Y-33652500D03*
X229750000Y-34847500D03*
%TD*%
D14*
%TO.C,D87*%
X168650000Y-29500000D03*
X165350000Y-29500000D03*
%TD*%
%TO.C,D67*%
X73650000Y-105750000D03*
X70350000Y-105750000D03*
%TD*%
%TO.C,D80*%
X130650000Y-67750000D03*
X127350000Y-67750000D03*
%TD*%
D16*
%TO.C,C12*%
X227597500Y-32750000D03*
X226402500Y-32750000D03*
%TD*%
D14*
%TO.C,D70*%
X92500000Y-67500000D03*
X89200000Y-67500000D03*
%TD*%
D17*
%TO.C,C15*%
X236400000Y-39152500D03*
X236400000Y-37957500D03*
%TD*%
D14*
%TO.C,D73*%
X111650000Y-29500000D03*
X108350000Y-29500000D03*
%TD*%
%TO.C,D77*%
X111650000Y-105500000D03*
X108350000Y-105500000D03*
%TD*%
%TO.C,D102*%
X225650000Y-48500000D03*
X222350000Y-48500000D03*
%TD*%
%TO.C,D104*%
X225400000Y-86500000D03*
X222100000Y-86500000D03*
%TD*%
D18*
%TO.C,J1*%
X233110000Y-15100000D03*
X238890000Y-15100000D03*
D19*
X232750000Y-16545000D03*
X233550000Y-16545000D03*
D20*
X234750000Y-16545000D03*
X235750000Y-16545000D03*
X236250000Y-16545000D03*
X237250000Y-16545000D03*
D19*
X238450000Y-16545000D03*
X239250000Y-16545000D03*
X239250000Y-16545000D03*
X238450000Y-16545000D03*
D20*
X237750000Y-16545000D03*
X236750000Y-16545000D03*
X235250000Y-16545000D03*
X234250000Y-16545000D03*
D19*
X233550000Y-16545000D03*
X232750000Y-16545000D03*
D21*
X231680000Y-11450000D03*
D22*
X231680000Y-15630000D03*
D21*
X240320000Y-11450000D03*
D22*
X240320000Y-15630000D03*
%TD*%
D15*
%TO.C,R7*%
X234500000Y-22652500D03*
X234500000Y-23847500D03*
%TD*%
D16*
%TO.C,C10*%
X227597500Y-34750000D03*
X226402500Y-34750000D03*
%TD*%
D15*
%TO.C,C4*%
X238250000Y-33152500D03*
X238250000Y-34347500D03*
%TD*%
D23*
%TO.C,D1*%
X242500000Y-18250000D03*
X242500000Y-15750000D03*
%TD*%
D14*
%TO.C,D76*%
X111650000Y-86500000D03*
X108350000Y-86500000D03*
%TD*%
%TO.C,D78*%
X130650000Y-29500000D03*
X127350000Y-29500000D03*
%TD*%
D15*
%TO.C,C14*%
X230400000Y-37860000D03*
X230400000Y-39055000D03*
%TD*%
D14*
%TO.C,D101*%
X225500000Y-29500000D03*
X222200000Y-29500000D03*
%TD*%
%TO.C,D56*%
X30900000Y-48500000D03*
X27600000Y-48500000D03*
%TD*%
D17*
%TO.C,C3*%
X229750000Y-32097500D03*
X229750000Y-30902500D03*
%TD*%
D14*
%TO.C,D92*%
X187650000Y-48500000D03*
X184350000Y-48500000D03*
%TD*%
%TO.C,D89*%
X168650000Y-67500000D03*
X165350000Y-67500000D03*
%TD*%
%TO.C,D68*%
X92500000Y-29750000D03*
X89200000Y-29750000D03*
%TD*%
D24*
%TO.C,C1*%
X238432500Y-18500000D03*
X239567500Y-18500000D03*
%TD*%
D14*
%TO.C,D79*%
X130650000Y-48500000D03*
X127350000Y-48500000D03*
%TD*%
D25*
%TO.C,Y1*%
X232300000Y-37455000D03*
X234500000Y-37455000D03*
X234500000Y-39155000D03*
X232300000Y-39155000D03*
%TD*%
D17*
%TO.C,R8*%
X235500000Y-23847500D03*
X235500000Y-22652500D03*
%TD*%
D14*
%TO.C,D64*%
X73650000Y-48500000D03*
X70350000Y-48500000D03*
%TD*%
D26*
%TO.C,U3*%
X240745000Y-28200000D03*
X242015000Y-28200000D03*
X243285000Y-28200000D03*
X244555000Y-28200000D03*
X244555000Y-35410000D03*
X243285000Y-35410000D03*
X242015000Y-35410000D03*
X240745000Y-35410000D03*
%TD*%
D14*
%TO.C,D63*%
X73650000Y-29500000D03*
X70350000Y-29500000D03*
%TD*%
%TO.C,D90*%
X168650000Y-86500000D03*
X165350000Y-86500000D03*
%TD*%
%TO.C,D84*%
X149650000Y-67500000D03*
X146350000Y-67500000D03*
%TD*%
%TO.C,D60*%
X54400000Y-48750000D03*
X51100000Y-48750000D03*
%TD*%
%TO.C,D103*%
X225500000Y-67500000D03*
X222200000Y-67500000D03*
%TD*%
%TO.C,D74*%
X111650000Y-48500000D03*
X108350000Y-48500000D03*
%TD*%
%TO.C,D58*%
X30900000Y-86750000D03*
X27600000Y-86750000D03*
%TD*%
%TO.C,D105*%
X249900000Y-29750000D03*
X246600000Y-29750000D03*
%TD*%
D27*
%TO.C,L1*%
X228750000Y-33677500D03*
X228750000Y-34822500D03*
%TD*%
D28*
%TO.C,D5*%
X235500000Y-20250000D03*
X233000000Y-20250000D03*
%TD*%
D14*
%TO.C,D107*%
X249400000Y-67500000D03*
X246100000Y-67500000D03*
%TD*%
D29*
%TO.C,U2*%
X238550000Y-20112500D03*
X239500000Y-20112500D03*
X240450000Y-20112500D03*
X240450000Y-22387500D03*
X238550000Y-22387500D03*
%TD*%
D14*
%TO.C,D93*%
X187650000Y-67500000D03*
X184350000Y-67500000D03*
%TD*%
D16*
%TO.C,C11*%
X227597500Y-33750000D03*
X226402500Y-33750000D03*
%TD*%
D14*
%TO.C,D65*%
X73650000Y-67750000D03*
X70350000Y-67750000D03*
%TD*%
%TO.C,D86*%
X149650000Y-105500000D03*
X146350000Y-105500000D03*
%TD*%
D16*
%TO.C,R2*%
X233847500Y-18500000D03*
X232652500Y-18500000D03*
%TD*%
D14*
%TO.C,D99*%
X206650000Y-86500000D03*
X203350000Y-86500000D03*
%TD*%
%TO.C,D98*%
X206650000Y-67500000D03*
X203350000Y-67500000D03*
%TD*%
%TO.C,D62*%
X54650000Y-86500000D03*
X51350000Y-86500000D03*
%TD*%
D30*
%TO.C,L2*%
X232472500Y-36055000D03*
X231327500Y-36055000D03*
%TD*%
D14*
%TO.C,D91*%
X187650000Y-29750000D03*
X184350000Y-29750000D03*
%TD*%
%TO.C,D94*%
X187400000Y-86500000D03*
X184100000Y-86500000D03*
%TD*%
%TO.C,D81*%
X130650000Y-86500000D03*
X127350000Y-86500000D03*
%TD*%
%TO.C,D75*%
X111750000Y-67500000D03*
X108450000Y-67500000D03*
%TD*%
%TO.C,D57*%
X30900000Y-67500000D03*
X27600000Y-67500000D03*
%TD*%
%TO.C,D82*%
X149650000Y-30000000D03*
X146350000Y-30000000D03*
%TD*%
%TO.C,D69*%
X92400000Y-48500000D03*
X89100000Y-48500000D03*
%TD*%
%TO.C,D59*%
X54400000Y-29750000D03*
X51100000Y-29750000D03*
%TD*%
%TO.C,D100*%
X206650000Y-105500000D03*
X203350000Y-105500000D03*
%TD*%
%TO.C,D108*%
X249250000Y-86500000D03*
X245950000Y-86500000D03*
%TD*%
%TO.C,D66*%
X73650000Y-86500000D03*
X70350000Y-86500000D03*
%TD*%
D13*
%TO.C,C8*%
X233902500Y-36000000D03*
X235097500Y-36000000D03*
%TD*%
%TO.C,R3*%
X226402500Y-31750000D03*
X227597500Y-31750000D03*
%TD*%
D31*
%TO.C,C13*%
X228750000Y-32067500D03*
X228750000Y-30932500D03*
%TD*%
D14*
%TO.C,D96*%
X206650000Y-29500000D03*
X203350000Y-29500000D03*
%TD*%
D31*
%TO.C,C2*%
X237250000Y-22317500D03*
X237250000Y-21182500D03*
%TD*%
D14*
%TO.C,D97*%
X206500000Y-48500000D03*
X203200000Y-48500000D03*
%TD*%
%TO.C,D106*%
X249150000Y-48500000D03*
X245850000Y-48500000D03*
%TD*%
D13*
%TO.C,C5*%
X238052500Y-30805000D03*
X239247500Y-30805000D03*
%TD*%
D14*
%TO.C,D88*%
X168650000Y-48500000D03*
X165350000Y-48500000D03*
%TD*%
D16*
%TO.C,C7*%
X229847500Y-36000000D03*
X228652500Y-36000000D03*
%TD*%
D32*
X20000000Y-105000000D03*
X257000000Y-105000000D03*
X257000000Y-15000000D03*
X20000000Y-15000000D03*
M02*
