M48
; DRILL file {KiCad 9.0.6} date 2026-01-13T20:26:20-0500
; FORMAT={-:-/ absolute / metric / decimal}
; #@! TF.CreationDate,2026-01-13T20:26:20-05:00
; #@! TF.GenerationSoftware,Kicad,Pcbnew,9.0.6
; #@! TF.FileFunction,NonPlated,1,2,NPTH
FMAT,2
METRIC
; #@! TA.AperFunction,NonPlated,NPTH,ComponentDrill
T1C0.650
; #@! TA.AperFunction,NonPlated,NPTH,ComponentDrill
T2C4.000
%
G90
G05
T1
X233.11Y-15.1
X238.89Y-15.1
T2
X29.25Y-24.5
X29.25Y-43.5
X29.25Y-62.5
X29.25Y-81.5
X53.0Y-24.5
X53.0Y-43.5
X53.0Y-62.5
X53.0Y-81.5
X72.0Y-24.5
X72.0Y-43.5
X72.0Y-62.5
X72.0Y-81.5
X72.0Y-100.5
X91.0Y-24.5
X91.0Y-43.5
X91.0Y-62.5
X91.0Y-81.5
X91.0Y-100.5
X110.0Y-24.5
X110.0Y-43.5
X110.0Y-62.5
X110.0Y-81.5
X110.0Y-100.5
X129.0Y-24.5
X129.0Y-43.5
X129.0Y-62.5
X129.0Y-81.5
X148.0Y-24.5
X148.0Y-43.5
X148.0Y-62.5
X148.0Y-81.5
X148.0Y-100.5
X167.0Y-24.5
X167.0Y-43.5
X167.0Y-62.5
X167.0Y-81.5
X186.0Y-24.5
X186.0Y-43.5
X186.0Y-62.54
X186.0Y-81.5
X186.0Y-100.5
X205.0Y-24.5
X205.0Y-43.5
X205.0Y-62.5
X205.0Y-81.5
X205.0Y-100.5
X224.0Y-24.5
X224.0Y-43.5
X224.0Y-62.5
X224.0Y-81.5
X247.75Y-24.5
X247.75Y-43.5
X247.75Y-62.5
X247.75Y-81.5
M30
