%TF.GenerationSoftware,KiCad,Pcbnew,9.0.6*%
%TF.CreationDate,2026-01-14T23:26:21-05:00*%
%TF.ProjectId,60_keyboard,36305f6b-6579-4626-9f61-72642e6b6963,rev?*%
%TF.SameCoordinates,Original*%
%TF.FileFunction,Legend,Top*%
%TF.FilePolarity,Positive*%
%FSLAX46Y46*%
G04 Gerber Fmt 4.6, Leading zero omitted, Abs format (unit mm)*
G04 Created by KiCad (PCBNEW 9.0.6) date 2026-01-14 23:26:21*
%MOMM*%
%LPD*%
G01*
G04 APERTURE LIST*
%ADD10C,0.150000*%
G04 APERTURE END LIST*
D10*
X146666666Y-98954819D02*
X146333333Y-98478628D01*
X146095238Y-98954819D02*
X146095238Y-97954819D01*
X146095238Y-97954819D02*
X146476190Y-97954819D01*
X146476190Y-97954819D02*
X146571428Y-98002438D01*
X146571428Y-98002438D02*
X146619047Y-98050057D01*
X146619047Y-98050057D02*
X146666666Y-98145295D01*
X146666666Y-98145295D02*
X146666666Y-98288152D01*
X146666666Y-98288152D02*
X146619047Y-98383390D01*
X146619047Y-98383390D02*
X146571428Y-98431009D01*
X146571428Y-98431009D02*
X146476190Y-98478628D01*
X146476190Y-98478628D02*
X146095238Y-98478628D01*
X147095238Y-98431009D02*
X147428571Y-98431009D01*
X147571428Y-98954819D02*
X147095238Y-98954819D01*
X147095238Y-98954819D02*
X147095238Y-97954819D01*
X147095238Y-97954819D02*
X147571428Y-97954819D01*
X148333333Y-98431009D02*
X148000000Y-98431009D01*
X148000000Y-98954819D02*
X148000000Y-97954819D01*
X148000000Y-97954819D02*
X148476190Y-97954819D01*
X149000000Y-97954819D02*
X149000000Y-98192914D01*
X148761905Y-98097676D02*
X149000000Y-98192914D01*
X149000000Y-98192914D02*
X149238095Y-98097676D01*
X148857143Y-98383390D02*
X149000000Y-98192914D01*
X149000000Y-98192914D02*
X149142857Y-98383390D01*
X149761905Y-97954819D02*
X149761905Y-98192914D01*
X149523810Y-98097676D02*
X149761905Y-98192914D01*
X149761905Y-98192914D02*
X150000000Y-98097676D01*
X149619048Y-98383390D02*
X149761905Y-98192914D01*
X149761905Y-98192914D02*
X149904762Y-98383390D01*
M02*
