%TF.GenerationSoftware,KiCad,Pcbnew,9.0.6*%
%TF.CreationDate,2026-01-13T20:26:06-05:00*%
%TF.ProjectId,60_keyboard,36305f6b-6579-4626-9f61-72642e6b6963,rev?*%
%TF.SameCoordinates,Original*%
%TF.FileFunction,Soldermask,Top*%
%TF.FilePolarity,Negative*%
%FSLAX46Y46*%
G04 Gerber Fmt 4.6, Leading zero omitted, Abs format (unit mm)*
G04 Created by KiCad (PCBNEW 9.0.6) date 2026-01-13 20:26:06*
%MOMM*%
%LPD*%
G01*
G04 APERTURE LIST*
G04 Aperture macros list*
%AMRoundRect*
0 Rectangle with rounded corners*
0 $1 Rounding radius*
0 $2 $3 $4 $5 $6 $7 $8 $9 X,Y pos of 4 corners*
0 Add a 4 corners polygon primitive as box body*
4,1,4,$2,$3,$4,$5,$6,$7,$8,$9,$2,$3,0*
0 Add four circle primitives for the rounded corners*
1,1,$1+$1,$2,$3*
1,1,$1+$1,$4,$5*
1,1,$1+$1,$6,$7*
1,1,$1+$1,$8,$9*
0 Add four rect primitives between the rounded corners*
20,1,$1+$1,$2,$3,$4,$5,0*
20,1,$1+$1,$4,$5,$6,$7,0*
20,1,$1+$1,$6,$7,$8,$9,0*
20,1,$1+$1,$8,$9,$2,$3,0*%
G04 Aperture macros list end*
%ADD10C,4.000000*%
%ADD11C,2.200000*%
%ADD12RoundRect,0.160000X0.160000X-0.197500X0.160000X0.197500X-0.160000X0.197500X-0.160000X-0.197500X0*%
%ADD13RoundRect,0.250000X0.250000X0.250000X-0.250000X0.250000X-0.250000X-0.250000X0.250000X-0.250000X0*%
%ADD14RoundRect,0.250000X-0.250000X-0.550000X0.250000X-0.550000X0.250000X0.550000X-0.250000X0.550000X0*%
%ADD15RoundRect,0.160000X-0.197500X-0.160000X0.197500X-0.160000X0.197500X0.160000X-0.197500X0.160000X0*%
%ADD16C,0.650000*%
%ADD17O,1.000000X1.600000*%
%ADD18O,1.000000X2.100000*%
%ADD19C,5.500000*%
G04 APERTURE END LIST*
D10*
%TO.C,SW103*%
X224000000Y-62500000D03*
D11*
X220190000Y-59960000D03*
X226540000Y-57420000D03*
%TD*%
D10*
%TO.C,SW79*%
X129000000Y-43500000D03*
D11*
X125190000Y-40960000D03*
X131540000Y-38420000D03*
%TD*%
D10*
%TO.C,SW82*%
X148000000Y-24500000D03*
D11*
X144190000Y-21960000D03*
X150540000Y-19420000D03*
%TD*%
D10*
%TO.C,SW68*%
X91000000Y-24500000D03*
D11*
X87190000Y-21960000D03*
X93540000Y-19420000D03*
%TD*%
D10*
%TO.C,SW85*%
X148000000Y-81500000D03*
D11*
X144190000Y-78960000D03*
X150540000Y-76420000D03*
%TD*%
D10*
%TO.C,SW91*%
X186000000Y-24500000D03*
D11*
X182190000Y-21960000D03*
X188540000Y-19420000D03*
%TD*%
D12*
%TO.C,R6*%
X227000000Y-14347500D03*
X227000000Y-13152500D03*
%TD*%
D10*
%TO.C,SW59*%
X53000000Y-24500000D03*
D11*
X49190000Y-21960000D03*
X55540000Y-19420000D03*
%TD*%
D10*
%TO.C,SW86*%
X148000000Y-100500000D03*
D11*
X144190000Y-97960000D03*
X150540000Y-95420000D03*
%TD*%
D10*
%TO.C,SW76*%
X110000000Y-81500000D03*
D11*
X106190000Y-78960000D03*
X112540000Y-76420000D03*
%TD*%
D10*
%TO.C,SW97*%
X205000000Y-43500000D03*
D11*
X201190000Y-40960000D03*
X207540000Y-38420000D03*
%TD*%
D10*
%TO.C,SW99*%
X205000000Y-81500000D03*
D11*
X201190000Y-78960000D03*
X207540000Y-76420000D03*
%TD*%
D10*
%TO.C,SW106*%
X247750000Y-43500000D03*
D11*
X243940000Y-40960000D03*
X250290000Y-38420000D03*
%TD*%
D10*
%TO.C,SW58*%
X29250000Y-81500000D03*
D11*
X25440000Y-78960000D03*
X31790000Y-76420000D03*
%TD*%
D10*
%TO.C,SW83*%
X148000000Y-43500000D03*
D11*
X144190000Y-40960000D03*
X150540000Y-38420000D03*
%TD*%
D10*
%TO.C,SW100*%
X205000000Y-100500000D03*
D11*
X201190000Y-97960000D03*
X207540000Y-95420000D03*
%TD*%
D10*
%TO.C,SW55*%
X29250000Y-24500000D03*
D11*
X25440000Y-21960000D03*
X31790000Y-19420000D03*
%TD*%
D10*
%TO.C,SW107*%
X247750000Y-62500000D03*
D11*
X243940000Y-59960000D03*
X250290000Y-57420000D03*
%TD*%
D13*
%TO.C,D4*%
X235750000Y-18500000D03*
X233250000Y-18500000D03*
%TD*%
D14*
%TO.C,SW1*%
X219500000Y-14250000D03*
X221250000Y-11950000D03*
X223000000Y-14250000D03*
%TD*%
D10*
%TO.C,SW72*%
X91000000Y-100500000D03*
D11*
X87190000Y-97960000D03*
X93540000Y-95420000D03*
%TD*%
D10*
%TO.C,SW56*%
X29250000Y-43500000D03*
D11*
X25440000Y-40960000D03*
X31790000Y-38420000D03*
%TD*%
D10*
%TO.C,SW93*%
X186000000Y-62540000D03*
D11*
X182190000Y-60000000D03*
X188540000Y-57460000D03*
%TD*%
D10*
%TO.C,SW66*%
X72000000Y-81500000D03*
D11*
X68190000Y-78960000D03*
X74540000Y-76420000D03*
%TD*%
D10*
%TO.C,SW81*%
X129000000Y-81500000D03*
D11*
X125190000Y-78960000D03*
X131540000Y-76420000D03*
%TD*%
D10*
%TO.C,SW92*%
X186000000Y-43500000D03*
D11*
X182190000Y-40960000D03*
X188540000Y-38420000D03*
%TD*%
D10*
%TO.C,SW64*%
X72000000Y-43500000D03*
D11*
X68190000Y-40960000D03*
X74540000Y-38420000D03*
%TD*%
D10*
%TO.C,SW95*%
X186000000Y-100500000D03*
D11*
X182190000Y-97960000D03*
X188540000Y-95420000D03*
%TD*%
D10*
%TO.C,SW94*%
X186000000Y-81500000D03*
D11*
X182190000Y-78960000D03*
X188540000Y-76420000D03*
%TD*%
D10*
%TO.C,SW105*%
X247750000Y-24500000D03*
D11*
X243940000Y-21960000D03*
X250290000Y-19420000D03*
%TD*%
D10*
%TO.C,SW108*%
X247750000Y-81500000D03*
D11*
X243940000Y-78960000D03*
X250290000Y-76420000D03*
%TD*%
D10*
%TO.C,SW60*%
X53000000Y-43500000D03*
D11*
X49190000Y-40960000D03*
X55540000Y-38420000D03*
%TD*%
D10*
%TO.C,SW69*%
X91000000Y-43500000D03*
D11*
X87190000Y-40960000D03*
X93540000Y-38420000D03*
%TD*%
D10*
%TO.C,SW63*%
X72000000Y-24500000D03*
D11*
X68190000Y-21960000D03*
X74540000Y-19420000D03*
%TD*%
D10*
%TO.C,SW78*%
X129000000Y-24500000D03*
D11*
X125190000Y-21960000D03*
X131540000Y-19420000D03*
%TD*%
D10*
%TO.C,SW80*%
X129000000Y-62500000D03*
D11*
X125190000Y-59960000D03*
X131540000Y-57420000D03*
%TD*%
D10*
%TO.C,SW96*%
X205000000Y-24500000D03*
D11*
X201190000Y-21960000D03*
X207540000Y-19420000D03*
%TD*%
D10*
%TO.C,SW101*%
X224000000Y-24500000D03*
D11*
X220190000Y-21960000D03*
X226540000Y-19420000D03*
%TD*%
D10*
%TO.C,SW67*%
X72000000Y-100500000D03*
D11*
X68190000Y-97960000D03*
X74540000Y-95420000D03*
%TD*%
D10*
%TO.C,SW90*%
X167000000Y-81500000D03*
D11*
X163190000Y-78960000D03*
X169540000Y-76420000D03*
%TD*%
D10*
%TO.C,SW102*%
X224000000Y-43500000D03*
D11*
X220190000Y-40960000D03*
X226540000Y-38420000D03*
%TD*%
D10*
%TO.C,SW70*%
X91000000Y-62500000D03*
D11*
X87190000Y-59960000D03*
X93540000Y-57420000D03*
%TD*%
D15*
%TO.C,R1*%
X238402500Y-18500000D03*
X239597500Y-18500000D03*
%TD*%
D10*
%TO.C,SW65*%
X72000000Y-62500000D03*
D11*
X68190000Y-59960000D03*
X74540000Y-57420000D03*
%TD*%
D10*
%TO.C,SW77*%
X110000000Y-100500000D03*
D11*
X106190000Y-97960000D03*
X112540000Y-95420000D03*
%TD*%
D10*
%TO.C,SW98*%
X205000000Y-62500000D03*
D11*
X201190000Y-59960000D03*
X207540000Y-57420000D03*
%TD*%
D12*
%TO.C,R5*%
X225750000Y-14347500D03*
X225750000Y-13152500D03*
%TD*%
D10*
%TO.C,SW89*%
X167000000Y-62500000D03*
D11*
X163190000Y-59960000D03*
X169540000Y-57420000D03*
%TD*%
D10*
%TO.C,SW61*%
X53000000Y-62500000D03*
D11*
X49190000Y-59960000D03*
X55540000Y-57420000D03*
%TD*%
D10*
%TO.C,SW74*%
X110000000Y-43500000D03*
D11*
X106190000Y-40960000D03*
X112540000Y-38420000D03*
%TD*%
D10*
%TO.C,SW57*%
X29250000Y-62500000D03*
D11*
X25440000Y-59960000D03*
X31790000Y-57420000D03*
%TD*%
D10*
%TO.C,SW84*%
X148000000Y-62500000D03*
D11*
X144190000Y-59960000D03*
X150540000Y-57420000D03*
%TD*%
D10*
%TO.C,SW73*%
X110000000Y-24500000D03*
D11*
X106190000Y-21960000D03*
X112540000Y-19420000D03*
%TD*%
D10*
%TO.C,SW104*%
X224000000Y-81500000D03*
D11*
X220190000Y-78960000D03*
X226540000Y-76420000D03*
%TD*%
D10*
%TO.C,SW87*%
X167000000Y-24500000D03*
D11*
X163190000Y-21960000D03*
X169540000Y-19420000D03*
%TD*%
D10*
%TO.C,SW62*%
X53000000Y-81500000D03*
D11*
X49190000Y-78960000D03*
X55540000Y-76420000D03*
%TD*%
D12*
%TO.C,R4*%
X239250000Y-31097500D03*
X239250000Y-29902500D03*
%TD*%
D10*
%TO.C,SW88*%
X167000000Y-43500000D03*
D11*
X163190000Y-40960000D03*
X169540000Y-38420000D03*
%TD*%
D10*
%TO.C,SW75*%
X110000000Y-62500000D03*
D11*
X106190000Y-59960000D03*
X112540000Y-57420000D03*
%TD*%
D10*
%TO.C,SW71*%
X91000000Y-81500000D03*
D11*
X87190000Y-78960000D03*
X93540000Y-76420000D03*
%TD*%
D16*
%TO.C,J1*%
X233110000Y-15100000D03*
X238890000Y-15100000D03*
D17*
X231680000Y-11450000D03*
D18*
X231680000Y-15630000D03*
D17*
X240320000Y-11450000D03*
D18*
X240320000Y-15630000D03*
%TD*%
D19*
X20000000Y-105000000D03*
X257000000Y-105000000D03*
X257000000Y-15000000D03*
X20000000Y-15000000D03*
M02*
