M48
; DRILL file {KiCad 9.0.6} date 2026-01-13T20:26:20-0500
; FORMAT={-:-/ absolute / metric / decimal}
; #@! TF.CreationDate,2026-01-13T20:26:20-05:00
; #@! TF.GenerationSoftware,Kicad,Pcbnew,9.0.6
; #@! TF.FileFunction,Plated,1,2,PTH
FMAT,2
METRIC
; #@! TA.AperFunction,Plated,PTH,ViaDrill
T1C0.200
; #@! TA.AperFunction,Plated,PTH,ViaDrill
T2C0.300
; #@! TA.AperFunction,Plated,PTH,ComponentDrill
T3C0.600
; #@! TA.AperFunction,Plated,PTH,ComponentDrill
T4C1.500
; #@! TA.AperFunction,Plated,PTH,ViaDrill
T5C3.200
%
G90
G05
T1
X33.25Y-31.5
X55.7Y-31.05
X74.7Y-30.55
X93.75Y-30.0
X113.0Y-29.5
X131.75Y-29.0
X150.5Y-28.5
X169.75Y-28.0
X189.75Y-27.5
X209.0Y-27.0
X227.75Y-35.5
X228.5Y-32.75
X229.5Y-18.25
X230.0Y-18.25
X230.0Y-36.75
X230.343Y-31.571
X230.48Y-30.5
X230.5Y-31.0
X230.509Y-32.043
X230.75Y-30.0
X231.0Y-29.5
X231.5Y-29.0
X232.0Y-35.25
X232.25Y-28.5
X232.75Y-28.0
X233.4Y-35.25
X233.824Y-34.985
X234.25Y-28.25
X234.25Y-35.25
X234.6Y-27.75
X234.748Y-35.379
X235.314Y-35.38
X235.75Y-17.67
X236.533Y-18.783
X237.25Y-32.405
X237.75Y-17.75
X237.833Y-35.914
X237.992Y-32.588
X238.5Y-23.8
X238.5Y-24.25
X238.5Y-24.75
X238.5Y-35.5
X239.941Y-28.555
X240.0Y-31.75
X245.25Y-18.5
T2
X225.0Y-32.25
X225.0Y-34.75
X226.75Y-36.25
X228.5Y-37.5
X230.75Y-34.5
X230.75Y-37.0
X231.75Y-17.5
X232.0Y-20.5
X232.5Y-40.5
X232.75Y-14.25
X233.0Y-30.75
X233.0Y-31.75
X233.0Y-32.75
X233.5Y-22.0
X233.5Y-23.25
X233.75Y-24.75
X234.0Y-30.75
X234.0Y-31.75
X234.0Y-32.75
X234.25Y-26.25
X234.5Y-21.25
X235.0Y-30.75
X235.0Y-31.75
X235.0Y-32.75
X236.0Y-37.0
X236.25Y-24.5
X236.25Y-25.75
X236.25Y-27.0
X236.25Y-28.0
X236.5Y-22.0
X236.5Y-23.25
X237.25Y-20.25
X237.5Y-18.75
X239.0Y-34.25
X239.25Y-37.75
X239.5Y-14.25
X240.25Y-30.5
X241.0Y-17.0
X244.5Y-26.5
T4
X25.44Y-21.96
X25.44Y-40.96
X25.44Y-59.96
X25.44Y-78.96
X31.79Y-19.42
X31.79Y-38.42
X31.79Y-57.42
X31.79Y-76.42
X49.19Y-21.96
X49.19Y-40.96
X49.19Y-59.96
X49.19Y-78.96
X55.54Y-19.42
X55.54Y-38.42
X55.54Y-57.42
X55.54Y-76.42
X68.19Y-21.96
X68.19Y-40.96
X68.19Y-59.96
X68.19Y-78.96
X68.19Y-97.96
X74.54Y-19.42
X74.54Y-38.42
X74.54Y-57.42
X74.54Y-76.42
X74.54Y-95.42
X87.19Y-21.96
X87.19Y-40.96
X87.19Y-59.96
X87.19Y-78.96
X87.19Y-97.96
X93.54Y-19.42
X93.54Y-38.42
X93.54Y-57.42
X93.54Y-76.42
X93.54Y-95.42
X106.19Y-21.96
X106.19Y-40.96
X106.19Y-59.96
X106.19Y-78.96
X106.19Y-97.96
X112.54Y-19.42
X112.54Y-38.42
X112.54Y-57.42
X112.54Y-76.42
X112.54Y-95.42
X125.19Y-21.96
X125.19Y-40.96
X125.19Y-59.96
X125.19Y-78.96
X131.54Y-19.42
X131.54Y-38.42
X131.54Y-57.42
X131.54Y-76.42
X144.19Y-21.96
X144.19Y-40.96
X144.19Y-59.96
X144.19Y-78.96
X144.19Y-97.96
X150.54Y-19.42
X150.54Y-38.42
X150.54Y-57.42
X150.54Y-76.42
X150.54Y-95.42
X163.19Y-21.96
X163.19Y-40.96
X163.19Y-59.96
X163.19Y-78.96
X169.54Y-19.42
X169.54Y-38.42
X169.54Y-57.42
X169.54Y-76.42
X182.19Y-21.96
X182.19Y-40.96
X182.19Y-60.0
X182.19Y-78.96
X182.19Y-97.96
X188.54Y-19.42
X188.54Y-38.42
X188.54Y-57.46
X188.54Y-76.42
X188.54Y-95.42
X201.19Y-21.96
X201.19Y-40.96
X201.19Y-59.96
X201.19Y-78.96
X201.19Y-97.96
X207.54Y-19.42
X207.54Y-38.42
X207.54Y-57.42
X207.54Y-76.42
X207.54Y-95.42
X220.19Y-21.96
X220.19Y-40.96
X220.19Y-59.96
X220.19Y-78.96
X226.54Y-19.42
X226.54Y-38.42
X226.54Y-57.42
X226.54Y-76.42
X243.94Y-21.96
X243.94Y-40.96
X243.94Y-59.96
X243.94Y-78.96
X250.29Y-19.42
X250.29Y-38.42
X250.29Y-57.42
X250.29Y-76.42
T5
X20.0Y-15.0
X20.0Y-105.0
X257.0Y-15.0
X257.0Y-105.0
T3
G00X231.68Y-11.15
M15
G01X231.68Y-11.75
M16
G05
G00X231.68Y-15.08
M15
G01X231.68Y-16.18
M16
G05
G00X240.32Y-11.15
M15
G01X240.32Y-11.75
M16
G05
G00X240.32Y-15.08
M15
G01X240.32Y-16.18
M16
G05
M30
