%TF.GenerationSoftware,KiCad,Pcbnew,9.0.6*%
%TF.CreationDate,2026-01-15T12:54:40-05:00*%
%TF.ProjectId,60_keyboard,36305f6b-6579-4626-9f61-72642e6b6963,rev?*%
%TF.SameCoordinates,Original*%
%TF.FileFunction,Paste,Bot*%
%TF.FilePolarity,Positive*%
%FSLAX46Y46*%
G04 Gerber Fmt 4.6, Leading zero omitted, Abs format (unit mm)*
G04 Created by KiCad (PCBNEW 9.0.6) date 2026-01-15 12:54:40*
%MOMM*%
%LPD*%
G01*
G04 APERTURE LIST*
G04 Aperture macros list*
%AMRoundRect*
0 Rectangle with rounded corners*
0 $1 Rounding radius*
0 $2 $3 $4 $5 $6 $7 $8 $9 X,Y pos of 4 corners*
0 Add a 4 corners polygon primitive as box body*
4,1,4,$2,$3,$4,$5,$6,$7,$8,$9,$2,$3,0*
0 Add four circle primitives for the rounded corners*
1,1,$1+$1,$2,$3*
1,1,$1+$1,$4,$5*
1,1,$1+$1,$6,$7*
1,1,$1+$1,$8,$9*
0 Add four rect primitives between the rounded corners*
20,1,$1+$1,$2,$3,$4,$5,0*
20,1,$1+$1,$4,$5,$6,$7,0*
20,1,$1+$1,$6,$7,$8,$9,0*
20,1,$1+$1,$8,$9,$2,$3,0*%
G04 Aperture macros list end*
%ADD10C,0.010000*%
%ADD11RoundRect,0.155000X-0.212500X-0.155000X0.212500X-0.155000X0.212500X0.155000X-0.212500X0.155000X0*%
%ADD12RoundRect,0.375000X0.900000X0.875000X-0.900000X0.875000X-0.900000X-0.875000X0.900000X-0.875000X0*%
%ADD13RoundRect,0.225000X0.225000X0.375000X-0.225000X0.375000X-0.225000X-0.375000X0.225000X-0.375000X0*%
%ADD14RoundRect,0.155000X-0.155000X0.212500X-0.155000X-0.212500X0.155000X-0.212500X0.155000X0.212500X0*%
%ADD15RoundRect,0.155000X0.212500X0.155000X-0.212500X0.155000X-0.212500X-0.155000X0.212500X-0.155000X0*%
%ADD16RoundRect,0.160000X0.160000X-0.197500X0.160000X0.197500X-0.160000X0.197500X-0.160000X-0.197500X0*%
%ADD17RoundRect,0.155000X0.155000X-0.212500X0.155000X0.212500X-0.155000X0.212500X-0.155000X-0.212500X0*%
%ADD18R,0.600000X1.450000*%
%ADD19R,0.300000X1.450000*%
%ADD20RoundRect,0.160000X-0.160000X0.197500X-0.160000X-0.197500X0.160000X-0.197500X0.160000X0.197500X0*%
%ADD21RoundRect,0.250000X0.250000X-0.250000X0.250000X0.250000X-0.250000X0.250000X-0.250000X-0.250000X0*%
%ADD22RoundRect,0.250000X0.250000X0.250000X-0.250000X0.250000X-0.250000X-0.250000X0.250000X-0.250000X0*%
%ADD23RoundRect,0.250000X0.250000X0.550000X-0.250000X0.550000X-0.250000X-0.550000X0.250000X-0.550000X0*%
%ADD24R,1.400000X1.200000*%
%ADD25RoundRect,0.076250X-0.228750X0.728750X-0.228750X-0.728750X0.228750X-0.728750X0.228750X0.728750X0*%
%ADD26RoundRect,0.225000X-0.225000X-0.375000X0.225000X-0.375000X0.225000X0.375000X-0.225000X0.375000X0*%
%ADD27RoundRect,0.160000X-0.160000X0.222500X-0.160000X-0.222500X0.160000X-0.222500X0.160000X0.222500X0*%
%ADD28RoundRect,0.150000X-0.150000X0.512500X-0.150000X-0.512500X0.150000X-0.512500X0.150000X0.512500X0*%
%ADD29R,0.810000X0.220000*%
%ADD30R,0.220000X0.810000*%
%ADD31RoundRect,0.160000X0.197500X0.160000X-0.197500X0.160000X-0.197500X-0.160000X0.197500X-0.160000X0*%
%ADD32RoundRect,0.160000X0.222500X0.160000X-0.222500X0.160000X-0.222500X-0.160000X0.222500X-0.160000X0*%
%ADD33RoundRect,0.160000X-0.197500X-0.160000X0.197500X-0.160000X0.197500X0.160000X-0.197500X0.160000X0*%
G04 APERTURE END LIST*
D10*
%TO.C,U1*%
X235043500Y-32848500D02*
X232956500Y-32848500D01*
X232956500Y-30761500D01*
X235043500Y-30761500D01*
X235043500Y-32848500D01*
G36*
X235043500Y-32848500D02*
G01*
X232956500Y-32848500D01*
X232956500Y-30761500D01*
X235043500Y-30761500D01*
X235043500Y-32848500D01*
G37*
%TD*%
D11*
%TO.C,C6*%
X238082500Y-29805000D03*
X239217500Y-29805000D03*
%TD*%
D12*
%TO.C,SW103*%
X216440000Y-59960000D03*
X230290000Y-57420000D03*
%TD*%
%TO.C,SW79*%
X121440000Y-40960000D03*
X135290000Y-38420000D03*
%TD*%
D13*
%TO.C,D85*%
X149400000Y-86500000D03*
X146100000Y-86500000D03*
%TD*%
%TO.C,D83*%
X149650000Y-48750000D03*
X146350000Y-48750000D03*
%TD*%
%TO.C,D61*%
X54650000Y-67500000D03*
X51350000Y-67500000D03*
%TD*%
%TO.C,D71*%
X92750000Y-86500000D03*
X89450000Y-86500000D03*
%TD*%
D12*
%TO.C,SW82*%
X140440000Y-21960000D03*
X154290000Y-19420000D03*
%TD*%
D13*
%TO.C,D95*%
X187650000Y-105500000D03*
X184350000Y-105500000D03*
%TD*%
%TO.C,D72*%
X92500000Y-105500000D03*
X89200000Y-105500000D03*
%TD*%
%TO.C,D55*%
X31000000Y-29500000D03*
X27700000Y-29500000D03*
%TD*%
D14*
%TO.C,C9*%
X229750000Y-33682500D03*
X229750000Y-34817500D03*
%TD*%
D13*
%TO.C,D87*%
X168650000Y-29500000D03*
X165350000Y-29500000D03*
%TD*%
D12*
%TO.C,SW68*%
X83440000Y-21960000D03*
X97290000Y-19420000D03*
%TD*%
D13*
%TO.C,D67*%
X73650000Y-105750000D03*
X70350000Y-105750000D03*
%TD*%
%TO.C,D80*%
X130650000Y-67750000D03*
X127350000Y-67750000D03*
%TD*%
D15*
%TO.C,C12*%
X227567500Y-32750000D03*
X226432500Y-32750000D03*
%TD*%
D12*
%TO.C,SW85*%
X140440000Y-78960000D03*
X154290000Y-76420000D03*
%TD*%
%TO.C,SW91*%
X178440000Y-21960000D03*
X192290000Y-19420000D03*
%TD*%
D16*
%TO.C,R6*%
X229750000Y-15597500D03*
X229750000Y-14402500D03*
%TD*%
D13*
%TO.C,D70*%
X92500000Y-67500000D03*
X89200000Y-67500000D03*
%TD*%
D17*
%TO.C,C15*%
X237750000Y-38817500D03*
X237750000Y-37682500D03*
%TD*%
D12*
%TO.C,SW59*%
X45440000Y-21960000D03*
X59290000Y-19420000D03*
%TD*%
D13*
%TO.C,D73*%
X111650000Y-29500000D03*
X108350000Y-29500000D03*
%TD*%
D12*
%TO.C,SW86*%
X140440000Y-97960000D03*
X154290000Y-95420000D03*
%TD*%
%TO.C,SW76*%
X102440000Y-78960000D03*
X116290000Y-76420000D03*
%TD*%
D13*
%TO.C,D77*%
X111650000Y-105500000D03*
X108350000Y-105500000D03*
%TD*%
%TO.C,D102*%
X225650000Y-48500000D03*
X222350000Y-48500000D03*
%TD*%
%TO.C,D104*%
X225400000Y-86500000D03*
X222100000Y-86500000D03*
%TD*%
D18*
%TO.C,J1*%
X232750000Y-16545000D03*
X233550000Y-16545000D03*
D19*
X234750000Y-16545000D03*
X235750000Y-16545000D03*
X236250000Y-16545000D03*
X237250000Y-16545000D03*
D18*
X238450000Y-16545000D03*
X239250000Y-16545000D03*
X239250000Y-16545000D03*
X238450000Y-16545000D03*
D19*
X237750000Y-16545000D03*
X236750000Y-16545000D03*
X235250000Y-16545000D03*
X234250000Y-16545000D03*
D18*
X233550000Y-16545000D03*
X232750000Y-16545000D03*
%TD*%
D12*
%TO.C,SW97*%
X197440000Y-40960000D03*
X211290000Y-38420000D03*
%TD*%
D20*
%TO.C,R7*%
X234750000Y-23652500D03*
X234750000Y-24847500D03*
%TD*%
D15*
%TO.C,C10*%
X227567500Y-34750000D03*
X226432500Y-34750000D03*
%TD*%
D14*
%TO.C,C4*%
X238250000Y-33182500D03*
X238250000Y-34317500D03*
%TD*%
D21*
%TO.C,D1*%
X242500000Y-16250000D03*
X242500000Y-13750000D03*
%TD*%
D12*
%TO.C,SW99*%
X197440000Y-78960000D03*
X211290000Y-76420000D03*
%TD*%
%TO.C,SW106*%
X240190000Y-40960000D03*
X254040000Y-38420000D03*
%TD*%
D13*
%TO.C,D76*%
X111650000Y-86500000D03*
X108350000Y-86500000D03*
%TD*%
%TO.C,D78*%
X130650000Y-29500000D03*
X127350000Y-29500000D03*
%TD*%
D14*
%TO.C,C14*%
X232250000Y-37432500D03*
X232250000Y-38567500D03*
%TD*%
D13*
%TO.C,D101*%
X225500000Y-29500000D03*
X222200000Y-29500000D03*
%TD*%
%TO.C,D56*%
X30900000Y-48500000D03*
X27600000Y-48500000D03*
%TD*%
D17*
%TO.C,C3*%
X229750000Y-32067500D03*
X229750000Y-30932500D03*
%TD*%
D12*
%TO.C,SW58*%
X21690000Y-78960000D03*
X35540000Y-76420000D03*
%TD*%
%TO.C,SW83*%
X140440000Y-40960000D03*
X154290000Y-38420000D03*
%TD*%
D13*
%TO.C,D92*%
X187650000Y-48500000D03*
X184350000Y-48500000D03*
%TD*%
D12*
%TO.C,SW100*%
X197440000Y-97960000D03*
X211290000Y-95420000D03*
%TD*%
D13*
%TO.C,D89*%
X168650000Y-67500000D03*
X165350000Y-67500000D03*
%TD*%
%TO.C,D68*%
X92500000Y-29750000D03*
X89200000Y-29750000D03*
%TD*%
D12*
%TO.C,SW55*%
X21690000Y-21960000D03*
X35540000Y-19420000D03*
%TD*%
D11*
%TO.C,C1*%
X238432500Y-19500000D03*
X239567500Y-19500000D03*
%TD*%
D12*
%TO.C,SW107*%
X240190000Y-59960000D03*
X254040000Y-57420000D03*
%TD*%
D13*
%TO.C,D79*%
X130650000Y-48500000D03*
X127350000Y-48500000D03*
%TD*%
D22*
%TO.C,D4*%
X235000000Y-18750000D03*
X232500000Y-18750000D03*
%TD*%
D23*
%TO.C,SW1*%
X225750000Y-15250000D03*
X224000000Y-12950000D03*
X222250000Y-15250000D03*
%TD*%
D24*
%TO.C,Y1*%
X233900000Y-37750000D03*
X236100000Y-37750000D03*
X236100000Y-39450000D03*
X233900000Y-39450000D03*
%TD*%
D12*
%TO.C,SW72*%
X83440000Y-97960000D03*
X97290000Y-95420000D03*
%TD*%
D16*
%TO.C,R8*%
X235750000Y-24847500D03*
X235750000Y-23652500D03*
%TD*%
D12*
%TO.C,SW56*%
X21690000Y-40960000D03*
X35540000Y-38420000D03*
%TD*%
D13*
%TO.C,D64*%
X73650000Y-48500000D03*
X70350000Y-48500000D03*
%TD*%
D12*
%TO.C,SW93*%
X178440000Y-60000000D03*
X192290000Y-57460000D03*
%TD*%
D25*
%TO.C,U3*%
X240745000Y-28200000D03*
X242015000Y-28200000D03*
X243285000Y-28200000D03*
X244555000Y-28200000D03*
X244555000Y-35410000D03*
X243285000Y-35410000D03*
X242015000Y-35410000D03*
X240745000Y-35410000D03*
%TD*%
D12*
%TO.C,SW66*%
X64440000Y-78960000D03*
X78290000Y-76420000D03*
%TD*%
D13*
%TO.C,D63*%
X73650000Y-29500000D03*
X70350000Y-29500000D03*
%TD*%
D12*
%TO.C,SW81*%
X121440000Y-78960000D03*
X135290000Y-76420000D03*
%TD*%
D13*
%TO.C,D90*%
X168650000Y-86500000D03*
X165350000Y-86500000D03*
%TD*%
D12*
%TO.C,SW92*%
X178440000Y-40960000D03*
X192290000Y-38420000D03*
%TD*%
D13*
%TO.C,D84*%
X149650000Y-67500000D03*
X146350000Y-67500000D03*
%TD*%
%TO.C,D60*%
X54400000Y-48750000D03*
X51100000Y-48750000D03*
%TD*%
D12*
%TO.C,SW64*%
X64440000Y-40960000D03*
X78290000Y-38420000D03*
%TD*%
D13*
%TO.C,D103*%
X225500000Y-67500000D03*
X222200000Y-67500000D03*
%TD*%
%TO.C,D74*%
X111650000Y-48500000D03*
X108350000Y-48500000D03*
%TD*%
D12*
%TO.C,SW95*%
X178440000Y-97960000D03*
X192290000Y-95420000D03*
%TD*%
D13*
%TO.C,D58*%
X30900000Y-86750000D03*
X27600000Y-86750000D03*
%TD*%
D26*
%TO.C,D105*%
X249850000Y-29750000D03*
X253150000Y-29750000D03*
%TD*%
D12*
%TO.C,SW94*%
X178440000Y-78960000D03*
X192290000Y-76420000D03*
%TD*%
D27*
%TO.C,L1*%
X228750000Y-33677500D03*
X228750000Y-34822500D03*
%TD*%
D12*
%TO.C,SW105*%
X240190000Y-21960000D03*
X254040000Y-19420000D03*
%TD*%
D22*
%TO.C,D5*%
X235500000Y-21750000D03*
X233000000Y-21750000D03*
%TD*%
D12*
%TO.C,SW108*%
X240190000Y-78960000D03*
X254040000Y-76420000D03*
%TD*%
D13*
%TO.C,D107*%
X249400000Y-67500000D03*
X246100000Y-67500000D03*
%TD*%
D12*
%TO.C,SW60*%
X45440000Y-40960000D03*
X59290000Y-38420000D03*
%TD*%
D28*
%TO.C,U2*%
X237250000Y-24475000D03*
X238200000Y-24475000D03*
X239150000Y-24475000D03*
X239150000Y-26750000D03*
X237250000Y-26750000D03*
%TD*%
D29*
%TO.C,U1*%
X231555000Y-33605000D03*
X231555000Y-33205000D03*
X231555000Y-32805000D03*
X231555000Y-32405000D03*
X231555000Y-32005000D03*
X231555000Y-31605000D03*
X231555000Y-31205000D03*
X231555000Y-30805000D03*
X231555000Y-30405000D03*
X231555000Y-30005000D03*
D30*
X232200000Y-29360000D03*
X232600000Y-29360000D03*
X233000000Y-29360000D03*
X233400000Y-29360000D03*
X233800000Y-29360000D03*
X234200000Y-29360000D03*
X234600000Y-29360000D03*
X235000000Y-29360000D03*
X235400000Y-29360000D03*
X235800000Y-29360000D03*
D29*
X236445000Y-30005000D03*
X236445000Y-30405000D03*
X236445000Y-30805000D03*
X236445000Y-31205000D03*
X236445000Y-31605000D03*
X236445000Y-32005000D03*
X236445000Y-32405000D03*
X236445000Y-32805000D03*
X236445000Y-33205000D03*
X236445000Y-33605000D03*
D30*
X235800000Y-34250000D03*
X235400000Y-34250000D03*
X235000000Y-34250000D03*
X234600000Y-34250000D03*
X234200000Y-34250000D03*
X233800000Y-34250000D03*
X233400000Y-34250000D03*
X233000000Y-34250000D03*
X232600000Y-34250000D03*
X232200000Y-34250000D03*
%TD*%
D12*
%TO.C,SW69*%
X83440000Y-40960000D03*
X97290000Y-38420000D03*
%TD*%
D13*
%TO.C,D93*%
X187650000Y-67500000D03*
X184350000Y-67500000D03*
%TD*%
D12*
%TO.C,SW63*%
X64440000Y-21960000D03*
X78290000Y-19420000D03*
%TD*%
%TO.C,SW78*%
X121440000Y-21960000D03*
X135290000Y-19420000D03*
%TD*%
D15*
%TO.C,C11*%
X227567500Y-33750000D03*
X226432500Y-33750000D03*
%TD*%
D12*
%TO.C,SW80*%
X121440000Y-59960000D03*
X135290000Y-57420000D03*
%TD*%
D13*
%TO.C,D65*%
X73650000Y-67750000D03*
X70350000Y-67750000D03*
%TD*%
D12*
%TO.C,SW96*%
X197440000Y-21960000D03*
X211290000Y-19420000D03*
%TD*%
D13*
%TO.C,D86*%
X149650000Y-105500000D03*
X146350000Y-105500000D03*
%TD*%
D12*
%TO.C,SW101*%
X216440000Y-21960000D03*
X230290000Y-19420000D03*
%TD*%
D31*
%TO.C,R2*%
X233847500Y-20250000D03*
X232652500Y-20250000D03*
%TD*%
D12*
%TO.C,SW67*%
X64440000Y-97960000D03*
X78290000Y-95420000D03*
%TD*%
D13*
%TO.C,D99*%
X206650000Y-86500000D03*
X203350000Y-86500000D03*
%TD*%
D12*
%TO.C,SW90*%
X159440000Y-78960000D03*
X173290000Y-76420000D03*
%TD*%
D13*
%TO.C,D98*%
X206650000Y-67500000D03*
X203350000Y-67500000D03*
%TD*%
D12*
%TO.C,SW102*%
X216440000Y-40960000D03*
X230290000Y-38420000D03*
%TD*%
D13*
%TO.C,D62*%
X54650000Y-86500000D03*
X51350000Y-86500000D03*
%TD*%
D12*
%TO.C,SW70*%
X83440000Y-59960000D03*
X97290000Y-57420000D03*
%TD*%
D16*
%TO.C,R1*%
X244000000Y-16597500D03*
X244000000Y-15402500D03*
%TD*%
D12*
%TO.C,SW65*%
X64440000Y-59960000D03*
X78290000Y-57420000D03*
%TD*%
D32*
%TO.C,L2*%
X232472500Y-36055000D03*
X231327500Y-36055000D03*
%TD*%
D12*
%TO.C,SW77*%
X102440000Y-97960000D03*
X116290000Y-95420000D03*
%TD*%
%TO.C,SW98*%
X197440000Y-59960000D03*
X211290000Y-57420000D03*
%TD*%
D16*
%TO.C,R5*%
X228250000Y-15597500D03*
X228250000Y-14402500D03*
%TD*%
D13*
%TO.C,D91*%
X187650000Y-29750000D03*
X184350000Y-29750000D03*
%TD*%
D12*
%TO.C,SW89*%
X159440000Y-59960000D03*
X173290000Y-57420000D03*
%TD*%
%TO.C,SW61*%
X45440000Y-59960000D03*
X59290000Y-57420000D03*
%TD*%
D13*
%TO.C,D94*%
X187400000Y-86500000D03*
X184100000Y-86500000D03*
%TD*%
%TO.C,D81*%
X130650000Y-86500000D03*
X127350000Y-86500000D03*
%TD*%
D12*
%TO.C,SW74*%
X102440000Y-40960000D03*
X116290000Y-38420000D03*
%TD*%
D13*
%TO.C,D75*%
X111750000Y-67500000D03*
X108450000Y-67500000D03*
%TD*%
%TO.C,D57*%
X30900000Y-67500000D03*
X27600000Y-67500000D03*
%TD*%
D12*
%TO.C,SW57*%
X21690000Y-59960000D03*
X35540000Y-57420000D03*
%TD*%
D13*
%TO.C,D82*%
X149650000Y-30000000D03*
X146350000Y-30000000D03*
%TD*%
%TO.C,D69*%
X92400000Y-48500000D03*
X89100000Y-48500000D03*
%TD*%
D12*
%TO.C,SW84*%
X140440000Y-59960000D03*
X154290000Y-57420000D03*
%TD*%
D13*
%TO.C,D59*%
X54400000Y-29750000D03*
X51100000Y-29750000D03*
%TD*%
%TO.C,D100*%
X206650000Y-105500000D03*
X203350000Y-105500000D03*
%TD*%
%TO.C,D108*%
X249250000Y-86500000D03*
X245950000Y-86500000D03*
%TD*%
D12*
%TO.C,SW73*%
X102440000Y-21960000D03*
X116290000Y-19420000D03*
%TD*%
%TO.C,SW104*%
X216440000Y-78960000D03*
X230290000Y-76420000D03*
%TD*%
D13*
%TO.C,D66*%
X73650000Y-86500000D03*
X70350000Y-86500000D03*
%TD*%
D12*
%TO.C,SW87*%
X159440000Y-21960000D03*
X173290000Y-19420000D03*
%TD*%
D11*
%TO.C,C8*%
X233682500Y-36000000D03*
X234817500Y-36000000D03*
%TD*%
D12*
%TO.C,SW62*%
X45440000Y-78960000D03*
X59290000Y-76420000D03*
%TD*%
D16*
%TO.C,R4*%
X246250000Y-30097500D03*
X246250000Y-28902500D03*
%TD*%
D33*
%TO.C,R3*%
X226402500Y-31750000D03*
X227597500Y-31750000D03*
%TD*%
D12*
%TO.C,SW88*%
X159440000Y-40960000D03*
X173290000Y-38420000D03*
%TD*%
D17*
%TO.C,C13*%
X228750000Y-32067500D03*
X228750000Y-30932500D03*
%TD*%
D12*
%TO.C,SW75*%
X102440000Y-59960000D03*
X116290000Y-57420000D03*
%TD*%
D13*
%TO.C,D96*%
X206650000Y-29500000D03*
X203350000Y-29500000D03*
%TD*%
D17*
%TO.C,C2*%
X240500000Y-25317500D03*
X240500000Y-24182500D03*
%TD*%
D13*
%TO.C,D97*%
X206500000Y-48500000D03*
X203200000Y-48500000D03*
%TD*%
D12*
%TO.C,SW71*%
X83440000Y-78960000D03*
X97290000Y-76420000D03*
%TD*%
D13*
%TO.C,D106*%
X249150000Y-48500000D03*
X245850000Y-48500000D03*
%TD*%
D11*
%TO.C,C5*%
X238082500Y-30805000D03*
X239217500Y-30805000D03*
%TD*%
D13*
%TO.C,D88*%
X168650000Y-48500000D03*
X165350000Y-48500000D03*
%TD*%
D15*
%TO.C,C7*%
X229817500Y-36000000D03*
X228682500Y-36000000D03*
%TD*%
M02*
