M48
; DRILL file {KiCad 9.0.6} date 2026-01-15T12:54:53-0500
; FORMAT={-:-/ absolute / metric / decimal}
; #@! TF.CreationDate,2026-01-15T12:54:53-05:00
; #@! TF.GenerationSoftware,Kicad,Pcbnew,9.0.6
; #@! TF.FileFunction,Plated,1,2,PTH
FMAT,2
METRIC
; #@! TA.AperFunction,Plated,PTH,ViaDrill
T1C0.200
; #@! TA.AperFunction,Plated,PTH,ViaDrill
T2C0.300
; #@! TA.AperFunction,Plated,PTH,ComponentDrill
T3C0.600
; #@! TA.AperFunction,Plated,PTH,ViaDrill
T4C3.200
%
G90
G05
T1
X33.25Y-31.5
X55.7Y-31.05
X74.7Y-30.55
X93.75Y-30.0
X113.0Y-29.5
X131.875Y-29.125
X150.25Y-28.75
X169.5Y-28.25
X189.5Y-27.75
X208.75Y-27.25
X227.75Y-35.5
X228.5Y-32.75
X230.0Y-36.75
X230.343Y-31.571
X230.48Y-30.5
X230.5Y-31.0
X230.509Y-32.043
X230.75Y-30.0
X231.0Y-29.5
X231.5Y-29.0
X232.0Y-35.25
X232.25Y-28.5
X232.75Y-28.0
X233.4Y-35.25
X233.824Y-34.985
X234.25Y-28.25
X234.25Y-35.25
X234.6Y-27.75
X234.748Y-35.379
X235.314Y-35.38
X235.75Y-17.67
X235.767Y-18.833
X236.598Y-18.995
X237.25Y-32.405
X237.5Y-27.75
X237.525Y-28.155
X237.75Y-17.75
X237.827Y-32.423
X237.833Y-35.914
X237.854Y-28.0
X238.5Y-35.947
X241.0Y-18.5
T2
X37.75Y-19.42
X37.75Y-38.5
X37.75Y-76.42
X38.0Y-57.5
X59.25Y-17.25
X59.25Y-36.25
X59.25Y-55.25
X59.25Y-74.5
X78.25Y-17.25
X78.25Y-36.25
X78.25Y-55.25
X78.25Y-74.5
X80.5Y-95.42
X97.25Y-17.25
X97.25Y-36.25
X97.25Y-55.5
X97.25Y-74.5
X97.25Y-93.5
X116.25Y-17.25
X116.25Y-36.25
X116.25Y-55.25
X116.25Y-74.5
X116.25Y-93.5
X135.25Y-17.25
X135.25Y-36.25
X135.25Y-55.25
X135.25Y-74.5
X154.25Y-17.25
X154.25Y-36.25
X154.25Y-55.25
X154.25Y-74.5
X154.25Y-93.5
X173.25Y-17.5
X173.25Y-36.25
X173.25Y-55.25
X173.25Y-74.5
X192.25Y-17.25
X192.25Y-36.25
X192.25Y-55.25
X192.25Y-74.5
X192.25Y-93.5
X211.25Y-17.25
X211.25Y-36.25
X211.25Y-55.25
X211.25Y-74.5
X211.25Y-93.5
X225.0Y-32.25
X225.0Y-34.75
X226.75Y-35.75
X228.75Y-40.25
X230.25Y-17.25
X230.25Y-40.25
X230.25Y-55.25
X230.25Y-74.5
X230.75Y-34.5
X230.75Y-36.75
X231.75Y-17.5
X232.25Y-40.75
X232.75Y-14.25
X233.0Y-30.75
X233.0Y-31.75
X233.0Y-32.75
X233.75Y-23.25
X233.75Y-24.75
X234.0Y-30.75
X234.0Y-31.75
X234.0Y-32.75
X234.25Y-21.75
X234.25Y-26.25
X234.75Y-20.25
X235.0Y-30.75
X235.0Y-31.75
X235.0Y-32.75
X235.5Y-36.5
X236.25Y-26.0
X236.25Y-27.0
X236.25Y-28.0
X236.5Y-24.75
X237.0Y-21.25
X237.0Y-22.5
X237.25Y-20.0
X237.5Y-18.75
X239.0Y-34.25
X239.5Y-14.25
X239.5Y-37.75
X239.85Y-27.25
X240.25Y-17.25
X240.25Y-30.5
X240.75Y-19.5
X244.0Y-29.75
X251.0Y-23.25
X251.625Y-54.625
X252.25Y-40.25
X252.75Y-74.0
T4
X20.0Y-15.0
X20.0Y-107.5
X257.0Y-15.0
X257.0Y-107.5
T3
G00X231.68Y-11.15
M15
G01X231.68Y-11.75
M16
G05
G00X231.68Y-15.08
M15
G01X231.68Y-16.18
M16
G05
G00X240.32Y-11.15
M15
G01X240.32Y-11.75
M16
G05
G00X240.32Y-15.08
M15
G01X240.32Y-16.18
M16
G05
M30
