%TF.GenerationSoftware,KiCad,Pcbnew,9.0.6*%
%TF.CreationDate,2026-01-13T20:26:06-05:00*%
%TF.ProjectId,60_keyboard,36305f6b-6579-4626-9f61-72642e6b6963,rev?*%
%TF.SameCoordinates,Original*%
%TF.FileFunction,Legend,Bot*%
%TF.FilePolarity,Positive*%
%FSLAX46Y46*%
G04 Gerber Fmt 4.6, Leading zero omitted, Abs format (unit mm)*
G04 Created by KiCad (PCBNEW 9.0.6) date 2026-01-13 20:26:06*
%MOMM*%
%LPD*%
G01*
G04 APERTURE LIST*
%ADD10C,0.150000*%
%ADD11C,0.120000*%
%ADD12C,0.127000*%
%ADD13C,0.200000*%
G04 APERTURE END LIST*
D10*
X236333333Y-17599819D02*
X236333333Y-18314104D01*
X236333333Y-18314104D02*
X236380952Y-18456961D01*
X236380952Y-18456961D02*
X236476190Y-18552200D01*
X236476190Y-18552200D02*
X236619047Y-18599819D01*
X236619047Y-18599819D02*
X236714285Y-18599819D01*
X235333333Y-18599819D02*
X235904761Y-18599819D01*
X235619047Y-18599819D02*
X235619047Y-17599819D01*
X235619047Y-17599819D02*
X235714285Y-17742676D01*
X235714285Y-17742676D02*
X235809523Y-17837914D01*
X235809523Y-17837914D02*
X235904761Y-17885533D01*
D11*
%TO.C,C6*%
X238482379Y-29425000D02*
X238817621Y-29425000D01*
X238482379Y-30185000D02*
X238817621Y-30185000D01*
%TO.C,D85*%
X150110000Y-85500000D02*
X146100000Y-85500000D01*
X150110000Y-85500000D02*
X150110000Y-87500000D01*
X150110000Y-87500000D02*
X146100000Y-87500000D01*
%TO.C,D83*%
X150360000Y-47750000D02*
X146350000Y-47750000D01*
X150360000Y-47750000D02*
X150360000Y-49750000D01*
X150360000Y-49750000D02*
X146350000Y-49750000D01*
%TO.C,D61*%
X55360000Y-66500000D02*
X51350000Y-66500000D01*
X55360000Y-66500000D02*
X55360000Y-68500000D01*
X55360000Y-68500000D02*
X51350000Y-68500000D01*
%TO.C,D71*%
X93460000Y-85500000D02*
X89450000Y-85500000D01*
X93460000Y-85500000D02*
X93460000Y-87500000D01*
X93460000Y-87500000D02*
X89450000Y-87500000D01*
%TO.C,D95*%
X188360000Y-104500000D02*
X184350000Y-104500000D01*
X188360000Y-104500000D02*
X188360000Y-106500000D01*
X188360000Y-106500000D02*
X184350000Y-106500000D01*
%TO.C,D72*%
X93210000Y-104500000D02*
X89200000Y-104500000D01*
X93210000Y-104500000D02*
X93210000Y-106500000D01*
X93210000Y-106500000D02*
X89200000Y-106500000D01*
%TO.C,D55*%
X31710000Y-28500000D02*
X27700000Y-28500000D01*
X31710000Y-28500000D02*
X31710000Y-30500000D01*
X31710000Y-30500000D02*
X27700000Y-30500000D01*
%TO.C,C9*%
X229370000Y-34082379D02*
X229370000Y-34417621D01*
X230130000Y-34082379D02*
X230130000Y-34417621D01*
%TO.C,D87*%
X169360000Y-28500000D02*
X165350000Y-28500000D01*
X169360000Y-28500000D02*
X169360000Y-30500000D01*
X169360000Y-30500000D02*
X165350000Y-30500000D01*
%TO.C,D67*%
X74360000Y-104750000D02*
X70350000Y-104750000D01*
X74360000Y-104750000D02*
X74360000Y-106750000D01*
X74360000Y-106750000D02*
X70350000Y-106750000D01*
%TO.C,D80*%
X131360000Y-66750000D02*
X127350000Y-66750000D01*
X131360000Y-66750000D02*
X131360000Y-68750000D01*
X131360000Y-68750000D02*
X127350000Y-68750000D01*
%TO.C,C12*%
X227167621Y-32370000D02*
X226832379Y-32370000D01*
X227167621Y-33130000D02*
X226832379Y-33130000D01*
%TO.C,D70*%
X93210000Y-66500000D02*
X89200000Y-66500000D01*
X93210000Y-66500000D02*
X93210000Y-68500000D01*
X93210000Y-68500000D02*
X89200000Y-68500000D01*
%TO.C,C15*%
X236020000Y-38722621D02*
X236020000Y-38387379D01*
X236780000Y-38722621D02*
X236780000Y-38387379D01*
%TO.C,D73*%
X112360000Y-28500000D02*
X108350000Y-28500000D01*
X112360000Y-28500000D02*
X112360000Y-30500000D01*
X112360000Y-30500000D02*
X108350000Y-30500000D01*
%TO.C,D77*%
X112360000Y-104500000D02*
X108350000Y-104500000D01*
X112360000Y-104500000D02*
X112360000Y-106500000D01*
X112360000Y-106500000D02*
X108350000Y-106500000D01*
%TO.C,D102*%
X226360000Y-47500000D02*
X222350000Y-47500000D01*
X226360000Y-47500000D02*
X226360000Y-49500000D01*
X226360000Y-49500000D02*
X222350000Y-49500000D01*
%TO.C,D104*%
X226110000Y-85500000D02*
X222100000Y-85500000D01*
X226110000Y-85500000D02*
X226110000Y-87500000D01*
X226110000Y-87500000D02*
X222100000Y-87500000D01*
%TO.C,J1*%
X231300000Y-8600000D02*
X240700000Y-8600000D01*
X231300000Y-10500000D02*
X231300000Y-8600000D01*
X231300000Y-14400000D02*
X231300000Y-12400000D01*
X240700000Y-10500000D02*
X240700000Y-8600000D01*
X240700000Y-14400000D02*
X240700000Y-12400000D01*
%TO.C,R7*%
X234120000Y-23082379D02*
X234120000Y-23417621D01*
X234880000Y-23082379D02*
X234880000Y-23417621D01*
%TO.C,C10*%
X227167621Y-34370000D02*
X226832379Y-34370000D01*
X227167621Y-35130000D02*
X226832379Y-35130000D01*
%TO.C,C4*%
X237870000Y-33582379D02*
X237870000Y-33917621D01*
X238630000Y-33582379D02*
X238630000Y-33917621D01*
%TO.C,D1*%
X241650000Y-19010000D02*
X241650000Y-15750000D01*
X243350000Y-19010000D02*
X241650000Y-19010000D01*
X243350000Y-19010000D02*
X243350000Y-15750000D01*
%TO.C,D76*%
X112360000Y-85500000D02*
X108350000Y-85500000D01*
X112360000Y-85500000D02*
X112360000Y-87500000D01*
X112360000Y-87500000D02*
X108350000Y-87500000D01*
%TO.C,D78*%
X131360000Y-28500000D02*
X127350000Y-28500000D01*
X131360000Y-28500000D02*
X131360000Y-30500000D01*
X131360000Y-30500000D02*
X127350000Y-30500000D01*
%TO.C,C14*%
X230020000Y-38289879D02*
X230020000Y-38625121D01*
X230780000Y-38289879D02*
X230780000Y-38625121D01*
%TO.C,D101*%
X226210000Y-28500000D02*
X222200000Y-28500000D01*
X226210000Y-28500000D02*
X226210000Y-30500000D01*
X226210000Y-30500000D02*
X222200000Y-30500000D01*
%TO.C,D56*%
X31610000Y-47500000D02*
X27600000Y-47500000D01*
X31610000Y-47500000D02*
X31610000Y-49500000D01*
X31610000Y-49500000D02*
X27600000Y-49500000D01*
%TO.C,C3*%
X229370000Y-31667621D02*
X229370000Y-31332379D01*
X230130000Y-31667621D02*
X230130000Y-31332379D01*
%TO.C,D92*%
X188360000Y-47500000D02*
X184350000Y-47500000D01*
X188360000Y-47500000D02*
X188360000Y-49500000D01*
X188360000Y-49500000D02*
X184350000Y-49500000D01*
%TO.C,D89*%
X169360000Y-66500000D02*
X165350000Y-66500000D01*
X169360000Y-66500000D02*
X169360000Y-68500000D01*
X169360000Y-68500000D02*
X165350000Y-68500000D01*
%TO.C,D68*%
X93210000Y-28750000D02*
X89200000Y-28750000D01*
X93210000Y-28750000D02*
X93210000Y-30750000D01*
X93210000Y-30750000D02*
X89200000Y-30750000D01*
%TO.C,C1*%
X238884165Y-18140000D02*
X239115835Y-18140000D01*
X238884165Y-18860000D02*
X239115835Y-18860000D01*
%TO.C,D79*%
X131360000Y-47500000D02*
X127350000Y-47500000D01*
X131360000Y-47500000D02*
X131360000Y-49500000D01*
X131360000Y-49500000D02*
X127350000Y-49500000D01*
D12*
%TO.C,Y1*%
X233320000Y-37055000D02*
X233480000Y-37055000D01*
X233320000Y-39555000D02*
X233480000Y-39555000D01*
D13*
X232400000Y-36105000D02*
G75*
G02*
X232200000Y-36105000I-100000J0D01*
G01*
X232200000Y-36105000D02*
G75*
G02*
X232400000Y-36105000I100000J0D01*
G01*
D11*
%TO.C,R8*%
X235120000Y-23417621D02*
X235120000Y-23082379D01*
X235880000Y-23417621D02*
X235880000Y-23082379D01*
%TO.C,D64*%
X74360000Y-47500000D02*
X70350000Y-47500000D01*
X74360000Y-47500000D02*
X74360000Y-49500000D01*
X74360000Y-49500000D02*
X70350000Y-49500000D01*
D12*
%TO.C,U3*%
X240035000Y-29165000D02*
X240035000Y-34445000D01*
X245265000Y-29165000D02*
X245265000Y-34445000D01*
D13*
X240235000Y-26590000D02*
G75*
G02*
X240035000Y-26590000I-100000J0D01*
G01*
X240035000Y-26590000D02*
G75*
G02*
X240235000Y-26590000I100000J0D01*
G01*
D11*
%TO.C,D63*%
X74360000Y-28500000D02*
X70350000Y-28500000D01*
X74360000Y-28500000D02*
X74360000Y-30500000D01*
X74360000Y-30500000D02*
X70350000Y-30500000D01*
%TO.C,D90*%
X169360000Y-85500000D02*
X165350000Y-85500000D01*
X169360000Y-85500000D02*
X169360000Y-87500000D01*
X169360000Y-87500000D02*
X165350000Y-87500000D01*
%TO.C,D84*%
X150360000Y-66500000D02*
X146350000Y-66500000D01*
X150360000Y-66500000D02*
X150360000Y-68500000D01*
X150360000Y-68500000D02*
X146350000Y-68500000D01*
%TO.C,D60*%
X55110000Y-47750000D02*
X51100000Y-47750000D01*
X55110000Y-47750000D02*
X55110000Y-49750000D01*
X55110000Y-49750000D02*
X51100000Y-49750000D01*
%TO.C,D103*%
X226210000Y-66500000D02*
X222200000Y-66500000D01*
X226210000Y-66500000D02*
X226210000Y-68500000D01*
X226210000Y-68500000D02*
X222200000Y-68500000D01*
%TO.C,D74*%
X112360000Y-47500000D02*
X108350000Y-47500000D01*
X112360000Y-47500000D02*
X112360000Y-49500000D01*
X112360000Y-49500000D02*
X108350000Y-49500000D01*
%TO.C,D58*%
X31610000Y-85750000D02*
X27600000Y-85750000D01*
X31610000Y-85750000D02*
X31610000Y-87750000D01*
X31610000Y-87750000D02*
X27600000Y-87750000D01*
%TO.C,D105*%
X250610000Y-28750000D02*
X246600000Y-28750000D01*
X250610000Y-28750000D02*
X250610000Y-30750000D01*
X250610000Y-30750000D02*
X246600000Y-30750000D01*
%TO.C,L1*%
X228390000Y-34149800D02*
X228390000Y-34350200D01*
X229110000Y-34149800D02*
X229110000Y-34350200D01*
%TO.C,D5*%
X236260000Y-19400000D02*
X233000000Y-19400000D01*
X236260000Y-19400000D02*
X236260000Y-21100000D01*
X236260000Y-21100000D02*
X233000000Y-21100000D01*
%TO.C,D107*%
X250110000Y-66500000D02*
X246100000Y-66500000D01*
X250110000Y-66500000D02*
X250110000Y-68500000D01*
X250110000Y-68500000D02*
X246100000Y-68500000D01*
%TO.C,U2*%
X237940000Y-20340000D02*
X237940000Y-22160000D01*
X237940000Y-22160000D02*
X237990000Y-22160000D01*
X237990000Y-20340000D02*
X237940000Y-20340000D01*
X239110000Y-22160000D02*
X239890000Y-22160000D01*
X241010000Y-22160000D02*
X241060000Y-22160000D01*
X241060000Y-20340000D02*
X241010000Y-20340000D01*
X241060000Y-22160000D02*
X241060000Y-20340000D01*
X237990000Y-19800000D02*
X237660000Y-20040000D01*
X237660000Y-19560000D01*
X237990000Y-19800000D01*
G36*
X237990000Y-19800000D02*
G01*
X237660000Y-20040000D01*
X237660000Y-19560000D01*
X237990000Y-19800000D01*
G37*
D12*
%TO.C,U1*%
X231500000Y-29305000D02*
X231750000Y-29305000D01*
X231500000Y-29555000D02*
X231500000Y-29305000D01*
X231500000Y-34305000D02*
X231500000Y-34055000D01*
X231500000Y-34305000D02*
X231750000Y-34305000D01*
X236250000Y-29305000D02*
X236500000Y-29305000D01*
X236250000Y-34305000D02*
X236500000Y-34305000D01*
X236500000Y-29305000D02*
X236500000Y-29555000D01*
X236500000Y-34305000D02*
X236500000Y-34055000D01*
D13*
X230600000Y-33605000D02*
G75*
G02*
X230400000Y-33605000I-100000J0D01*
G01*
X230400000Y-33605000D02*
G75*
G02*
X230600000Y-33605000I100000J0D01*
G01*
D11*
%TO.C,D93*%
X188360000Y-66500000D02*
X184350000Y-66500000D01*
X188360000Y-66500000D02*
X188360000Y-68500000D01*
X188360000Y-68500000D02*
X184350000Y-68500000D01*
%TO.C,C11*%
X227167621Y-33370000D02*
X226832379Y-33370000D01*
X227167621Y-34130000D02*
X226832379Y-34130000D01*
%TO.C,D65*%
X74360000Y-66750000D02*
X70350000Y-66750000D01*
X74360000Y-66750000D02*
X74360000Y-68750000D01*
X74360000Y-68750000D02*
X70350000Y-68750000D01*
%TO.C,D86*%
X150360000Y-104500000D02*
X146350000Y-104500000D01*
X150360000Y-104500000D02*
X150360000Y-106500000D01*
X150360000Y-106500000D02*
X146350000Y-106500000D01*
%TO.C,R2*%
X233417621Y-18120000D02*
X233082379Y-18120000D01*
X233417621Y-18880000D02*
X233082379Y-18880000D01*
%TO.C,D99*%
X207360000Y-85500000D02*
X203350000Y-85500000D01*
X207360000Y-85500000D02*
X207360000Y-87500000D01*
X207360000Y-87500000D02*
X203350000Y-87500000D01*
%TO.C,D98*%
X207360000Y-66500000D02*
X203350000Y-66500000D01*
X207360000Y-66500000D02*
X207360000Y-68500000D01*
X207360000Y-68500000D02*
X203350000Y-68500000D01*
%TO.C,D62*%
X55360000Y-85500000D02*
X51350000Y-85500000D01*
X55360000Y-85500000D02*
X55360000Y-87500000D01*
X55360000Y-87500000D02*
X51350000Y-87500000D01*
%TO.C,L2*%
X232000200Y-35695000D02*
X231799800Y-35695000D01*
X232000200Y-36415000D02*
X231799800Y-36415000D01*
%TO.C,D91*%
X188360000Y-28750000D02*
X184350000Y-28750000D01*
X188360000Y-28750000D02*
X188360000Y-30750000D01*
X188360000Y-30750000D02*
X184350000Y-30750000D01*
%TO.C,D94*%
X188110000Y-85500000D02*
X184100000Y-85500000D01*
X188110000Y-85500000D02*
X188110000Y-87500000D01*
X188110000Y-87500000D02*
X184100000Y-87500000D01*
%TO.C,D81*%
X131360000Y-85500000D02*
X127350000Y-85500000D01*
X131360000Y-85500000D02*
X131360000Y-87500000D01*
X131360000Y-87500000D02*
X127350000Y-87500000D01*
%TO.C,D75*%
X112460000Y-66500000D02*
X108450000Y-66500000D01*
X112460000Y-66500000D02*
X112460000Y-68500000D01*
X112460000Y-68500000D02*
X108450000Y-68500000D01*
%TO.C,D57*%
X31610000Y-66500000D02*
X27600000Y-66500000D01*
X31610000Y-66500000D02*
X31610000Y-68500000D01*
X31610000Y-68500000D02*
X27600000Y-68500000D01*
%TO.C,D82*%
X150360000Y-29000000D02*
X146350000Y-29000000D01*
X150360000Y-29000000D02*
X150360000Y-31000000D01*
X150360000Y-31000000D02*
X146350000Y-31000000D01*
%TO.C,D69*%
X93110000Y-47500000D02*
X89100000Y-47500000D01*
X93110000Y-47500000D02*
X93110000Y-49500000D01*
X93110000Y-49500000D02*
X89100000Y-49500000D01*
%TO.C,D59*%
X55110000Y-28750000D02*
X51100000Y-28750000D01*
X55110000Y-28750000D02*
X55110000Y-30750000D01*
X55110000Y-30750000D02*
X51100000Y-30750000D01*
%TO.C,D100*%
X207360000Y-104500000D02*
X203350000Y-104500000D01*
X207360000Y-104500000D02*
X207360000Y-106500000D01*
X207360000Y-106500000D02*
X203350000Y-106500000D01*
%TO.C,D108*%
X249960000Y-85500000D02*
X245950000Y-85500000D01*
X249960000Y-85500000D02*
X249960000Y-87500000D01*
X249960000Y-87500000D02*
X245950000Y-87500000D01*
%TO.C,D66*%
X74360000Y-85500000D02*
X70350000Y-85500000D01*
X74360000Y-85500000D02*
X74360000Y-87500000D01*
X74360000Y-87500000D02*
X70350000Y-87500000D01*
%TO.C,C8*%
X234332379Y-35620000D02*
X234667621Y-35620000D01*
X234332379Y-36380000D02*
X234667621Y-36380000D01*
%TO.C,R3*%
X226832379Y-31370000D02*
X227167621Y-31370000D01*
X226832379Y-32130000D02*
X227167621Y-32130000D01*
%TO.C,C13*%
X228390000Y-31615835D02*
X228390000Y-31384165D01*
X229110000Y-31615835D02*
X229110000Y-31384165D01*
%TO.C,D96*%
X207360000Y-28500000D02*
X203350000Y-28500000D01*
X207360000Y-28500000D02*
X207360000Y-30500000D01*
X207360000Y-30500000D02*
X203350000Y-30500000D01*
%TO.C,C2*%
X236890000Y-21865835D02*
X236890000Y-21634165D01*
X237610000Y-21865835D02*
X237610000Y-21634165D01*
%TO.C,D97*%
X207210000Y-47500000D02*
X203200000Y-47500000D01*
X207210000Y-47500000D02*
X207210000Y-49500000D01*
X207210000Y-49500000D02*
X203200000Y-49500000D01*
%TO.C,D106*%
X249860000Y-47500000D02*
X245850000Y-47500000D01*
X249860000Y-47500000D02*
X249860000Y-49500000D01*
X249860000Y-49500000D02*
X245850000Y-49500000D01*
%TO.C,C5*%
X238482379Y-30425000D02*
X238817621Y-30425000D01*
X238482379Y-31185000D02*
X238817621Y-31185000D01*
%TO.C,D88*%
X169360000Y-47500000D02*
X165350000Y-47500000D01*
X169360000Y-47500000D02*
X169360000Y-49500000D01*
X169360000Y-49500000D02*
X165350000Y-49500000D01*
%TO.C,C7*%
X229417621Y-35620000D02*
X229082379Y-35620000D01*
X229417621Y-36380000D02*
X229082379Y-36380000D01*
%TD*%
M02*
